<svg xmlns="http://www.w3.org/2000/svg" xmlns:xlink="http://www.w3.org/1999/xlink" width="557" height="898.166" viewBox="0 0 557 898.166"><defs><style>.a,.ab,.ac,.ae,.au,.av,.aw,.k,.l,.m,.q{fill:none;}.b,.h,.i{fill:#035d71;}.c{clip-path:url(#a);}.d{fill:rgba(5,143,168,0.25);}.d,.r{opacity:0.57;}.e{opacity:0.66;clip-path:url(#b);}.e,.o{isolation:isolate;}.f{fill:rgba(3,93,113,0.86);}.g{opacity:0.16;}.h{opacity:0.04;}.i{opacity:0.64;}.j,.n{fill:#97ccec;}.k,.l,.m{stroke:#97ccec;}.ab,.ac,.ae,.au,.av,.aw,.k,.l,.m{stroke-linecap:round;}.k,.q{stroke-miterlimit:10;}.k{stroke-width:2.329px;}.ab,.ac,.ae,.au,.av,.aw,.l,.m{stroke-linejoin:round;}.l{stroke-width:1.165px;}.m{stroke-width:1.47px;}.n{opacity:0.43;}.o{mix-blend-mode:screen;fill:url(#c);}.p{fill:#afb9bf;opacity:0.65;}.q{stroke:#b5b5b5;stroke-width:3.706px;opacity:0.31;}.r{fill:#383f51;}.s{fill:#ffb38e;}.t{fill:#3d3e56;}.u{fill:#525358;}.v{fill:#513132;}.w{fill:#a0dbf9;}.x{fill:#cb825f;}.y{fill:#fafafa;}.z{fill:#cecece;}.aa{fill:#e6eefb;}.ab,.au{stroke:#513132;}.ab{stroke-width:0.681px;}.ac{stroke:#cb825f;stroke-width:0.584px;}.ad{fill:#f5f5f5;}.ae,.aw{stroke:#f5f5f5;}.ae{stroke-width:0.706px;}.af{fill:#0f4583;}.ag{fill:#266eb6;}.ah{fill:#6ba4d9;}.ai{fill:#202453;}.aj{fill:#ff9887;}.ak{fill:#e5f2f9;}.al{fill:url(#d);}.am{fill:#1a1b27;}.an{fill:#385a60;}.ao{fill:#ff9983;}.ap{fill:#f57c69;}.aq{fill:#393a50;}.ar{fill:#6ab1db;}.as{fill:#fff;}.at{fill:#ff9885;}.au,.av{stroke-width:0.903px;}.av{stroke:#f57c69;}.aw{stroke-width:0.797px;}.ax{fill:#121444;}.ay{fill:#b1d4f0;}.az{fill:#cde8f9;}.ba{fill:#a4c5e8;}.bb{fill:#497078;}.bc{fill:#c3d8e5;}</style><clipPath id="a"><rect class="a" width="557" height="898.166"/></clipPath><clipPath id="b"><path class="b" d="M-.2,145s6.776-1.137,18.938-2.928c43.276-6.37,160.812-13.119,273.158-13.119C435.563,128.954,574.465,145,574.465,145V295.338H-.14l-.05-126.5Z" transform="translate(0.2 -128.955)"/></clipPath><linearGradient id="c" x1="0.5" y1="-0.851" x2="0.5" y2="1.536" gradientUnits="objectBoundingBox"><stop offset="0" stop-color="#fff"/><stop offset="1"/></linearGradient><linearGradient id="d" x1="0.5" x2="0.5" y2="1" gradientUnits="objectBoundingBox"><stop offset="0" stop-color="#008ba4"/><stop offset="1" stop-color="#035d71"/></linearGradient></defs><g transform="translate(-741 -54)"><g class="c" transform="translate(741 54)"><g transform="translate(-741 -43)"><g transform="translate(-10 -2)"><path class="d" d="M30,0H526a30,30,0,0,1,30,30V857a42,42,0,0,1-42,42H44A44,44,0,0,1,0,855V30A30,30,0,0,1,30,0Z" transform="translate(751 43)"/><g class="e" transform="translate(741 791.782)"><path class="f" d="M43,0H513a43,43,0,0,1,43,43V884a43,43,0,0,1-43,43H43A43,43,0,0,1,0,884V43A43,43,0,0,1,43,0Z" transform="translate(9.575 -776.782)"/></g><g transform="translate(946.956 61.797)"><g transform="translate(-73.171 0)"><g transform="translate(36.972 261.575)"><g class="g" transform="translate(35.322)"><rect class="h" width="175.048" height="353.837" rx="32.881"/><path class="i" d="M25.593,0H298.4A25.592,25.592,0,0,1,324,25.592v99.229A25.591,25.591,0,0,1,298.4,150.413H25.593A25.593,25.593,0,0,1,0,124.82V25.593A25.593,25.593,0,0,1,25.593,0Z" transform="translate(162.89 14.921) rotate(90)"/></g><g class="g" transform="translate(0 33.767)"><rect class="j" width="14.936" height="14.936" rx="2.036" transform="translate(146.194 145.028)"/><rect class="j" width="14.936" height="14.936" rx="2.036" transform="translate(139.829 145.028)"/><g transform="translate(62.676 32.63)"><g transform="translate(4.301 4.301)"><path class="k" d="M249.117,171.475V138.529l-28.533-16.473-28.532,16.473v32.947l28.532,16.473Z" transform="translate(-192.052 -122.055)"/><path class="k" d="M297.2,171.475V138.529l-28.533-16.473-28.533,16.473v32.947l28.533,16.473Z" transform="translate(-183.07 -122.055)"/><path class="k" d="M273.159,213.117V180.17L244.626,163.7,216.094,180.17v32.947l28.533,16.473Z" transform="translate(-187.561 -114.277)"/></g><path class="j" d="M221.072,122.732a4.3,4.3,0,1,0-4.3,4.3A4.3,4.3,0,0,0,221.072,122.732Z" transform="translate(-183.937 -118.431)"/><circle class="j" cx="4.302" cy="4.302" r="4.302" transform="translate(28.532 65.893)"/><path class="j" d="M269.155,178.254a4.3,4.3,0,1,0-4.3,4.3A4.3,4.3,0,0,0,269.155,178.254Z" transform="translate(-174.955 -108.059)"/><path class="j" d="M269.155,205.862a4.3,4.3,0,1,0-4.3,4.3A4.3,4.3,0,0,0,269.155,205.862Z" transform="translate(-174.955 -102.902)"/><circle class="j" cx="4.302" cy="4.302" r="4.302" transform="translate(28.532 98.659)"/><path class="j" d="M245.114,136.6a4.3,4.3,0,1,0-4.3,4.3A4.3,4.3,0,0,0,245.114,136.6Z" transform="translate(-179.446 -115.841)"/><path class="j" d="M269.168,122.732a4.3,4.3,0,1,0-4.3,4.3A4.3,4.3,0,0,0,269.168,122.732Z" transform="translate(-174.952 -118.431)"/><path class="j" d="M293.2,136.6a4.3,4.3,0,1,0-4.3,4.3A4.3,4.3,0,0,0,293.2,136.6Z" transform="translate(-170.464 -115.841)"/><path class="j" d="M293.2,164.374a4.3,4.3,0,1,0-4.3,4.3A4.3,4.3,0,0,0,293.2,164.374Z" transform="translate(-170.464 -110.652)"/><path class="j" d="M245.114,164.374a4.3,4.3,0,1,0-4.3,4.3A4.3,4.3,0,0,0,245.114,164.374Z" transform="translate(-179.446 -110.652)"/><path class="j" d="M245.114,219.895a4.3,4.3,0,1,0-4.3,4.3A4.3,4.3,0,0,0,245.114,219.895Z" transform="translate(-179.446 -100.28)"/><path class="j" d="M197.031,164.374a4.3,4.3,0,1,0-4.3,4.3A4.3,4.3,0,0,0,197.031,164.374Z" transform="translate(-188.428 -110.652)"/><path class="j" d="M197.031,136.6a4.3,4.3,0,1,0-4.3,4.3A4.3,4.3,0,0,0,197.031,136.6Z" transform="translate(-188.428 -115.841)"/></g><g transform="translate(70.482 10.623)"><rect class="j" width="39.048" height="39.048" rx="5.095"/><line class="k" x2="56.325" transform="translate(50.796 14.859)"/><line class="k" x2="48.723" transform="translate(50.796 25.225)"/><line class="k" x2="25.571" transform="translate(50.796 35.592)"/><g transform="translate(0 64.797)"><rect class="j" width="39.048" height="39.048" rx="5.095"/><line class="k" x2="56.325" transform="translate(50.796 14.859)"/><line class="k" x2="48.723" transform="translate(50.796 25.225)"/><line class="k" x2="25.571" transform="translate(50.796 35.592)"/></g></g><rect class="l" width="162.211" height="189.176" rx="6.988" transform="translate(42.937)"/><rect class="l" width="162.211" height="85.808" rx="6.988" transform="translate(42.937 200.908)"/><rect class="l" width="151.037" height="125.091" rx="6.988" transform="translate(48.524)"/><rect class="l" width="248.085" height="151.061" rx="6.988" transform="translate(0 135.655)"/><rect class="l" width="86.221" height="125.091" rx="6.988" transform="translate(70.83)"/><rect class="m" width="59.622" height="288.117" rx="8.819" transform="translate(117.633)"/><g transform="translate(8.546 168.181)"><path class="n" d="M556.987,275.65c-19.252,0-19.252,28.915-38.5,28.915s-19.251-42.619-38.5-42.619-19.249,9.761-38.5,9.761-19.249-39.061-38.5-39.061-19.249,58.6-38.5,58.6-19.249,27.411-38.5,27.411H556.987Z" transform="translate(-325.993 -232.646)"/><path class="n" d="M556.987,292.574c-19.252,0-19.252-10.245-38.5-10.245s-19.251-43.773-38.5-43.773-19.249,18.016-38.5,18.016-19.249,28.577-38.5,28.577-19.249-18.026-38.5-18.026-19.249,50.429-38.5,50.429H556.987Z" transform="translate(-325.993 -231.542)"/></g><g transform="translate(107.303 10.252)"><g transform="translate(1.77 1.52)"><rect class="j" width="19.496" height="4.939"/><rect class="j" width="19.496" height="4.939" transform="translate(0 13.336)"/><rect class="j" width="19.496" height="4.939" transform="translate(0 26.672)"/><rect class="j" width="19.496" height="4.939" transform="translate(0 40.008)"/><rect class="j" width="19.496" height="4.939" transform="translate(0 53.344)"/><rect class="j" width="19.496" height="4.939" transform="translate(0 66.68)"/></g><rect class="j" width="23.037" height="23.037" rx="3.141" transform="translate(0 81.551)"/><rect class="j" width="31.044" height="23.037" rx="3.646" transform="translate(29.919)"/><g transform="translate(52.313 37.781)"><rect class="j" width="8.649" height="8.649" rx="1.262"/><rect class="j" width="8.649" height="8.649" rx="1.262" transform="translate(0 19.386)"/><rect class="j" width="8.649" height="8.649" rx="1.262" transform="translate(0 38.772)"/><rect class="j" width="8.649" height="8.649" rx="1.262" transform="translate(0 58.158)"/></g></g><g transform="translate(148.016 108.249)"><rect class="j" width="19.496" height="4.939"/><rect class="j" width="19.496" height="4.939" transform="translate(0 13.336)"/><rect class="j" width="19.496" height="4.939" transform="translate(0 26.672)"/><rect class="j" width="19.496" height="4.939" transform="translate(0 40.008)"/><rect class="j" width="19.496" height="4.939" transform="translate(0 53.344)"/><rect class="j" width="19.496" height="4.939" transform="translate(0 66.68)"/></g><g transform="translate(95.049 147.943)"><circle class="j" cx="2.655" cy="2.655" r="2.655" transform="translate(0)"/><path class="j" d="M343.017,218.249a2.655,2.655,0,1,1-2.655-2.655A2.656,2.656,0,0,1,343.017,218.249Z" transform="translate(-323.805 -215.594)"/><path class="j" d="M354.73,218.249a2.655,2.655,0,1,1-2.655-2.655A2.655,2.655,0,0,1,354.73,218.249Z" transform="translate(-321.617 -215.594)"/><path class="j" d="M366.444,218.249a2.655,2.655,0,1,1-2.656-2.655A2.656,2.656,0,0,1,366.444,218.249Z" transform="translate(-319.429 -215.594)"/></g><g transform="translate(99.613 138.43)"><path class="j" d="M290.434,211.691a2.057,2.057,0,1,1,2.057-2.057A2.057,2.057,0,0,1,290.434,211.691Z" transform="translate(-288.377 -207.578)"/><path class="j" d="M290.434,220.763a2.057,2.057,0,1,1,2.057-2.057A2.057,2.057,0,0,1,290.434,220.763Z" transform="translate(-288.377 -205.883)"/><path class="j" d="M290.434,229.835a2.057,2.057,0,1,1,2.057-2.057A2.057,2.057,0,0,1,290.434,229.835Z" transform="translate(-288.377 -204.189)"/><path class="j" d="M290.434,238.907a2.057,2.057,0,1,1,2.057-2.057A2.057,2.057,0,0,1,290.434,238.907Z" transform="translate(-288.377 -202.494)"/></g><g transform="translate(91.622 12.914)"><g transform="translate(21.084)"><line class="l" y2="2.655" transform="translate(1.328)"/><line class="l" x1="2.655" transform="translate(0 1.328)"/></g><g transform="translate(14.056)"><line class="l" y2="2.655" transform="translate(1.328)"/><line class="l" x1="2.655" transform="translate(0 1.328)"/></g><g transform="translate(7.028)"><line class="l" y2="2.655" transform="translate(1.328)"/><line class="l" x1="2.655" transform="translate(0 1.328)"/></g><line class="l" y2="2.655" transform="translate(1.328)"/><line class="l" x1="2.655" transform="translate(0 1.328)"/></g></g></g><g transform="translate(48.428 0)"><path class="o" d="M253.271,92.725H42.2L89.672,40.469H205.8Z" transform="translate(-42.2 142.566)"/><g transform="translate(45.302)"><path class="p" d="M185.747,43.853H84.711a4.337,4.337,0,0,1-4.185-5.478l3.5-12.826a4.339,4.339,0,0,1,4.185-3.2h94.04a4.338,4.338,0,0,1,4.185,3.2l3.5,12.826A4.337,4.337,0,0,1,185.747,43.853Z" transform="translate(-80.371 139.182)"/><g transform="translate(31.89)"><line class="q" y2="182.738" transform="translate(0 -17.295)"/><line class="q" y2="182.738" transform="translate(67.437 -17.295)"/></g><path class="r" d="M194.805,43.853H93.77a4.338,4.338,0,0,1-4.186-5.478l3.5-12.826a4.338,4.338,0,0,1,4.185-3.2h94.04a4.339,4.339,0,0,1,4.185,3.2l3.5,12.826A4.337,4.337,0,0,1,194.805,43.853Z" transform="translate(-78.679 139.182)"/></g></g><g transform="translate(7.962 321.987)"><g transform="translate(12.44 160.341)"><g transform="translate(5.972 92.807)"><path class="s" d="M172.937,326.69s-4.324,47.564,0,85.518,3.684,64.859,1.442,74.148,13.092,7.078,24.461,7.238,12.364-3.386,4.039-5.7c-5-1.393-9.829-2.125-12.483-4.264-1.5-1.2-2.315-2.975-2.085-5.919.641-8.168,3.684-53.329,5.125-61.176s3.2-27.224,4.165-36.834,1.332-53.008,1.332-53.008Z" transform="translate(-171.016 -326.69)"/><path class="t" d="M174.185,460.121a42.479,42.479,0,0,1,9.458,1.3c3.613.876,7.768,3.3,18.361,1.427,3.729,1.031,11.027,2.533,11.027,4.543s-14.03,1.986-20.6,1.893-17.193.542-18.321-1.735C172.831,464.96,174.185,460.121,174.185,460.121Z" transform="translate(-170.54 -301.764)"/></g><g transform="translate(49.485 92.807)"><path class="s" d="M209.5,326.69s-4.938,38.87,1.457,72.063c6.638,34.445,9.583,63.66,10.3,76.151a44.778,44.778,0,0,1-.66,10.141c-1.093,6.208,1.678,7.438,6.355,7.438,6.726,0,24.383-.159,24.383-.159s-.958-3.956-3.079-4.543c-1.878-.52-8.293-2.333-11.608-4.327-4.345-2.612-4.564-12.482-4.325-31.219s1.751-79.978.464-96.96a144.84,144.84,0,0,1,.72-28.585Z" transform="translate(-207.68 -326.69)"/><path class="t" d="M218.531,460.121a42.479,42.479,0,0,1,9.458,1.3c3.613.876,7.768,3.3,18.361,1.427,3.729,1.031,11.027,2.533,11.027,4.543s-14.03,1.986-20.6,1.893-17.193.542-18.321-1.735C217.177,464.96,218.531,460.121,218.531,460.121Z" transform="translate(-205.77 -301.764)"/></g><path class="u" d="M174.41,248.491s-3.122,89.959-6.345,128.824c-2.712,32.714.872,81.868,6.345,88.2,4.081,4.721,15.15,4.85,34.815,4.434,18.514-.39,34.835-3.834,38.677-8.915,3.126-4.135,3.282-62.423,1.829-118.027-1.275-48.832-1.829-94.513-1.829-94.513Z" transform="translate(-167.14 -248.491)"/></g><g transform="translate(7.936)"><g transform="translate(8.447)"><g transform="translate(0 6.067)"><circle class="v" cx="5.637" cy="5.637" r="5.637" transform="translate(0 38.794)"/><circle class="v" cx="5.637" cy="5.637" r="5.637" transform="translate(7.714 23.981)"/><path class="v" d="M230.165,168.336a7.172,7.172,0,1,1-7.172-7.172A7.172,7.172,0,0,1,230.165,168.336Z" transform="translate(-160.616 -110.53)"/><circle class="v" cx="5.637" cy="5.637" r="5.637" transform="translate(20.539 12.706)"/><circle class="v" cx="5.637" cy="5.637" r="5.637" transform="translate(60.428 38.794)"/><circle class="v" cx="4.87" cy="4.87" r="4.87" transform="translate(24.966)"/><circle class="v" cx="5.637" cy="5.637" r="5.637" transform="translate(22.319 5.981)"/><circle class="v" cx="4.031" cy="4.031" r="4.031" transform="translate(1.606 35.256)"/><circle class="v" cx="4.031" cy="4.031" r="4.031" transform="translate(62.034 48.18)"/><circle class="v" cx="2.665" cy="2.665" r="2.665" transform="translate(4.433 31.195)"/><circle class="v" cx="2.665" cy="2.665" r="2.665" transform="translate(62.685 34.99)"/><circle class="v" cx="2.665" cy="2.665" r="2.665" transform="translate(14.709 23.981)"/><circle class="v" cx="2.665" cy="2.665" r="2.665" transform="translate(17.874 20.665)"/><circle class="v" cx="2.746" cy="2.746" r="2.746" transform="translate(1.606 48.311)"/><circle class="v" cx="2.746" cy="2.746" r="2.746" transform="translate(2.892 52.211)"/><circle class="v" cx="4.139" cy="4.139" r="4.139" transform="translate(6.923 51.695)"/></g><path class="v" d="M229.517,118.563a24.053,24.053,0,0,0-10.864-4.827c-5.4-.935-13.213-.05-17.682,3.441-10.989,8.583-5.693,23.774-17.015,28.987-16.285,7.5-18.539,29.612-.428,34.212,10.195,2.588,15.7-4.611,29.287,1.206,7.215,3.09,18.731,2.3,23.918-7.33,4.151-7.709-5.675-18.272.533-28.088C241.882,138.859,243.293,118.892,229.517,118.563Z" transform="translate(-169.022 -113.388)"/></g><g transform="translate(0 38.998)"><path class="w" d="M214.532,161.164s-32.786,11.109-40.03,14.924l-3.695,101.407,72.936.942-2.99-102.144Z" transform="translate(-160.578 -143.46)"/><g transform="translate(39.118)"><path class="s" d="M197.335,146.247s.5,14.461-.84,19.505l-1.346,5.044s4.957,12.928,17.687,18.552c5.372-5.433,7.137-11.081,5.494-17.944l-4.094-18.028Z" transform="translate(-195.149 -146.247)"/><path class="x" d="M213.955,152.825l3.357,14.964s-15.148,3.908-20.392-14.42l.234-3.937Z" transform="translate(-194.818 -145.652)"/></g><g transform="translate(0 17.704)"><path class="y" d="M212.261,385.874h31.274c-.036-24.187-3.786-118.368-3.958-126-.617-27.33,2.91-78.582-5.3-84.492-9.567-6.882-17.286-9.684-19.826-10.478l4.706,10.288-.4,37.651-5.789,39.941Z" transform="translate(-152.834 -160.466)"/><path class="y" d="M201.982,164.807l3.871,60.537,5.953,26.69-5.953,133.857H162.188s9.1-114.441,9.935-129.92,1-78.308,1.3-79.854S175.572,170.231,201.982,164.807Z" transform="translate(-162.188 -160.483)"/><g transform="translate(30.091)"><path class="z" d="M198.271,161.164s1.52,48.755,8.8,91.55c0,0-15.966-48.089-16.586-49.948s4.987-11.421,4.987-11.421l-7.928-5.113S188.209,169.412,198.271,161.164Z" transform="translate(-187.543 -161.164)"/><path class="z" d="M213.874,163.183c1.964,8.984,8.673,26.244-1.022,89.918,0,0,11.156-47.5,12.083-56.847L220.547,188l4.173-4.1S217.179,164.106,213.874,163.183Z" transform="translate(-182.815 -160.787)"/></g></g></g><path class="aa" d="M169.963,303.25h28.024l-3.121,33.211L179.62,341.1l-12.856-3.214Z" transform="translate(-161.333 -77.92)"/><path class="aa" d="M225.967,303.25H239.5l1.157,37.55-13.666-2.911Z" transform="translate(-150.274 -77.92)"/></g><g transform="translate(43.516 1.866)"><g transform="translate(0 6.395)"><path class="s" d="M232.731,132.348s-1.362,34.1-15.087,38.139S197.327,157.9,197.809,152.71a7.175,7.175,0,0,1-5.4-4.805c-1.183-4.083,2.216-7.935,5.635-5.164,0,0,2.052-21.773,18.9-22.371S232.731,132.348,232.731,132.348Z" transform="translate(-192.168 -120.349)"/></g><g transform="translate(14.368 29.09)"><path class="v" d="M219.321,146.068a1.146,1.146,0,1,0,1.279-.995A1.146,1.146,0,0,0,219.321,146.068Z" transform="translate(-201.465 -138.426)"/><path class="v" d="M206.692,143.982a1.146,1.146,0,1,0,1.279-.995A1.146,1.146,0,0,0,206.692,143.982Z" transform="translate(-203.824 -138.816)"/><path class="ab" d="M224.412,142.767a7.114,7.114,0,0,0-6.4-1.55" transform="translate(-201.707 -139.185)"/><path class="ab" d="M210.836,140.577a7.116,7.116,0,0,0-6.562-.545" transform="translate(-204.274 -139.471)"/><path class="ac" d="M214.978,143.944a21.03,21.03,0,0,0,.52,6.988c.922,2.85-2.535,2.591-2.535,2.591" transform="translate(-202.651 -138.636)"/><path class="ac" d="M213.9,156.364s-4.618.468-6.646-2.521" transform="translate(-203.718 -136.786)"/></g><g transform="translate(5.641 28.787)"><path class="ad" d="M227.7,150.344s-3.716.849-6.447-1.371c-2.9-2.358-5.6-.462-8.08-.534s-7.81-2.594-10.745-.713a9.407,9.407,0,0,0-3.893,8.977c.129.982,4.395,9.985,14.312,10.266C223.64,167.275,227.7,150.344,227.7,150.344Z" transform="translate(-196.633 -137.756)"/><line class="ae" x1="5.899" y1="11.36" transform="translate(0.234)"/><line class="ae" x1="2.237" y1="8.653" transform="translate(0 9.969)"/></g><g transform="translate(1.811)"><path class="v" d="M225.244,118.269s11.917,20.062-12.432,19.446c-10.017-.254-15.055,6.033-15.055,6.033s-8.6-11.132-.786-21.618C206.983,108.689,225.244,118.269,225.244,118.269Z" transform="translate(-193.693 -114.96)"/><path class="v" d="M216.348,123.974s11.37,6.9,10.787,18.918c0,0,4.123-12.066,1.345-18.145S220.61,121.664,216.348,123.974Z" transform="translate(-189.461 -113.801)"/></g></g><g transform="translate(0 69.485)"><g transform="translate(68.236 24.565)"><path class="af" d="M216.529,197.411h0a1.049,1.049,0,0,1-1.455-.292l-1.9-2.853a1.05,1.05,0,0,1,.292-1.455h0a1.049,1.049,0,0,1,1.455.292l1.9,2.853A1.05,1.05,0,0,1,216.529,197.411Z" transform="translate(-212.997 -192.634)"/><rect class="ag" width="2.098" height="25.488" transform="translate(1.496 3.611) rotate(-33.664)"/><path class="af" d="M227.921,212.577l.694,2.283.374,1.227-.988-.818-1.839-1.52Z" transform="translate(-210.538 -188.909)"/><path class="ag" d="M228.326,214.5l.374,1.227-.988-.818Z" transform="translate(-210.248 -188.55)"/></g><path class="s" d="M206.221,222.189l14.176-2.707s5.214-6,7.211-7.835,5.349-2.258,9.677-1.759S234.664,222,233.664,224.12s-10.293,5.629-12.664,6.127-15.743,3.818-15.743,3.818Z" transform="translate(-146.207 -164.882)"/><path class="z" d="M166.079,185.451c-3.422,7.718-6.386,25.038-9.245,41.751-3.817,22.3.529,27.861,13.54,26.213,14.206-1.8,52.49-12.486,52.49-12.486s.873-10.224-1.588-14.37l-47.355,6.931s9.312-29.849,11.549-41.188c2.026-10.272-2.668-17.942-6.523-20.044C175.718,170.5,170.226,176.1,166.079,185.451Z" transform="translate(-155.502 -171.936)"/><g transform="translate(71.817 22.311)"><path class="ah" d="M253.517,242.174,218.829,243a2.746,2.746,0,0,1-2.41-4.172l27.327-44.915a2.744,2.744,0,0,1,2.28-1.317l34.688-.821a2.745,2.745,0,0,1,2.409,4.172L255.8,240.856A2.743,2.743,0,0,1,253.517,242.174Z" transform="translate(-216.014 -190.542)"/><path class="ai" d="M264.275,194.832l-14.636.347a.2.2,0,0,1-.173-.3l1.965-3.232a.2.2,0,0,1,.165-.095l14.636-.347a.2.2,0,0,1,.173.3l-1.967,3.232A.2.2,0,0,1,264.275,194.832Z" transform="translate(-209.771 -190.647)"/><path class="ai" d="M260.984,192.529l-7.24.171a.1.1,0,0,1-.087-.148l.973-1.6a.094.094,0,0,1,.081-.046l7.24-.172a.1.1,0,0,1,.087.148l-.973,1.6A.1.1,0,0,1,260.984,192.529Z" transform="translate(-208.985 -190.735)"/></g><path class="s" d="M267.3,215.516c-.151-3.465-2.518-12.841-2.752-13.6s-1.705.309-1.62,2.465c0,0-1.844.19-1.682,2.772,0,0-1.594.084-1.3,3.219,0,0-1.564-.091-1.277,3.519s.995,5.5.244,6.944-2.088,3.909-2.088,3.909S267.566,221.567,267.3,215.516Z" transform="translate(-136.573 -166.381)"/></g></g><g transform="translate(131.627 299.849)"><g transform="translate(0 41.741)"><path class="aj" d="M486.689,143.98s-2.689-5.334-4.084-8.2-1.139-4.782-1.476-5.265a1.572,1.572,0,0,0-2.808.877c-.465,1.911,1.976,8.295,2.339,9.249a15.729,15.729,0,0,1-2.14-4.44c-.535-1.715-1.354-3.64-1.354-3.64a1.377,1.377,0,0,0-2.669.039c-.549,1.459,1.4,7.846,3.553,10.762a17.012,17.012,0,0,1-2.877-4.938c-.78-2.345-1.48-4.67-2.1-4.638,0,0-1.406-.214-1.624,1.526s2.279,7.886,2.279,7.886c-.872-.166-2.617-5.789-3.178-6.116-.425-.248-1.151.1-1.317,1.444a19.3,19.3,0,0,0,1.265,6.1c1.633,4.071,2.517,5.852,4.937,8.169,3.9,3.732,4.847,14.71,4.847,14.71l8.925-3.254s-3.368-8.1-1.826-11.416A14.06,14.06,0,0,0,486.689,143.98Z" transform="translate(-444.853 -129.905)"/><g transform="translate(0 0.28)"><path class="ak" d="M500.542,137.511l-2.181-6.62a1.09,1.09,0,1,0-2.071.682l.148.449-1.4.477L479,137.785a6.7,6.7,0,0,1-2.95.282l-23.463-3.006a3.454,3.454,0,0,0-3.718,4.506l6.805,20.648a3.452,3.452,0,0,0,5.668,1.412l17.078-16.365a6.7,6.7,0,0,1,2.541-1.527L497,138.45l1.412-.446.062.19a1.09,1.09,0,1,0,2.071-.682Z" transform="translate(-448.687 -130.142)"/><path class="al" d="M461.7,142.948c-5.148-1.629-8.6-1.269-10.51-.741l5.1,15.481a2.316,2.316,0,0,0,2.2,1.588,2.254,2.254,0,0,0,1.586-.644l17.079-16.365c.088-.085.188-.16.28-.241C472.764,142.742,467.5,144.786,461.7,142.948Z" transform="translate(-448.22 -127.971)"/></g><path class="aj" d="M485.225,146.694s1.766-4.332,1.551-5.3a56.148,56.148,0,0,0-1.364-5.906c-.3-.375-1.159.7-1.374,1.557a9.075,9.075,0,0,0-.35,3.282c.161,1.127-2.28,2.946-1.314,5.415S485.225,146.694,485.225,146.694Z" transform="translate(-442.436 -128.876)"/><path class="z" d="M532.39,151.287c-6.156,2.094-13.331,12.348-25.652,52.523l-18.519-52.228-12.658,4.072s12.086,52.635,20.819,68.631,26.219-8.95,37.767-28.064S545.718,146.753,532.39,151.287Z" transform="translate(-443.667 -125.996)"/></g><g transform="translate(69.266 191.887)"><path class="am" d="M544.392,448.883c1.2-.361,3.174,18.889,1.53,21.907,0,0-7.554,1.231-10.059-.265,0,0-10.753,1.478-28.708,1,0,0-1.46-7.146,6.552-8.557,5.674-1,16.683-3.361,19.524-5.388s2.238-9.772,2.238-9.772Z" transform="translate(-507.05 -220.666)"/><path class="am" d="M593.5,448.883c1.2-.361,3.173,18.889,1.53,21.907,0,0-7.554,1.231-10.059-.265,0,0-10.752,1.478-28.709,1,0,0-1.459-7.146,6.553-8.557,5.674-1,16.683-3.361,19.524-5.388s2.238-9.772,2.238-9.772Z" transform="translate(-497.876 -220.666)"/><path class="an" d="M594.894,256.418s5.443,101.2,4.529,121.308,6.4,42.966,5.484,116.1H584.414s-6.714-72.22-14.593-99.644-16.564-90.5-16.564-90.5-2.5,63.3-6.152,81.131c0,0,2.339,15.928,1.882,54.781s-.457,53.022-.457,53.022L524,493.826s-1.371-66.277-5.942-92.331-2.243-145.076-2.243-145.076Z" transform="translate(-505.523 -256.418)"/></g><path class="w" d="M569.451,144.285l16.535,9.293v125.5H525.738V153.13l15.341-7.917Z" transform="translate(-434.293 -85.478)"/><path class="v" d="M568.81,126.829c1.574-4.916,2.035-10.015,2.49-15.081.223-2.491.32-5.293-1.769-7.129-2.554-2.244-7.4-1.789-10.163.29s-3.821,5.249-4.188,8.289a25.146,25.146,0,0,0,1.648,12.352c.945,2.365,2.247,4.64,2.954,7.059a11.078,11.078,0,0,1,.483,2.953c.006.544-.566,2.186-.206,2.605,1.321,1.538,2.86-.807,3.566-1.656A28.7,28.7,0,0,0,568.81,126.829Z" transform="translate(-428.827 -93.166)"/><g transform="translate(110.263 39.203)"><path class="ao" d="M564.188,127.767v20.6l-13.216,5.883-8.945-2.178-.432-23.874Z" transform="translate(-541.594 -127.767)"/><path class="ap" d="M541.927,146.6a21.642,21.642,0,0,0,22.26-9.591v-9.245l-22.593.431Z" transform="translate(-541.594 -127.767)"/></g><g transform="translate(74.258 55.919)"><g transform="translate(32.427)"><g transform="translate(2.611 8.915)"><path class="aq" d="M549.772,154.189l2.163,73.694-5.608,7.709-5.547-7.709,4.757-73.694Z" transform="translate(-540.78 -148.463)"/><path class="aq" d="M547.457,149.364a21.688,21.688,0,0,1,3.289,3.595c.728,1.311-2.006,4.632-3.97,4.632s-3.42-3.653-3.476-4.885S547.457,149.364,547.457,149.364Z" transform="translate(-540.31 -149.364)"/></g><path class="ar" d="M563.214,141.852s-7.618,7.474-16.411,8.915c0,0,4.968,14.2,11.481,9.052,5.195-4.106,7.231-15.08,7.231-15.08Z" transform="translate(-537.044 -141.852)"/><path class="ar" d="M548.339,150.6s-5.125-1.327-6.182-7.836l-3.477,2.8s-.971,10.758,3.156,13.615C544.339,160.914,544.011,157.791,548.339,150.6Z" transform="translate(-538.58 -141.682)"/></g><g transform="translate(0 2.887)"><path class="as" d="M539.928,384.377H511.257s4.968-103.688,4.968-157.168,1.99-69.6,7.7-73.709,17.992-7.523,17.992-7.523l1.862-.853Z" transform="translate(-511.257 -144.128)"/><path class="as" d="M557.414,384.712C553.52,206.035,563.7,144.285,563.7,144.285a30.124,30.124,0,0,0,4.1,1.6c5.957,1.87,20.93,6.574,24.962,8.825,12.777,7.134,1,138.577,9.223,230.632Z" transform="translate(-502.8 -144.285)"/><path class="z" d="M563.37,144.285s-4.356,26.128-5.084,85.464c2.783-11.662,12.434-43.546,12.434-43.546l-3.482-4.9,4.554-2.41s-.305-18.9-4.324-33.006Z" transform="translate(-502.472 -144.285)"/><path class="z" d="M540.248,145.124l-1.025,84.785-7.969-44.13,3.482-4.9-4.553-2.41s3.183-21.292,8.2-32.492Z" transform="translate(-507.721 -144.128)"/></g><path class="aa" d="M593.853,291H567.179V324.21l15.247,4.642,12.856-3.214Z" transform="translate(-500.81 -113.99)"/><path class="aa" d="M527.822,291.023l-13.947-.154-1.435,37.6,14.363-2.811Z" transform="translate(-511.036 -114.015)"/></g><g transform="translate(57.834 67.326)"><g transform="translate(0 22.847)"><path class="as" d="M524.141,197.227a13.363,13.363,0,1,1-18.251-12.438,2.527,2.527,0,0,0,1.606-2.351v-9.586h.115a1.069,1.069,0,0,1-1.068-1.127,1.11,1.11,0,0,1,1.129-1.011h6.215a1.109,1.109,0,0,1,1.129,1.011,1.068,1.068,0,0,1-1.068,1.127h.115v9.586a2.52,2.52,0,0,0,1.6,2.346,13.346,13.346,0,0,1,8.483,12.442Z" transform="translate(-497.417 -170.714)"/><path class="al" d="M508.508,193.916a17.96,17.96,0,0,0-10.322-1.39,12.8,12.8,0,0,0-.011,1.6,12.585,12.585,0,0,0,11.97,11.684c.166.006.33.009.494.009a12.505,12.505,0,0,0,12.491-12.491,12.746,12.746,0,0,0-.121-1.745C518.251,192.24,514.181,196.475,508.508,193.916Z" transform="translate(-497.279 -166.816)"/></g><path class="aj" d="M529.523,194.579s-7.777-1.8-8.818-4.788c-1.292-3.7-2.81-4.629-3.987-6.219a7.374,7.374,0,0,1-1.192-1.772c-1.075-2.877-1.759-3.184-1.759-3.184s-1.132.028-1.17,1.685a9.529,9.529,0,0,0,1.583,4.447,50.111,50.111,0,0,1-7.113-1.967c-2.558-1.033-3.705-2.091-4.211-2.161a1.361,1.361,0,0,0-1.1,2.3c.451.681,2.133,1.64,3.849,2.49,1.856.919,3.766,1.7,4.192,1.87a9.249,9.249,0,0,1-3.189-.757,38.446,38.446,0,0,1-3.963-1.9c-.654-.488-2.084.655-1.3,1.657a19.582,19.582,0,0,0,2.8,2.058,27.89,27.89,0,0,0,4.638,2.159,11.368,11.368,0,0,1-4.382-1.319c-1.949-.885-1.981-1.453-2.485-1.606-.466-.141-1.555.765-1.1,1.845a6.111,6.111,0,0,0,2.9,2.352c1.723.813,3.528,1.525,3.528,1.525a18.555,18.555,0,0,1-3.549-.845,28.967,28.967,0,0,0-2.9-1.246c-.407.125-.731.862.021,1.756a16.107,16.107,0,0,0,4.721,2.9,27.283,27.283,0,0,0,9.4,1.532c3.45-.209,12.254,5.362,12.254,5.362Z" transform="translate(-496.866 -146.391)"/><path class="z" d="M595.1,151.494c-12.4-1.3-13.2,39.256-21.558,59.331,0,0-41.415-11.925-51.95-16.209l-4.378,14.125s47.433,24.3,61.262,26.431c11.778,1.812,20.837-32.007,24.461-47.342,1.969-8.325,4.072-18.752,2.605-25.828C603.805,153.635,597.548,151.751,595.1,151.494Z" transform="translate(-493.72 -151.463)"/></g><g transform="translate(91.444)"><path class="v" d="M529.491,115.055a43.6,43.6,0,0,0,1.953,6.582c.521,1.651.973,3.446,2.268,4.6a5.135,5.135,0,0,0,5.719.438,8.146,8.146,0,0,0,3.645-4.719,20.682,20.682,0,0,0,.794-6.035c.042-1.981-.019-4.1-1.139-5.733a6.637,6.637,0,0,0-5.188-2.592c-1.767-.088-4.848.172-6.412,1.162C529.264,109.934,529.206,113.14,529.491,115.055Z" transform="translate(-525.06 -92.335)"/><path class="at" d="M532.1,115.153s.144,16.068,1.578,22.812,4.878,14.06,14.2,13.63,17.361-9.47,18.077-19.226c0,0,5.214-2.291,5.423-6.053.288-5.189-2.266-6.716-5.279-4.85,0,0,2.87-14.2-8.178-16.93S532.388,101.954,532.1,115.153Z" transform="translate(-524.549 -93.166)"/><path class="v" d="M529.753,115.617a5.247,5.247,0,0,1-3.784-6.58c.59-1.759,2.09-3.087,2.6-4.872.442-1.555.071-3.252.456-4.822.665-2.708,3.468-4.371,6.165-4.585,1.842-.146,3.587.406,5.369.534a16.937,16.937,0,0,1,5.586,1.151,35.716,35.716,0,0,0,6.421,2.439c3.17.634,6.52-.107,9.633.781,3.762,1.073,6.637,4.48,7.838,8.315.961,3.068,1.588,8.584-.11,11.51-.276.476-4.768,5.688-4.68,5.729-2.727-1.206-3.419-4.9-5.592-6.984-1.519-1.457-3.26-1.793-4.547-3.507a6.731,6.731,0,0,0-4.35-3.06c-1.943-.286-6.405.9-6.525,3.461a4.711,4.711,0,0,0-3.462-3.023c-2.089-.4-3.268.894-4.892,1.866C534.145,115.006,531.778,115.967,529.753,115.617Z" transform="translate(-525.738 -94.734)"/><g transform="translate(8.465 26.964)"><path class="v" d="M546.131,123.258a1.409,1.409,0,1,0,1.409-1.408A1.409,1.409,0,0,0,546.131,123.258Z" transform="translate(-530.393 -116.633)"/><path class="v" d="M534.017,123.258a1.409,1.409,0,1,0,1.409-1.408A1.409,1.409,0,0,0,534.017,123.258Z" transform="translate(-532.656 -116.633)"/><path class="au" d="M551.14,118.627a5.4,5.4,0,0,0-5.221-.857" transform="translate(-530.432 -117.454)"/><path class="au" d="M538.16,118.5a5.4,5.4,0,0,0-5.29-.125" transform="translate(-532.87 -117.399)"/><path class="av" d="M541.114,121.394s.134,4.881-1.07,7.564,1.874,3.085,3.414,3.553" transform="translate(-531.581 -116.718)"/></g><g transform="translate(8.234 28.3)"><path class="ad" d="M532.676,127.023s.648,1.028,5.051-1.614,7.53-.881,10.3-.44,9.758-.45,12.618,2.251,2.593,10.006,2.153,11.034-8.209,11.094-19.218,9.039S532.676,127.023,532.676,127.023Z" transform="translate(-532.676 -117.57)"/><line class="aw" y1="8.613" x2="7.004" transform="translate(26.317)"/><line class="aw" y1="8.948" x2="3.57" transform="translate(29.819 11.307)"/></g></g></g><g transform="translate(0 460.19)"><g transform="translate(83.263 39.319)"><path class="ak" d="M335.063,289.263H317.535a2.623,2.623,0,0,1-2.319-2.573V269.162a2.461,2.461,0,0,1,2.461-2.461h17.528a2.461,2.461,0,0,1,2.461,2.461V286.69A2.66,2.66,0,0,1,335.063,289.263Z" transform="translate(-315.216 -262.269)"/><rect class="ax" width="18.709" height="4.431" rx="0.841" transform="translate(1.871)"/><g transform="translate(0.817 20.089)"><g transform="translate(7.021 1.822)"><path class="ay" d="M324.893,285.5l-2.582-1.9a1.2,1.2,0,1,1,1.424-1.937l2.583,1.9a1.2,1.2,0,0,1-1.424,1.937Z" transform="translate(-321.82 -281.429)"/><path class="ah" d="M324.574,285.264l-.558-.411a1.2,1.2,0,1,1,1.424-1.937l.558.411a1.2,1.2,0,0,1-1.424,1.937Z" transform="translate(-321.502 -281.194)"/></g><g transform="translate(17.113 0.569)"><path class="ah" d="M333.951,282.075l-1.332,2.916a1.2,1.2,0,0,1-2.186-1l1.332-2.915a1.2,1.2,0,0,1,2.219.079A1.189,1.189,0,0,1,333.951,282.075Z" transform="translate(-330.324 -280.373)"/><path class="az" d="M333.786,282.075l-.287.63a1.2,1.2,0,0,1-2.186-1l.287-.629a1.2,1.2,0,0,1,2.219.079A1.189,1.189,0,0,1,333.786,282.075Z" transform="translate(-330.159 -280.373)"/></g><g transform="translate(11.507 3.485)"><path class="ay" d="M330.007,285.234h-3.2a1.2,1.2,0,0,1,0-2.4h3.2a1.2,1.2,0,0,1,0,2.4Z" transform="translate(-325.6 -282.83)"/><path class="ah" d="M329.611,285.234h-.692a1.2,1.2,0,0,1,0-2.4h.692a1.2,1.2,0,0,1,0,2.4Z" transform="translate(-325.204 -282.83)"/></g><g transform="translate(4.703 3.485)"><path class="ah" d="M324.275,285.234h-3.206a1.2,1.2,0,0,1,0-2.4h3.206a1.2,1.2,0,0,1,0,2.4Z" transform="translate(-319.867 -282.83)"/><path class="az" d="M323.879,285.234h-.692a1.2,1.2,0,0,1,0-2.4h.692a1.2,1.2,0,0,1,0,2.4Z" transform="translate(-319.471 -282.83)"/></g><g transform="translate(0 1.252)"><path class="az" d="M317.944,281.288l2.3,2.234a1.2,1.2,0,1,1-1.675,1.723l-2.3-2.234a1.2,1.2,0,0,1,.82-2.063A1.187,1.187,0,0,1,317.944,281.288Z" transform="translate(-315.904 -280.949)"/><path class="ah" d="M317.944,281.288l.5.482a1.2,1.2,0,0,1-1.676,1.724l-.5-.483a1.2,1.2,0,0,1,.82-2.063A1.187,1.187,0,0,1,317.944,281.288Z" transform="translate(-315.904 -280.949)"/></g><g transform="translate(3.347)"><path class="ah" d="M319.462,281.227l2.956-1.239a1.2,1.2,0,0,1,.929,2.217l-2.956,1.239a1.2,1.2,0,0,1-1.576-1.563A1.188,1.188,0,0,1,319.462,281.227Z" transform="translate(-318.725 -279.894)"/><path class="az" d="M319.462,281.074l.638-.267a1.2,1.2,0,0,1,.929,2.216l-.639.268a1.2,1.2,0,0,1-1.576-1.563A1.188,1.188,0,0,1,319.462,281.074Z" transform="translate(-318.725 -279.741)"/></g><g transform="translate(8.764 0.361)"><path class="az" d="M324.823,280.244l3.08.884a1.2,1.2,0,0,1-.662,2.311l-3.081-.884a1.2,1.2,0,0,1-.824-1.487,1.2,1.2,0,0,1,1.487-.824Z" transform="translate(-323.289 -280.198)"/><path class="ah" d="M324.823,280.244l.665.191a1.2,1.2,0,1,1-.663,2.311l-.665-.191a1.2,1.2,0,0,1-.824-1.487,1.2,1.2,0,0,1,1.487-.824Z" transform="translate(-323.289 -280.198)"/></g><g transform="translate(13.283 0.501)"><path class="ay" d="M328.071,280.941l3.147-.6a1.2,1.2,0,1,1,.455,2.361l-3.147.6a1.2,1.2,0,0,1-1.408-.953,1.205,1.205,0,0,1,.953-1.408Z" transform="translate(-327.096 -280.315)"/><path class="ah" d="M328.071,280.867l.68-.13a1.2,1.2,0,1,1,.453,2.361l-.679.131a1.2,1.2,0,0,1-1.408-.953,1.205,1.205,0,0,1,.953-1.408Z" transform="translate(-327.096 -280.241)"/></g></g><g transform="translate(0 9.731)"><rect class="ah" width="22.451" height="8.81"/><path class="y" d="M328.357,274.5h-2.3v-2.3H324.3v2.3h-2.3v1.758h2.3v2.3h1.757v-2.3h2.3Z" transform="translate(-313.95 -270.974)"/></g></g><g transform="translate(193.417 27.18)"><g transform="translate(5.217)"><path class="ak" d="M419.963,252.739h-6.226a1.311,1.311,0,0,0-1.311,1.311h0a1.308,1.308,0,0,0,1.106,1.29v25.293a3.318,3.318,0,0,0,6.637,0V255.34a1.31,1.31,0,0,0,1.106-1.29h0A1.312,1.312,0,0,0,419.963,252.739Z" transform="translate(-412.426 -252.739)"/><path class="ak" d="M431.587,252.739h-6.227a1.312,1.312,0,0,0-1.311,1.311h0a1.31,1.31,0,0,0,1.106,1.29v25.293a3.318,3.318,0,0,0,6.637,0V255.34a1.308,1.308,0,0,0,1.106-1.29h0A1.311,1.311,0,0,0,431.587,252.739Z" transform="translate(-410.255 -252.739)"/><path class="ak" d="M443.208,252.739h-6.227a1.311,1.311,0,0,0-1.31,1.311h0a1.308,1.308,0,0,0,1.106,1.29v25.293a3.318,3.318,0,0,0,6.637,0V255.34a1.31,1.31,0,0,0,1.106-1.29h0A1.312,1.312,0,0,0,443.208,252.739Z" transform="translate(-408.084 -252.739)"/><path class="al" d="M414.132,266.2V278.12a2.4,2.4,0,1,0,4.8,0V266.2Z" transform="translate(-412.107 -250.225)"/><path class="al" d="M425.754,257.855v21.823a2.4,2.4,0,0,0,4.8,0V257.855Z" transform="translate(-409.936 -251.783)"/><path class="ak" d="M454.832,252.739H448.6a1.312,1.312,0,0,0-1.311,1.311h0a1.31,1.31,0,0,0,1.106,1.29v25.293a3.318,3.318,0,0,0,6.637,0V255.34a1.308,1.308,0,0,0,1.106-1.29h0A1.311,1.311,0,0,0,454.832,252.739Z" transform="translate(-405.913 -252.739)"/><path class="al" d="M449,269.315v8.222a2.4,2.4,0,0,0,4.8,0v-8.222Z" transform="translate(-405.594 -249.643)"/><path class="al" d="M437.377,265.077v13.252a2.4,2.4,0,1,0,4.8,0V265.077Z" transform="translate(-407.765 -250.434)"/></g><g transform="translate(0 6.964)"><g transform="translate(1.91 0.555)"><rect class="ba" width="29.479" height="1.715" transform="translate(0 29.479) rotate(-90)"/><rect class="ba" width="29.479" height="1.715" transform="translate(55.127 29.479) rotate(-90)"/></g><rect class="ah" width="60.662" height="2.826"/><rect class="ax" width="60.662" height="6.633" transform="translate(0 25.536)"/></g></g><g transform="translate(105.306 0)"><rect class="ak" width="11.461" height="5.797" transform="translate(17.348 53.796)"/><g transform="translate(0)"><rect class="ah" width="6.875" height="20.402" transform="translate(5.57 10.432) rotate(-45)"/><rect class="ak" width="9.219" height="7.397" transform="translate(0 6.519) rotate(-44.999)"/></g><path class="ah" d="M349.041,279.983h27.014v6.8H342.242A6.8,6.8,0,0,1,349.041,279.983Z" transform="translate(-332.209 -220.469)"/><rect class="ah" width="25.191" height="2.083" transform="translate(16.291 41.471)"/><g transform="translate(27.409 19.292)"><path class="ah" d="M379.479,269.34l-6.222-1.224,3.112.611-3.115-.585a12.167,12.167,0,0,0-2.137-8.564c-2.618-3.692-7.406-6.124-14.232-7.229l1.012-6.258c8.641,1.4,14.86,4.745,18.483,9.949A18.66,18.66,0,0,1,379.479,269.34Z" transform="translate(-356.883 -246.092)"/></g><path class="ax" d="M381.44,290.42H367.376L369,265.579a5.425,5.425,0,0,1,5.412-5.071h0a5.425,5.425,0,0,1,5.412,5.071Z" transform="translate(-327.514 -224.107)"/><circle class="ah" cx="5.852" cy="5.852" r="5.852" transform="translate(46.893 39.653)"/><circle class="ay" cx="3.576" cy="3.576" r="3.576" transform="translate(49.169 41.929)"/><rect class="ak" width="11.461" height="1.819" transform="translate(17.348 39.653)"/><g transform="translate(21.415 28.491)"><rect class="ak" width="2.382" height="4.511" transform="translate(0.472 0.869)"/><rect class="ah" width="3.053" height="4.511" transform="translate(0.137)"/><rect class="ay" width="3.327" height="0.701" transform="translate(0 3.81)"/></g><g transform="translate(16.038 27.234)"><g transform="translate(0 0)"><rect class="ak" width="2.382" height="4.511" transform="matrix(0.913, 0.408, -0.408, 0.913, 1.918, 0.93)"/><rect class="ah" width="3.053" height="4.511" transform="matrix(0.913, 0.408, -0.408, 0.913, 1.966, 0)"/><rect class="ay" width="3.327" height="0.701" transform="matrix(0.913, 0.408, -0.408, 0.913, 0.286, 3.422)"/></g><g transform="translate(9.327 0)"><rect class="ak" width="2.382" height="4.511" transform="matrix(-0.913, 0.408, -0.408, -0.913, 4.676, 5.048)"/><rect class="ah" width="3.053" height="4.511" transform="translate(4.628 4.118) rotate(155.916)"/><rect class="ay" width="3.327" height="0.701" transform="translate(4.753 4.062) rotate(155.913)"/></g></g><path class="ak" d="M362.613,249.516a8.1,8.1,0,1,0-8.1,8.1A8.1,8.1,0,0,0,362.613,249.516Z" transform="translate(-331.432 -227.674)"/><path class="ah" d="M360.561,249.237a6.33,6.33,0,1,0-6.33,6.33A6.33,6.33,0,0,0,360.561,249.237Z" transform="translate(-331.152 -227.395)"/></g><g transform="translate(264.284 18.076)"><g transform="translate(15.299)"><path class="ak" d="M509.139,288.329l-10.267-21.485a6.752,6.752,0,0,1-.66-2.911V247.262h.355a1.1,1.1,0,1,0,0-2.194H491.55a1.1,1.1,0,1,0,0,2.194h.355v16.671a6.752,6.752,0,0,1-.66,2.911l-10.267,21.485a3.477,3.477,0,0,0,3.137,4.975H506A3.476,3.476,0,0,0,509.139,288.329Z" transform="translate(-480.634 -245.068)"/><path class="al" d="M504.443,276.1a13.89,13.89,0,0,1-7.166-.536,23.466,23.466,0,0,0-11.193-1.078l-4.249,8.888a2.326,2.326,0,0,0,2.1,3.328h21.887a2.324,2.324,0,0,0,2.1-3.327Z" transform="translate(-480.453 -239.617)"/></g><g transform="translate(0 8.094)"><path class="ak" d="M494.647,278.579a13.452,13.452,0,1,1-18.373-12.522,2.542,2.542,0,0,0,1.616-2.365v-9.651h.116a1.076,1.076,0,0,1-1.075-1.135,1.117,1.117,0,0,1,1.136-1.018h6.257a1.119,1.119,0,0,1,1.137,1.018,1.076,1.076,0,0,1-1.076,1.135h.116v9.651a2.535,2.535,0,0,0,1.606,2.362,13.43,13.43,0,0,1,8.54,12.526Z" transform="translate(-467.743 -251.888)"/><path class="al" d="M478.91,275.246a18.089,18.089,0,0,0-10.391-1.4,12.482,12.482,0,0,0,12.039,13.372c.167.006.332.009.5.009a12.591,12.591,0,0,0,12.575-12.575,12.727,12.727,0,0,0-.123-1.756C488.717,273.559,484.62,277.822,478.91,275.246Z" transform="translate(-467.605 -247.963)"/></g></g><g transform="translate(28.642 18.076)"><g transform="translate(13.255)"><path class="ak" d="M308.863,288.329,298.6,266.845a6.768,6.768,0,0,1-.659-2.911V247.262h.355a1.1,1.1,0,1,0,0-2.194h-7.018a1.1,1.1,0,1,0,0,2.194h.355v16.671a6.769,6.769,0,0,1-.659,2.911L280.7,288.329a3.476,3.476,0,0,0,3.136,4.975h21.887A3.476,3.476,0,0,0,308.863,288.329Z" transform="translate(-280.36 -245.068)"/><path class="al" d="M304.168,276.1a13.891,13.891,0,0,1-7.166-.536,23.466,23.466,0,0,0-11.193-1.078l-4.248,8.888a2.326,2.326,0,0,0,2.1,3.328h21.888a2.325,2.325,0,0,0,2.1-3.327Z" transform="translate(-280.179 -239.617)"/></g><g transform="translate(0 10.415)"><path class="ak" d="M291.542,287.765l-8.05-16.847a5.3,5.3,0,0,1-.517-2.282V255.565h.278a.86.86,0,1,0,0-1.721h-5.5a.86.86,0,1,0,0,1.721h.278v13.071a5.3,5.3,0,0,1-.517,2.282l-8.05,16.847a2.725,2.725,0,0,0,2.46,3.9h17.16A2.725,2.725,0,0,0,291.542,287.765Z" transform="translate(-269.192 -253.844)"/><path class="al" d="M287.86,278.177a10.885,10.885,0,0,1-5.618-.421,18.4,18.4,0,0,0-8.776-.845l-3.33,6.969a1.822,1.822,0,0,0,1.644,2.609h17.162a1.822,1.822,0,0,0,1.644-2.607Z" transform="translate(-269.05 -249.57)"/></g></g><g transform="translate(0 46.677)"><path class="ak" d="M257.142,288.8h-8.88a2.211,2.211,0,0,1-2.211-2.211v-14.6a.6.6,0,0,0-.063-.265l-.866-1.711a.587.587,0,0,1,.523-.851h13.123a.586.586,0,0,1,.586.586v16.838A2.211,2.211,0,0,1,257.142,288.8Z" transform="translate(-245.058 -269.167)"/><path class="al" d="M246.865,278.59v6.241a1.062,1.062,0,0,0,1.06,1.06h8.881a1.062,1.062,0,0,0,1.06-1.06V278.59Z" transform="translate(-244.721 -267.407)"/></g><g transform="translate(171.404 46.677)"><path class="ak" d="M401.567,288.8h-8.88a2.212,2.212,0,0,1-2.212-2.211v-14.6a.583.583,0,0,0-.063-.265l-.865-1.711a.586.586,0,0,1,.522-.851h13.124a.586.586,0,0,1,.586.586v16.838A2.212,2.212,0,0,1,401.567,288.8Z" transform="translate(-389.483 -269.167)"/><path class="al" d="M391.29,278.59v6.241a1.062,1.062,0,0,0,1.06,1.06h8.88a1.062,1.062,0,0,0,1.061-1.06V278.59Z" transform="translate(-389.146 -267.407)"/></g></g><g transform="translate(13.083 526.352)"><rect class="bb" width="232.653" height="11.083" transform="translate(47.104)"/><rect class="bc" width="204.267" height="11.083" transform="translate(60.105 11.083)"/><g transform="translate(0 22.167)"><path class="bc" d="M127.545,498.433l17.9-194.171h11.083l-17.9,194.171Z" transform="translate(-85.343 -304.262)"/><path class="bc" d="M91.986,498.433l17.9-194.171h11.083l-17.9,194.171Z" transform="translate(-91.986 -304.262)"/></g><g transform="translate(211.078 22.167)"><path class="bc" d="M627.018,498.433l-17.9-194.171H598.031l17.9,194.171Z" transform="translate(-598.031 -304.262)"/><path class="bc" d="M662.577,498.433l-17.9-194.171H633.59l17.9,194.171Z" transform="translate(-591.388 -304.262)"/></g><rect class="bb" width="41.349" height="11.083" transform="translate(5.755)"/><rect class="bc" width="42.202" height="11.083" transform="translate(17.904 11.083)"/></g></g></g></g></g></g></g></svg>