<svg xmlns="http://www.w3.org/2000/svg" xmlns:xlink="http://www.w3.org/1999/xlink" width="184" height="184" viewBox="0 0 184 184"><defs><style>.a,.f,.m{fill:#fff;}.a{stroke:#707070;}.b{clip-path:url(#a);}.c{fill:#4fc3d8;}.d{fill:#dff9fb;}.e{fill:#22a6b3;}.g{fill:#ffc2bd;}.h{fill:#ff7979;}.h,.m{opacity:0.5;}.i,.j,.l{fill:#130f40;}.j{opacity:0.1;}.k{fill:#035d71;}.l{opacity:0.15;}.n{fill:#6ab04c;}.o,.q{fill:none;stroke-linecap:round;stroke-linejoin:round;}.o{stroke:#badc58;stroke-width:0.898px;}.p{fill:#badc58;}.q{stroke:#6ab04c;}.r{fill:#eb4d4b;}</style><clipPath id="a"><path class="a" d="M92,0A92.047,92.047,0,1,1,0,92,92,92,0,0,1,92,0Z" transform="translate(86.196 238.196)"/></clipPath></defs><g class="b" transform="translate(-86.196 -238.196)"><g transform="translate(-123.065 110.743)"><rect class="c" width="493" height="649" transform="translate(0.261 0.453)"/><g transform="translate(0 153.159)"><rect class="d" width="493.667" height="213.351" transform="translate(0 282.76)"/><rect class="e" width="493.667" height="12.893" transform="translate(0 269.867)"/><g transform="translate(248.461)"><g transform="translate(80.258 73.904)"><path class="f" d="M254.133,174.869c4.341-.39,12.176,11.509,15.471,26.181,2.783,12.4,5.963,28.985,6.425,29.985s13.87,30.723,13.87,30.723l-11.856,4.423a136.985,136.985,0,0,1-15.476-31.148C254.382,211.049,251.4,179.563,254.133,174.869Z" transform="translate(-253.146 -174.86)"/></g><path class="g" d="M247.089,163.583s-2.407,7.685,1.127,13.328c4.442,7.1,1.483,16.15-4.437,16.034s-17-9.4-12.356-17.768c2.219-4,1.615-11.131,1.615-11.131Z" transform="translate(-179.703 -104.323)"/><path class="h" d="M247.245,175.693c-2.549-5.469-.474-12.11-.474-12.11l-14.05.464s.544,6.5-1.339,10.568C234.984,178.906,244.7,181.191,247.245,175.693Z" transform="translate(-179.385 -104.323)"/><path class="e" d="M219.36,179.319c4.846-4.754,22.888-7.261,22.888-7.261l12.7,14.537,4.219-13.117,13.092,2.227s4.8,11.039,2.258,28.068c.191,10.334-4.236,22.26-3.933,30.816.127,3.588,2.241,17.982,3.255,24.109-16.106,4.87-35.118,4.258-50.46-2.292,1.969-5.646,7.738-22.276,2.928-36.334-1.337-3.909-3.389-17.584-3.389-17.584l-9.346,27.049-8.36,32.53s-9.12-.478-12.779-3.244c0,0,8.242-30.136,9.394-33.039C204.622,218.738,214.513,184.073,219.36,179.319Z" transform="translate(-191.012 -101.793)"/><path class="f" d="M260.3,234.1c-.3-8.556-.274-20.1-.466-30.434,2.543-17.029-3.541-28.45-3.541-28.45l-7.9-1.541c2.352,29.059-.86,58.116-2.5,87.175a75.041,75.041,0,0,0,13.393-2.641C258.282,252.087,260.43,237.693,260.3,234.1Z" transform="translate(-175.049 -101.309)"/><path class="f" d="M218.088,178.931c-4.846,4.753-14.855,38.741-17.652,45.786-1.152,2.9-9.1,33.856-9.1,33.856,3.659,2.766,15.62,3.244,15.62,3.244L215.4,230.4l7.839-23.9s1.693,14.5,1.969,21.845-.96,22.165-2.928,27.811A73.214,73.214,0,0,0,244.7,261.34c-.384-29.761-.325-60.074-10.787-88.446C228.071,174.194,220.809,176.26,218.088,178.931Z" transform="translate(-191.339 -101.543)"/><g transform="translate(37.743)"><path class="g" d="M262.814,157.405c-.164-2.61-1.47-3.284-2.781-2.8a61.565,61.565,0,0,0,.213-7.35c.025-4.351-2.823-15.715-17.821-15.654-17.85.071-17.852,13.345-17.852,13.345A82.421,82.421,0,0,0,225.425,155c-1.513-1.064-3.316-.688-3.51,2.41-.271,4.348,1.837,8.742,6.249,8.721l0-.035c2.7,7.4,7.246,13.78,14.171,13.758,8.168-.026,12.935-6.689,15.419-13.844C261.348,165.3,263.06,161.341,262.814,157.405Z" transform="translate(-219.961 -113.87)"/><path class="h" d="M234.361,144.937c7.481,4.954,20.243,6.023,24.779,12.31a63.6,63.6,0,0,0,.49-9.991c.025-4.351-2.823-15.715-17.821-15.654-17.85.071-17.852,13.345-17.852,13.345s.305,4.08,1.165,9.874c.082.554.87,1.537.849,2.78C227.589,153.188,230.825,149.8,234.361,144.937Z" transform="translate(-219.344 -113.87)"/><g transform="translate(9.153 36.584)"><g transform="translate(2.328 3.72)"><ellipse class="i" cx="1.677" cy="2.127" rx="1.677" ry="2.127" transform="translate(1.434)"/><ellipse class="i" cx="1.677" cy="2.127" rx="1.677" ry="2.127" transform="translate(18.097)"/><path class="i" d="M231.035,150.14c-.926-.1-1.383-.869-1.732-.638s1,1.735,1.732,1.852S231.035,150.14,231.035,150.14Z" transform="translate(-229.246 -148.843)"/><path class="i" d="M245.5,150.14c.925-.1,1.383-.869,1.732-.638s-1,1.735-1.732,1.852S245.5,150.14,245.5,150.14Z" transform="translate(-224.491 -148.843)"/></g><path class="i" d="M241.564,148.152c.445.153,5.314-.908,5.881-.822s3.107,1.195,3.358,1.215a7.31,7.31,0,0,0-3.246-2.357,17.29,17.29,0,0,0-5.889.752C241.4,147.133,241.146,148.009,241.564,148.152Z" transform="translate(-223.307 -146.12)"/><path class="i" d="M236.688,148.058c-.439.171-5.347-.683-5.911-.574s-3.054,1.324-3.3,1.357a7.317,7.317,0,0,1,3.144-2.493,17.331,17.331,0,0,1,5.915.5C236.809,147.032,237.1,147.9,236.688,148.058Z" transform="translate(-227.453 -146.086)"/></g><path class="i" d="M262.65,138.213a23.6,23.6,0,0,0-5.66-5.936,9.623,9.623,0,0,0,.571-3.262c0-6.114-5.793-11.069-12.94-11.069s-12.94,4.955-12.94,11.069a9.555,9.555,0,0,0,.171,1.721c-7.969,4.07-12.94,16.185-11.045,29.065,1.841,12.522,9.93,15.284,8.95,13.2-.443-.938-.828-1.871-1.186-2.8-4.385-.005-6.482-4.384-6.212-8.718.194-3.1,2-3.474,3.51-2.41,1.112-.007,2.214-6.432,9.552-12.915,7.25,6.191,21.652,2.953,25.055,12.526,1.312-.484,2.618.19,2.781,2.8.245,3.936-1.466,7.9-5.064,8.6a32.085,32.085,0,0,1-2.009,4.614c-.021.049-.042.1-.064.151-.686,1.544,3.918-1.257,7.841-8.335C268,159.231,268.159,146.366,262.65,138.213Z" transform="translate(-220.405 -117.947)"/><ellipse class="h" cx="1.186" cy="2.685" rx="1.186" ry="2.685" transform="translate(3.622 44.091) rotate(-15.246)"/><ellipse class="h" cx="2.685" cy="1.186" rx="2.685" ry="1.186" transform="translate(37.731 48.649) rotate(-74.754)"/></g><path class="f" d="M259.227,148.5c-.426.344-3.315,4.836-4.867,7.271-3.185-1.606-9.6-4.038-11.883-3.968-2.343.071-9.077,3.03-12.269,5.019-1.33-2.093-4.873-7.642-5.349-8.025-.362-.291-.635.156-.478.693.127.435,3.244,6.234,4.415,8.407-2.514,2.761-1.077,15.121,12.124,16.5,13.418,1.405,16.656-16.308,14.9-17.787,1.384-2.572,3.772-7.039,3.884-7.42C259.862,148.655,259.59,148.208,259.227,148.5Z" transform="translate(-181.488 -108.853)"/></g><rect class="i" width="111.736" height="19.64" transform="translate(164.789 110.224)"/><g transform="translate(0 130.327)"><rect class="j" width="559.43" height="18.433" transform="translate(0 193.041)"/><rect class="f" width="546.962" height="185.664" transform="translate(0 15.01)"/><rect class="k" width="551.527" height="32.053"/><rect class="l" width="546.962" height="7.791" transform="translate(0 32.053)"/><g transform="translate(230.016 64.377)"><path class="k" d="M207.789,342.007a43.465,43.465,0,1,1,43.466-43.466A43.514,43.514,0,0,1,207.789,342.007Zm0-84.113a40.648,40.648,0,1,0,40.649,40.647A40.694,40.694,0,0,0,207.789,257.894Z" transform="translate(-164.323 -255.077)"/></g><path class="k" d="M232.115,289.577H219.407V276.87H198.824v12.708H186.116V310.16h12.708v12.708h20.583V310.16h12.708Z" transform="translate(64.366 -192.027)"/></g><path class="m" d="M622.9,172.641c-1,.245-4.416,4.17-4.25,6.863S625.13,172.1,622.9,172.641Z" transform="translate(184.691 -101.625)"/><g transform="translate(14.821 196.236)"><ellipse class="l" cx="45.075" cy="8.98" rx="45.075" ry="8.98" transform="translate(23.435 159.849)"/><g transform="translate(0 24.633)"><path class="n" d="M72.451,374.726s-21.522-.2-30.414-9.761-.106-15.993-.106-15.993-16.607-5.4-19.1-14S27.9,321.3,27.9,321.3,2.9,313.6,14.473,290.418c0,0,19.721-9.368,26.856,9.057,0,0,7.333-8.159,16.841-2.2s7.163,29.642,7.163,29.642,4.653-8.011,12.708-4.59C88.094,326.591,89.111,356.149,72.451,374.726Z" transform="translate(-11.414 -288.037)"/><path class="o" d="M14.642,290.582s47.693,37.6,56.845,83.384a214.782,214.782,0,0,1,4.4,39.842" transform="translate(-10.45 -287.278)"/><path class="o" d="M16.826,308.853l15.943-.756-1.331-17.088" transform="translate(-9.798 -287.15)"/><path class="o" d="M19.771,312.822l17.262-.335-1.643-17.248" transform="translate(-8.919 -285.887)"/><path class="o" d="M27.068,335.142l26.612-.023,3.15-31.8" transform="translate(-6.741 -283.474)"/><path class="o" d="M33.862,351.12l29.277,4.767,8.7-38.093" transform="translate(-4.712 -279.154)"/><path class="o" d="M33.751,346.471l27.179,3.688L67.5,316.142" transform="translate(-4.745 -279.647)"/></g><g transform="translate(57.439)"><path class="p" d="M73.078,361.183s21.325-2.909,28.942-13.515-1.91-15.879-1.91-15.879,15.793-7.455,17.186-16.3-6.759-12.919-6.759-12.919,23.836-10.795,9.431-32.331c0,0-20.745-6.807-25.5,12.37,0,0-8.3-7.171-16.985-.066s-3.37,30.309-3.37,30.309-5.625-7.361-13.185-2.953C51.493,315.4,54.209,344.853,73.078,361.183Z" transform="translate(-55.648 -269.067)"/><path class="q" d="M115.1,270.786S72.523,314.094,69.214,360.67s7.659,69.967,7.659,69.967" transform="translate(-51.783 -268.554)"/><path class="q" d="M107.874,288.763l-15.911,1.259L91.13,272.9" transform="translate(-45.055 -267.922)"/><path class="q" d="M105.682,293.043l-17.167,1.843-.544-17.318" transform="translate(-45.998 -266.53)"/><path class="q" d="M104.482,315.7l-26.4,3.331-7.132-31.147" transform="translate(-51.08 -263.451)"/><path class="q" d="M101.628,332.163l-28.442,8.419L59.758,303.888" transform="translate(-54.42 -258.672)"/><path class="q" d="M100.188,327.66l-26.5,7.084-10.8-32.918" transform="translate(-53.486 -259.288)"/></g><g transform="translate(37.095 111.611)"><path class="r" d="M0,0H60.824a0,0,0,0,1,0,0V47.4A12.851,12.851,0,0,1,47.973,60.25H12.851A12.851,12.851,0,0,1,0,47.4V0A0,0,0,0,1,0,0Z" transform="translate(0.292)"/><path class="l" d="M40.206,385.858v3.518a16.686,16.686,0,0,0,16.688,16.686H84.342a16.687,16.687,0,0,0,16.688-16.686V386.02C95.856,398.558,45.648,398.314,40.206,385.858Z" transform="translate(-39.914 -345.812)"/><g transform="translate(0 6.333)"><path class="f" d="M101.1,361.543H40.273c-.162,0-.292-.369-.292-.823s.13-.823.292-.823H101.1c.161,0,.292.369.292.823S101.258,361.543,101.1,361.543Z" transform="translate(-39.981 -359.896)"/></g></g></g></g></g></g></svg>