<svg xmlns="http://www.w3.org/2000/svg" xmlns:xlink="http://www.w3.org/1999/xlink" width="142" height="142" viewBox="0 0 142 142"><defs><style>.a{fill:#e1fcff;}.b{clip-path:url(#a);}.c{fill:#39aac4;}.d{fill:#c2ebed;}.e{fill:#ed7666;}.f{fill:#2c2334;}.g,.h{fill:#fff;}.h{opacity:0.87;}.i,.k{fill:#d6c5cf;}.i{opacity:0.47;}.j{fill:#f6f6f6;}.l{fill:#ff987d;}.m{fill:#c75450;}.n{fill:#6fc7d9;}.o{fill:#619abd;}.p{fill:#d5e5fd;opacity:0.51;}.q{fill:#4b4257;}.r{fill:#66a3c7;}.s{fill:#cf5b4d;}.t{fill:#fcfcfb;}.u{opacity:0.7;mix-blend-mode:overlay;isolation:isolate;fill:url(#b);}</style><clipPath id="a"><path class="a" d="M71,0A71.036,71.036,0,1,1,0,71,71,71,0,0,1,71,0Z" transform="translate(98 129)"/></clipPath><linearGradient id="b" x1="-9.097" y1="-0.401" x2="-9.097" y2="1.343" gradientUnits="objectBoundingBox"><stop offset="0" stop-color="#fff"/><stop offset="0.16" stop-color="#231f20"/><stop offset="0.337" stop-color="#fff"/><stop offset="0.738" stop-color="#231f20"/><stop offset="1" stop-color="#fff"/></linearGradient></defs><g transform="translate(-94.199 -145.198)"><g class="b" transform="translate(-3.801 16.198)"><g transform="translate(75.15 121.099)"><path class="c" d="M11.351,0H165.986c6.269,0,11.351,6.745,11.351,15.066V151.323c0,8.321-5.082,15.066-11.351,15.066H11.351C5.082,166.388,0,159.643,0,151.323V15.066C0,6.745,5.082,0,11.351,0Z"/><g transform="translate(147.55 15.003)"><g transform="translate(9.448 0)"><path class="d" d="M651.5,666.464a2.327,2.327,0,1,1-2.327-2.328A2.328,2.328,0,0,1,651.5,666.464Z" transform="translate(-646.84 -664.137)"/></g><g transform="translate(0 0)"><path class="d" d="M632.462,666.464a2.328,2.328,0,1,1-2.327-2.328A2.328,2.328,0,0,1,632.462,666.464Z" transform="translate(-627.807 -664.137)"/></g><g transform="translate(18.5 0)"><path class="e" d="M669.731,666.464a2.328,2.328,0,1,1-2.327-2.328A2.327,2.327,0,0,1,669.731,666.464Z" transform="translate(-665.076 -664.137)"/></g></g><g transform="translate(17.524 37.234)"><rect class="f" width="18.639" height="3.965" transform="translate(22.785 24.067)"/><rect class="g" width="44.043" height="24.527" transform="translate(37.352 48.771) rotate(8.313)"/><path class="h" d="M610.45,821.051l-.491-.653-2-2.654a0,0,0,0,1,0,0l-.147-.194-.685.515-1.977,1.485-15.273,11.49,10.338,30.115H628.3Z" transform="translate(-478.679 -763.628)"/><path class="g" d="M425.417,813.462h0a15.124,15.124,0,0,1-16.869-13.148l-1.538-12.41a15.124,15.124,0,0,1,13.149-16.869h0a15.124,15.124,0,0,1,16.869,13.149l1.538,12.41A15.124,15.124,0,0,1,425.417,813.462Z" transform="translate(-386.523 -740.144)"/><path class="g" d="M556.143,804.605a12.018,12.018,0,0,0-.289-2.511c-.071-.325-.158-.646-.258-.962a12.236,12.236,0,0,0-1.54-3.229,0,0,0,0,1,0,0c-.1-.143-.194-.281-.3-.42-.162-.217-.329-.431-.5-.637a12.244,12.244,0,0,0-3.228-2.7q-2.59-1.5-4.785-2.765c-.4-.225-.78-.451-1.156-.665-1.172-.678-2.258-1.3-3.264-1.889-.38-.218-.748-.428-1.1-.638-14.48-8.361-11.692-6.749-17.091-10.036-.61.075-12.369,1.493-12.852,1.553l-13.538,11.47c-.293.246-.583.491-.868.733-.919.78-1.786,1.513-2.567,2.178-.341.289-.665.562-.97.82-1.68,1.426-2.773,2.349-2.777,2.353-4.555,3.858-4.289,8.309-4.595,13.039-.342,5.462-2.742,53.663-3.162,59.756l75.122-28.742C556.329,836.831,556.253,814.345,556.143,804.605Z" transform="translate(-424.771 -743.788)"/><path class="i" d="M617.142,896.567l-1.144-8.7-1.545,8.7Z" transform="translate(-491.055 -799.043)"/><g transform="translate(86.178 60.248)"><path class="i" d="M540.749,830.314l-1.24-.017-.039,37.276h1.24Z" transform="translate(-539.47 -830.297)"/></g><g transform="translate(91.376 60.248)"><path class="i" d="M551.221,830.314l-1.24-.017-.039,37.276h1.24Z" transform="translate(-549.943 -830.297)"/></g><path class="j" d="M17.7,0h0A13.113,13.113,0,0,1,30.809,13.113V35.234a15.18,15.18,0,0,1-15.18,15.18h-.45A15.18,15.18,0,0,1,0,35.234V17.7A17.7,17.7,0,0,1,17.7,0Z" transform="translate(77.566)"/><g transform="translate(96.134 42.706)"><path class="k" d="M560.121,798.831l4.811-3.067-.594-.807-4.811,3.067Z" transform="translate(-559.527 -794.957)"/></g><g transform="translate(97.464 38.458)"><path class="k" d="M562.7,790.523l4.578-3.4-.495-.718-4.578,3.405Z" transform="translate(-562.208 -786.4)"/></g><g transform="translate(79.973 16.097)"><g transform="translate(0.182)"><path class="l" d="M538.3,741.351H529.84a2.5,2.5,0,0,0-2.5,2.5v7.521H538.3a5.012,5.012,0,0,0,5.012-5.012h0A5.012,5.012,0,0,0,538.3,741.351Z" transform="translate(-527.336 -741.351)"/><path class="m" d="M527.484,746.341c-.05,0-.1.008-.148.011v5.333a2.021,2.021,0,0,0,.349.034,2.439,2.439,0,0,0,2.276-2.689A2.663,2.663,0,0,0,527.484,746.341Z" transform="translate(-527.336 -743.864)"/><path class="m" d="M548.29,746.182a2.725,2.725,0,0,0-2.743,2.85,2.982,2.982,0,0,0,2.956,2.85,2.724,2.724,0,0,0,2.743-2.85A2.983,2.983,0,0,0,548.29,746.182Z" transform="translate(-536.506 -743.784)"/><g transform="translate(1.263 1.84)"><path class="f" d="M546.613,745.058a.861.861,0,0,0-.866.9.942.942,0,0,0,.934.9.861.861,0,0,0,.867-.9A.943.943,0,0,0,546.613,745.058Z" transform="translate(-537.871 -745.058)"/><path class="f" d="M530.746,745.058a.861.861,0,0,0-.866.9.942.942,0,0,0,.934.9.861.861,0,0,0,.867-.9A.942.942,0,0,0,530.746,745.058Z" transform="translate(-529.88 -745.058)"/></g></g><g transform="translate(0 3.64)"><path class="n" d="M527.084,759.032s2.151,3.5,5.827,3.608c4.055-.133,9.954-2.179,9.954-2.179l.039-1.4.018-.487.048-1.646.018-.518.044-1.587.02-.557.075-2.588-11.619-2.995-4.537,3.086.031,2.212.015.6.028,1.947.005.52.014.817.006.48Z" transform="translate(-526.97 -748.685)"/><path class="g" d="M543.128,751.678l-11.616-2.991-4.539,3.084.017,1.127,4.3-2.62,11.793,2.99Z" transform="translate(-526.971 -748.686)"/><g transform="translate(0.032 3.896)"><path class="o" d="M527.033,758.379,531.181,757l11.9,1.613v-.39l-11.84-1.687-4.21,1.4Z" transform="translate(-527.033 -756.534)"/><g transform="translate(0.043 3.593)"><path class="o" d="M527.126,764.644l3.562-.35,12.358.234.019-.518-12.47-.237-3.473.351Z" transform="translate(-527.12 -763.772)"/></g><g transform="translate(0.063 5.281)"><path class="o" d="M527.166,767.653l4.972,1.59L543,768.373l.018-.486-10.914.883-4.943-1.6Z" transform="translate(-527.16 -767.173)"/></g></g></g></g><g transform="translate(73.35 10.04)"><rect class="f" width="8.119" height="4.762" transform="translate(26.905 2.088)"/><rect class="f" width="27.329" height="4.487" transform="translate(0 2.279)"/><path class="p" d="M0,0H27.258a0,0,0,0,1,0,0V.875A17.342,17.342,0,0,1,9.916,18.217H0a0,0,0,0,1,0,0V0A0,0,0,0,1,0,0Z" transform="translate(0 6.766)"/><circle class="q" cx="4.143" cy="4.143" r="4.143" transform="translate(23.195 8.065) rotate(-76.766)"/><path class="f" d="M570.36,736.973a2.178,2.178,0,1,1-2.179-2.179A2.178,2.178,0,0,1,570.36,736.973Z" transform="translate(-540.005 -731.991)"/></g><g transform="translate(70.593 44.399)"><path class="i" d="M553.527,799.007c-5.878,4.6-16.136,11.09-27.186,11.09-.468,0-.939-.012-1.41-.036-10.151-.515-14.766-4.559-16.857-7.973.285-.242.574-.487.868-.733,1.854,3.157,6.143,7.015,16.053,7.518,11,.558,21.4-5.842,27.428-10.5C552.779,798.579,553.147,798.789,553.527,799.007Z" transform="translate(-508.074 -798.369)"/></g><g transform="translate(67.057 46.927)"><path class="i" d="M554.359,804.125c-5.383,4.3-18.354,13.32-32.526,13.32-.511,0-1.018-.011-1.529-.035-10.08-.472-15.031-3.9-17.411-6.69a12.621,12.621,0,0,1-1.945-3.07c.3-.258.63-.531.97-.82,1.287,3.236,5.395,8.729,18.441,9.339,14.045.654,27.183-8.246,32.842-12.71C553.579,803.674,553.963,803.9,554.359,804.125Z" transform="translate(-500.949 -803.46)"/></g><g transform="translate(0 17.937)"><path class="r" d="M442.427,778.1a6.784,6.784,0,0,1-13.524.777,7.006,7.006,0,0,1-.043-.777,6.782,6.782,0,0,1,13.487-1.025A6.829,6.829,0,0,1,442.427,778.1Z" transform="translate(-397.587 -758.281)"/><path class="r" d="M424.561,777.7a6.655,6.655,0,0,1-.113,1.232A6.78,6.78,0,0,1,411,777.7a6.892,6.892,0,0,1,.08-1.044,6.781,6.781,0,0,1,13.421.132A6.522,6.522,0,0,1,424.561,777.7Z" transform="translate(-388.591 -758.081)"/><path class="f" d="M433.431,783.719a6.74,6.74,0,0,1-1.531,4.293,21.612,21.612,0,0,0-7.453-3.258,13.643,13.643,0,0,0-2.453-.286c-.7-.018-1.4-.009-2.088.028a40.212,40.212,0,0,0-8.492,1.371,6.717,6.717,0,0,1-.417-2.345,6.891,6.891,0,0,1,.08-1.044l8.885.084,4.536.047,8.852.084A6.838,6.838,0,0,1,433.431,783.719Z" transform="translate(-388.591 -763.904)"/><g transform="translate(0 8.789)"><g transform="translate(0 0.029)"><g transform="translate(6.569 0)"><path class="s" d="M380.854,762.823a1.762,1.762,0,0,0-1.763,1.762v7.474a1.763,1.763,0,0,0,1.763,1.762h49.165a5.5,5.5,0,0,0,5.5-5.5h0a5.5,5.5,0,0,0-5.5-5.5Z" transform="translate(-379.091 -762.823)"/></g><path class="t" d="M2.956,0H8.043A2.956,2.956,0,0,1,11,2.956V6.569a0,0,0,0,1,0,0H0a0,0,0,0,1,0,0V2.956A2.956,2.956,0,0,1,2.956,0Z" transform="translate(0 10.998) rotate(-90)"/><rect class="t" width="36.791" height="10.12" transform="translate(15.777 0.879)"/><g transform="translate(17.482 3.169)"><path class="f" d="M405.29,774.672a3.558,3.558,0,0,1-1.467.264,2.6,2.6,0,0,1-2.746-2.812,2.765,2.765,0,0,1,2.9-2.918,2.972,2.972,0,0,1,1.319.248l-.173.585a2.6,2.6,0,0,0-1.121-.231,2.066,2.066,0,0,0-2.168,2.291,2.02,2.02,0,0,0,2.135,2.235,2.873,2.873,0,0,0,1.17-.231Z" transform="translate(-401.077 -769.206)"/><path class="f" d="M415.444,772.017c0,1.913-1.163,2.927-2.581,2.927a2.547,2.547,0,0,1-2.5-2.82,2.639,2.639,0,0,1,2.58-2.918A2.53,2.53,0,0,1,415.444,772.017Zm-4.312.091c0,1.187.643,2.251,1.772,2.251s1.781-1.047,1.781-2.308c0-1.1-.577-2.258-1.773-2.258S411.133,770.888,411.133,772.108Z" transform="translate(-405.755 -769.206)"/><path class="f" d="M423.1,774.945l-1.813-5.557h.775l.866,2.737c.239.75.445,1.426.594,2.077h.016c.156-.643.387-1.344.634-2.07l.94-2.745h.767l-1.987,5.557Z" transform="translate(-411.254 -769.298)"/><path class="f" d="M432.469,769.389v5.557h-.717v-5.557Z" transform="translate(-416.526 -769.298)"/><path class="f" d="M435.723,769.421a10.268,10.268,0,0,1,1.525-.115A3.181,3.181,0,0,1,439.5,770a2.56,2.56,0,0,1,.783,1.995,2.938,2.938,0,0,1-.8,2.16,3.424,3.424,0,0,1-2.457.8,11.478,11.478,0,0,1-1.3-.066Zm.717,4.913a4.481,4.481,0,0,0,.725.042,2.136,2.136,0,0,0,2.366-2.358,1.982,1.982,0,0,0-2.251-2.143,4.076,4.076,0,0,0-.84.074Z" transform="translate(-418.525 -769.256)"/><path class="f" d="M448.3,775.551v.536h-2.036v-.536Z" transform="translate(-423.832 -772.401)"/><path class="f" d="M453.677,770.463h-.016l-.932.5-.14-.552,1.17-.627h.619v5.359h-.7Z" transform="translate(-427.019 -769.499)"/><path class="f" d="M460.52,774.543a3.025,3.025,0,0,0,.585-.025,2.02,2.02,0,0,0,1.121-.519,2.353,2.353,0,0,0,.709-1.426h-.025a1.573,1.573,0,0,1-1.261.577,1.552,1.552,0,0,1-1.583-1.641,1.837,1.837,0,0,1,1.83-1.9c1.1,0,1.773.89,1.773,2.258a3.386,3.386,0,0,1-.923,2.515,2.681,2.681,0,0,1-1.558.717,3.4,3.4,0,0,1-.668.041Zm.264-3.083a1.031,1.031,0,0,0,1.031,1.137,1.2,1.2,0,0,0,1.055-.56.48.48,0,0,0,.066-.264c0-.915-.338-1.615-1.1-1.615C461.22,770.158,460.783,770.7,460.783,771.46Z" transform="translate(-430.785 -769.407)"/></g></g><path class="u" d="M423.354,762.764H374.189a1.763,1.763,0,0,0-1.763,1.762v-1.762h-5.1a1.467,1.467,0,0,0-1.467,1.467v8.064a1.467,1.467,0,0,0,1.467,1.467h5.1V772a1.763,1.763,0,0,0,1.763,1.762h49.165a5.5,5.5,0,1,0,0-11Z" transform="translate(-365.857 -762.764)"/></g><path class="r" d="M427.454,750.9v3.074a2.722,2.722,0,0,1-.17.955.833.833,0,0,1-.032.091,2.155,2.155,0,0,1-.186.372,2.8,2.8,0,0,1-2.428,1.394H424.1a2.8,2.8,0,0,1-2.638-1.853,1.518,1.518,0,0,1-.1-.3,2.793,2.793,0,0,1-.079-.662V750.9a2.814,2.814,0,0,1,2.812-2.816h.539a2.8,2.8,0,0,1,2.432,1.406,2.381,2.381,0,0,1,.214.455A2.725,2.725,0,0,1,427.454,750.9Z" transform="translate(-393.773 -746.582)"/><path class="n" d="M427.453,750.9v.2a2.813,2.813,0,0,1-2.813,2.813H424.1a2.8,2.8,0,0,1-2.64-1.853,1.75,1.75,0,0,1-.094-.3,2.763,2.763,0,0,1-.079-.66v-.2a2.813,2.813,0,0,1,2.813-2.813h.538A2.813,2.813,0,0,1,427.453,750.9Z" transform="translate(-393.773 -746.583)"/><path class="r" d="M438.874,748.146v4.285a3.136,3.136,0,0,1-.871,2.183,3.031,3.031,0,0,1-2.1.9,2.974,2.974,0,0,1-2.753-1.925.875.875,0,0,1-.032-.095,2.977,2.977,0,0,1-.186-1.066v-4.285c0-.06,0-.119,0-.178.008-.1.016-.206.032-.305a3.366,3.366,0,0,1,.087-.4c.023-.075.047-.15.075-.221a2.97,2.97,0,0,1,2.773-1.984A3.031,3.031,0,0,1,438.874,748.146Z" transform="translate(-399.636 -745.059)"/><path class="f" d="M433.146,749.9a.922.922,0,0,1-.22.595v-.113a3,3,0,0,1,.126-.88A.884.884,0,0,1,433.146,749.9Z" transform="translate(-399.634 -747.296)"/><path class="n" d="M439.091,748.143V749.8a3.2,3.2,0,0,1-.838,2.182,2.3,2.3,0,0,1-.243.229,2.715,2.715,0,0,1-1.782.674,2.98,2.98,0,0,1-2.864-3.085v-1.662a3.171,3.171,0,0,1,.192-1.1,2.873,2.873,0,0,1,2.672-1.985A2.98,2.98,0,0,1,439.091,748.143Z" transform="translate(-399.855 -745.058)"/><path class="f" d="M443.131,754.885v2.5a3.078,3.078,0,0,1-.9,2.182,2.479,2.479,0,0,1-.262.229,3.44,3.44,0,0,1,1.165-4.906Z" transform="translate(-403.895 -750.007)"/><path class="r" d="M449.37,757a2.844,2.844,0,0,1-2.851,2.846h-1.053a2.846,2.846,0,0,1-2.2-4.657v-.005c.061-.07.122-.136.183-.2a2.837,2.837,0,0,1,2.013-.833h1.053a2.871,2.871,0,0,1,2.2,1.029v.005A2.827,2.827,0,0,1,449.37,757Z" transform="translate(-404.517 -749.637)"/><path class="n" d="M449.38,755.179v.005c-.06.07-.122.135-.182.2a2.859,2.859,0,0,1-2.018.833h-1.053a2.852,2.852,0,0,1-2.2-1.03v-.005c.061-.07.122-.136.183-.2a2.836,2.836,0,0,1,2.013-.833h1.053A2.871,2.871,0,0,1,449.38,755.179Z" transform="translate(-405.177 -749.637)"/><path class="n" d="M442.553,780.811h0a3.086,3.086,0,0,0,1.019,4.244l3.656,2.24a3.086,3.086,0,0,0,4.243-1.019h0a3.085,3.085,0,0,0-1.019-4.243l-3.656-2.241A3.086,3.086,0,0,0,442.553,780.811Z" transform="translate(-404.254 -762.322)"/><path class="r" d="M415.44,754.958v1.709a1.812,1.812,0,0,1-.014.229,2.006,2.006,0,0,1-.112.534,2.384,2.384,0,0,1-2.261,1.62h-1.18a2.383,2.383,0,0,1-2.383-2.383v-1.709a2.383,2.383,0,0,1,2.383-2.383h1.18a2.4,2.4,0,0,1,2.092,1.227,1.932,1.932,0,0,1,.178.43.372.372,0,0,1,.023.07.933.933,0,0,1,.033.122A2.213,2.213,0,0,1,415.44,754.958Z" transform="translate(-387.832 -748.844)"/><path class="n" d="M415.323,754.232v.346a1.877,1.877,0,0,1-.014.229,2.026,2.026,0,0,1-.112.534,2.38,2.38,0,0,1-2.261,1.615h-1.179a2.384,2.384,0,0,1-2.266-1.648v-.351a2.383,2.383,0,0,1,2.383-2.383h1.18a2.4,2.4,0,0,1,2.092,1.227A1.932,1.932,0,0,1,415.323,754.232Z" transform="translate(-387.832 -748.844)"/><path class="f" d="M421.238,758.44a1.739,1.739,0,0,1-.094-.3,2,2,0,0,1-.112.534l-.188-3.628h.019a2.335,2.335,0,0,1,.2.5v-.5l.033.622.061,1.231Z" transform="translate(-393.55 -750.088)"/><path class="f" d="M433.147,750.3v5.929a.879.879,0,0,1-.032-.095,2.157,2.157,0,0,1-.186.372v-5.723c0-.06,0-.119,0-.178.008-.1.016-.206.032-.305Z" transform="translate(-399.636 -747.699)"/></g><path class="i" d="M479.483,852.532l.713-10.8-5.887,10.043Z" transform="translate(-420.476 -775.809)"/><path class="i" d="M469.294,811.3l.815,11.817,3.915-11.126Z" transform="translate(-417.95 -760.479)"/><path class="k" d="M445.378,811.014a44.256,44.256,0,0,0-2.964,3.622c-.3.412.385.807.684.4a42.2,42.2,0,0,1,2.84-3.461C446.282,811.2,445.723,810.636,445.378,811.014Z" transform="translate(-404.375 -760.275)"/><path class="k" d="M451.03,811.816l-2.681,3.014c-.338.38.22.943.56.56l2.681-3.013C451.928,812,451.37,811.434,451.03,811.816Z" transform="translate(-407.349 -760.678)"/><path class="i" d="M617.154,816.443c-.182.246-.356.491-.535.741a74.34,74.34,0,0,0-7.169,12.46c-.213.468-.895.063-.685-.4a74.8,74.8,0,0,1,5.878-10.575q.969-1.45,2.008-2.864C616.825,816.012,616.991,816.226,617.154,816.443Z" transform="translate(-488.171 -762.751)"/><path class="i" d="M625.4,823.944c-.234.293-.464.586-.69.883-1.517,1.969-2.958,4-4.4,6.025-.289.416-.978.02-.681-.4,1.568-2.222,3.152-4.444,4.82-6.587.151-.194.3-.384.456-.574Z" transform="translate(-493.626 -766.521)"/></g></g></g></g></svg>