<svg xmlns="http://www.w3.org/2000/svg" xmlns:xlink="http://www.w3.org/1999/xlink" width="142" height="142" viewBox="0 0 142 142">
  <defs>
    <clipPath id="clip-path">
      <path id="Path_85304" data-name="Path 85304" d="M71,0A71.036,71.036,0,1,1,0,71,71,71,0,0,1,71,0Z" transform="translate(86.196 238.196)" fill="#fff" stroke="#707070" stroke-width="1"/>
    </clipPath>
  </defs>
  <g id="admin" transform="translate(-86.196 -238.196)" clip-path="url(#clip-path)">
    <g id="Rectangle_21202" data-name="Rectangle 21202" transform="translate(76.489 232.243)" fill="#397fc4" stroke="#707070" stroke-width="1">
      <rect width="155.784" height="153.907" stroke="none"/>
      <rect x="0.5" y="0.5" width="154.784" height="152.907" fill="none"/>
    </g>
    <g id="Group_80689" data-name="Group 80689" transform="translate(74.227 262.12)">
      <g id="Group_80637" data-name="Group 80637" transform="translate(66.976 0)">
        <path id="Path_85229" data-name="Path 85229" d="M283.856,280.89H271.943s.3,7.237-1.157,9.338h14.378C283.7,288.127,283.856,280.89,283.856,280.89Z" transform="translate(-262.805 -237.454)" fill="#f3a77a"/>
        <path id="Path_85230" data-name="Path 85230" d="M272.326,286.357a13.141,13.141,0,0,0,6.3,1.6,15.513,15.513,0,0,0,6.1-1.309,44.588,44.588,0,0,1-.292-5.762H272.477A44.057,44.057,0,0,1,272.326,286.357Z" transform="translate(-263.376 -235.187)" fill="#f3d3cc" style="mix-blend-mode: multiply;isolation: isolate"/>
        <g id="Group_80636" data-name="Group 80636" transform="translate(0 0)">
          <g id="Group_80629" data-name="Group 80629" transform="translate(26.118 27.762)">
            <path id="Path_85231" data-name="Path 85231" d="M301.658,255.457c-.351,2.171.259,4.1,1.359,4.306s2.275-1.38,2.624-3.551-.26-4.1-1.361-4.307S302.006,253.288,301.658,255.457Z" transform="translate(-301.558 -251.887)" fill="#f3a77a"/>
            <g id="Group_80628" data-name="Group 80628" transform="translate(0.857 0.845)">
              <g id="Group_80626" data-name="Group 80626" transform="translate(0.555)">
                <path id="Path_85232" data-name="Path 85232" d="M304.1,255.539s.016-.122.06-.321a3.911,3.911,0,0,1,.265-.78c.137-.289.36-.624.639-.641a.6.6,0,0,1,.213.03c.011.008.084.037.107.056a.819.819,0,0,1,.078.065,1.123,1.123,0,0,1,.265.473,2.77,2.77,0,0,1,.13.616,3.016,3.016,0,0,1,.007.621c-.034.217-.044.441-.083.63s-.072.375-.105.544-.079.327-.11.467-.073.258-.1.358c-.056.2-.084.315-.084.315s.056-.1.148-.28c.042-.093.105-.2.159-.334s.118-.283.182-.449.115-.363.174-.566.089-.41.132-.63a2.915,2.915,0,0,0,.026-.744,3.278,3.278,0,0,0-.14-.735,1.533,1.533,0,0,0-.384-.636.812.812,0,0,0-.156-.113,1.234,1.234,0,0,0-.151-.061.881.881,0,0,0-.331-.016.868.868,0,0,0-.54.383,2.025,2.025,0,0,0-.261.544,3.476,3.476,0,0,0-.148.874A2.141,2.141,0,0,0,304.1,255.539Z" transform="translate(-304.086 -253.399)" fill="#f0926a"/>
              </g>
              <path id="Path_85233" data-name="Path 85233" d="M303.828,257s-.1-.232.622-.287c0,0,.81.149.334,1.23a3.5,3.5,0,0,0-.243.728c-.072.362.057.854-.137,1.175-.251.415-.888.179-.926-.3a2.734,2.734,0,0,1,.516-1.246A.969.969,0,0,0,303.828,257Z" transform="translate(-303.262 -254.863)" fill="#f0926a"/>
              <g id="Group_80627" data-name="Group 80627" transform="translate(0 4.644)">
                <path id="Path_85234" data-name="Path 85234" d="M303.308,261.71a.332.332,0,0,0-.056.059.709.709,0,0,0-.106.2.638.638,0,0,0-.037.154.567.567,0,0,0-.013.18c0,.061.006.128.017.193a1.5,1.5,0,0,0,.06.181.823.823,0,0,0,.082.165c.032.046.074.085.107.126a.463.463,0,0,0,.221.156.671.671,0,0,0,.247.062,1.621,1.621,0,0,0-.113-.264.741.741,0,0,0-.06-.1c-.017-.038-.031-.082-.052-.12a.925.925,0,0,0-.06-.113.544.544,0,0,1-.046-.121,1.257,1.257,0,0,1-.088-.236,1.024,1.024,0,0,1-.031-.12c-.006-.041-.023-.08-.027-.119C303.323,261.842,303.308,261.709,303.308,261.71Z" transform="translate(-303.092 -261.71)" fill="#f0926a"/>
              </g>
            </g>
          </g>
          <g id="Group_80633" data-name="Group 80633" transform="translate(0 27.762)">
            <path id="Path_85235" data-name="Path 85235" d="M258.9,255.457c.351,2.171-.259,4.1-1.358,4.306s-2.275-1.38-2.624-3.551.259-4.1,1.361-4.307S258.548,253.288,258.9,255.457Z" transform="translate(-254.815 -251.887)" fill="#f3a77a"/>
            <g id="Group_80632" data-name="Group 80632" transform="translate(0.642 0.845)">
              <g id="Group_80630" data-name="Group 80630">
                <path id="Path_85236" data-name="Path 85236" d="M258.08,255.539s-.017-.122-.06-.321a3.953,3.953,0,0,0-.265-.78c-.138-.289-.36-.624-.639-.641a.6.6,0,0,0-.212.03.965.965,0,0,0-.107.056.8.8,0,0,0-.078.065,1.117,1.117,0,0,0-.265.473,2.77,2.77,0,0,0-.13.616,3.016,3.016,0,0,0-.007.621c.033.217.044.441.083.63s.072.375.1.544.079.327.11.467.073.258.1.358c.057.2.085.315.085.315s-.056-.1-.148-.28c-.042-.093-.1-.2-.159-.334s-.118-.283-.182-.449-.114-.363-.173-.566a6.332,6.332,0,0,1-.132-.63,2.863,2.863,0,0,1-.027-.744,3.281,3.281,0,0,1,.14-.735,1.526,1.526,0,0,1,.384-.636.8.8,0,0,1,.157-.113,1.194,1.194,0,0,1,.15-.061.884.884,0,0,1,.332-.016.865.865,0,0,1,.54.383,2.005,2.005,0,0,1,.261.544,3.427,3.427,0,0,1,.148.874A2.119,2.119,0,0,1,258.08,255.539Z" transform="translate(-255.964 -253.399)" fill="#f0926a"/>
              </g>
              <path id="Path_85237" data-name="Path 85237" d="M258.877,257s.1-.232-.623-.287c0,0-.81.149-.334,1.23a3.538,3.538,0,0,1,.242.728c.072.362-.057.854.137,1.175.251.415.889.179.926-.3a2.728,2.728,0,0,0-.516-1.246A.969.969,0,0,1,258.877,257Z" transform="translate(-256.761 -254.863)" fill="#f0926a"/>
              <g id="Group_80631" data-name="Group 80631" transform="translate(1.944 4.644)">
                <path id="Path_85238" data-name="Path 85238" d="M259.965,261.71a.281.281,0,0,1,.055.059.669.669,0,0,1,.107.2.69.69,0,0,1,.038.154.551.551,0,0,1,.013.18c-.005.061-.006.128-.017.193a1.606,1.606,0,0,1-.059.181.824.824,0,0,1-.082.165c-.032.046-.073.085-.107.126a.462.462,0,0,1-.221.156.672.672,0,0,1-.247.062,1.614,1.614,0,0,1,.113-.264.735.735,0,0,1,.061-.1c.017-.038.031-.082.052-.12a.838.838,0,0,1,.059-.113.582.582,0,0,0,.047-.121,1.259,1.259,0,0,0,.088-.236,1.018,1.018,0,0,0,.031-.12c.006-.041.023-.08.027-.119C259.951,261.842,259.965,261.709,259.965,261.71Z" transform="translate(-259.444 -261.71)" fill="#f0926a"/>
              </g>
            </g>
          </g>
          <path id="Path_85239" data-name="Path 85239" d="M271.99,216.371v0h-.347v0c-8.748.078-13.663,2.569-12.319,18.515l1.505,12.7a5.284,5.284,0,0,0,2.809,3.7l4.752,3.523a6.952,6.952,0,0,0,6.856,0L280,251.29a5.285,5.285,0,0,0,2.809-3.7l1.586-12.408C285.735,219.232,280.737,216.447,271.99,216.371Z" transform="translate(-256.708 -208.453)" fill="#f3a77a"/>
          <path id="Path_85240" data-name="Path 85240" d="M282.881,257.827c-.31,1.352-.524,3.517-1.4,4.675a3.311,3.311,0,0,1-2.552,1.309,9.175,9.175,0,0,1-2.095-.144,10.683,10.683,0,0,0-1.595-.374,2.891,2.891,0,0,0-1.568.487,2.318,2.318,0,0,1-1.966.1,8.991,8.991,0,0,0-3.052-.664,11.765,11.765,0,0,1-3.769,0,4.138,4.138,0,0,1-2.418-2.644c-.267-.625-.456-2.1-.646-2.743-.236-.8-.606-.251-1.338-.26l.956,8.967a5.284,5.284,0,0,0,2.809,3.7L269,273.76a6.955,6.955,0,0,0,6.856,0l4.752-3.524a5.284,5.284,0,0,0,2.809-3.7l1.051-9.122C283.638,257.391,283.1,256.885,282.881,257.827Z" transform="translate(-257.315 -226.495)" fill="#16142a"/>
          <path id="Path_85241" data-name="Path 85241" d="M270.323,250.185c.006.828.47,1.5,1.039,1.495s1.027-.678,1.021-1.507-.47-1.5-1.038-1.495S270.319,249.356,270.323,250.185Z" transform="translate(-261.658 -222.709)" fill="#231208"/>
          <path id="Path_85242" data-name="Path 85242" d="M270.731,250.167a.446.446,0,1,1-.445-.446A.445.445,0,0,1,270.731,250.167Z" transform="translate(-261.445 -223.169)" fill="#fff"/>
          <path id="Path_85243" data-name="Path 85243" d="M291.905,250.185c0,.828-.47,1.5-1.038,1.495s-1.027-.678-1.021-1.507.47-1.5,1.039-1.495S291.911,249.356,291.905,250.185Z" transform="translate(-270.273 -222.709)" fill="#231208"/>
          <path id="Path_85244" data-name="Path 85244" d="M292.421,250.167a.446.446,0,1,0,.445-.446A.445.445,0,0,0,292.421,250.167Z" transform="translate(-271.409 -223.169)" fill="#fff"/>
          <g id="Group_80635" data-name="Group 80635" transform="translate(12.474 32.232)">
            <g id="Group_80634" data-name="Group 80634" transform="translate(0 0)">
              <path id="Path_85245" data-name="Path 85245" d="M281.33,263.2a2.912,2.912,0,0,1-.826.546,3.234,3.234,0,0,1-.989.269,2.93,2.93,0,0,1-1.066-.053,2.922,2.922,0,0,1-.522-.159,4.442,4.442,0,0,1-.492-.238l-.205-.1-.046-.345a4.258,4.258,0,0,1-.038-.43c-.009-.141,0-.28,0-.419a4.763,4.763,0,0,1,.115-.828,3.711,3.711,0,0,1,.278-.8,2.925,2.925,0,0,1,.485-.749,3.93,3.93,0,0,1,.234.845,6.067,6.067,0,0,1,.1.8c.011.263.016.524.006.782l-.024.387c-.01.127-.023.262-.039.377l-.25-.449c.111.066.212.159.329.219a2.872,2.872,0,0,0,.355.182,3.956,3.956,0,0,0,.38.142c.134.027.267.074.407.092a3.023,3.023,0,0,0,.429.045,3.982,3.982,0,0,0,.448.006A5.618,5.618,0,0,0,281.33,263.2Z" transform="translate(-277.141 -259.888)" fill="#e68e68"/>
            </g>
          </g>
          <path id="Path_85246" data-name="Path 85246" d="M271.335,245.1a.722.722,0,0,1-.816.553,7.919,7.919,0,0,0-4.162.349.746.746,0,0,1-.889-.409h0a.66.66,0,0,1,.362-.929,9.365,9.365,0,0,1,4.9-.434.73.73,0,0,1,.6.87Z" transform="translate(-259.482 -220.681)" fill="#361709"/>
          <path id="Path_85247" data-name="Path 85247" d="M287.1,245.1a.722.722,0,0,0,.816.553,7.92,7.92,0,0,1,4.162.349.746.746,0,0,0,.889-.409h0a.659.659,0,0,0-.362-.929,9.364,9.364,0,0,0-4.9-.434.731.731,0,0,0-.6.87Z" transform="translate(-269.055 -220.681)" fill="#361709"/>
          <path id="Path_85248" data-name="Path 85248" d="M281.726,275.837a2.754,2.754,0,0,1-1.232.02" transform="translate(-266.147 -234.694)" fill="none" stroke="#e2826c" stroke-linecap="round" stroke-linejoin="round" stroke-width="1"/>
          <path id="Path_85249" data-name="Path 85249" d="M276.631,271.278l.716,1.406a4.164,4.164,0,0,0,5.451-1.335A55.968,55.968,0,0,1,276.631,271.278Z" transform="translate(-264.442 -232.682)" fill="#fff"/>
          <path id="Path_85250" data-name="Path 85250" d="M264.246,213.785s3.266,3.953,10.65,4.995c0,0,7.5,2.592,7.4,6.821l-1.323,7.672,1.5-.156s.041-3.092,1.689-3.136c0,0,1.484-6.207,1.46-7.27s-2.091-11.583-2.091-11.583l-8.044-5.738s-8.7-1.275-12.737-3.188c0,0,.921,2.445,2.267,3.188,0,0-5.043.532-5.515.425s.7,2.657.7,2.657l-4.236,6.482.817,15.028s1.31.129,1.706,3.292h1.23l-.215-9.642S261.232,217.66,264.246,213.785Z" transform="translate(-255.322 -202.202)" fill="#16142a"/>
          <path id="Path_85251" data-name="Path 85251" d="M263.912,218.443a19.947,19.947,0,0,1-3.759-4.893l-4.189,6.412,0,.039c1.382,2.216,2.765,4.435,4.221,6.6a30.685,30.685,0,0,1,4.059-7.812,9.557,9.557,0,0,0,1.313,1.217Q264.711,219.251,263.912,218.443Z" transform="translate(-255.322 -207.209)" fill="#16142a"/>
        </g>
      </g>
      <g id="Group_80688" data-name="Group 80688" transform="translate(0 47.332)">
        <g id="Group_80662" data-name="Group 80662" transform="translate(41.831 12.732)">
          <g id="Group_80650" data-name="Group 80650" transform="translate(21.775 63.32)">
            <g id="Group_80638" data-name="Group 80638" transform="translate(15.858)">
              <rect id="Rectangle_21203" data-name="Rectangle 21203" width="6.665" height="22.218" fill="#3c3e40"/>
            </g>
            <g id="Group_80647" data-name="Group 80647" transform="translate(0 34.437)">
              <g id="Group_80642" data-name="Group 80642" transform="translate(22.523)">
                <g id="Group_80640" data-name="Group 80640">
                  <g id="Group_80639" data-name="Group 80639">
                    <path id="Path_85252" data-name="Path 85252" d="M494.319,444.872h1.111v-5.349a3.742,3.742,0,0,0-.929-2.913,6.285,6.285,0,0,0-3.172-2.087,5.81,5.81,0,0,1-1.678-.761H483.21v2.223h6.508a7.658,7.658,0,0,1,3.847,1.559,3.439,3.439,0,0,1,.754,1.979Z" transform="translate(-483.21 -433.762)" fill="#6f7275"/>
                  </g>
                </g>
                <g id="Group_80641" data-name="Group 80641" transform="translate(8.53 9.989)">
                  <path id="Path_85253" data-name="Path 85253" d="M496.171,444.964a3.109,3.109,0,0,1-.023.371,2.963,2.963,0,0,1-5.88,0,2.885,2.885,0,0,1-.023-.371,2.963,2.963,0,1,1,5.926,0Z" transform="translate(-490.245 -442)" fill="#2c2c42"/>
                  <path id="Path_85254" data-name="Path 85254" d="M496.171,444.966a1.982,1.982,0,0,1-.023.375h-5.88a1.885,1.885,0,0,1-.023-.375,2.963,2.963,0,0,1,5.926,0Z" transform="translate(-490.245 -441.999)" fill="#6f7275"/>
                </g>
              </g>
              <g id="Group_80646" data-name="Group 80646">
                <g id="Group_80644" data-name="Group 80644" transform="translate(1.416)">
                  <g id="Group_80643" data-name="Group 80643">
                    <path id="Path_85255" data-name="Path 85255" d="M468.026,444.872H465.8v-5.349a4.047,4.047,0,0,1,1.34-2.913,6.9,6.9,0,0,1,3.376-2.087,8.658,8.658,0,0,0,1.882-.761h7.844v2.223h-7.912a7.237,7.237,0,0,0-3.7,1.559,3.349,3.349,0,0,0-.608,1.979Z" transform="translate(-465.803 -433.762)" fill="#6f7275"/>
                  </g>
                </g>
                <g id="Group_80645" data-name="Group 80645" transform="translate(0 9.989)">
                  <path id="Path_85256" data-name="Path 85256" d="M464.635,444.964a3.109,3.109,0,0,0,.023.371,2.963,2.963,0,0,0,5.88,0,2.874,2.874,0,0,0,.023-.371,2.963,2.963,0,1,0-5.926,0Z" transform="translate(-464.635 -442)" fill="#2c2c42"/>
                  <path id="Path_85257" data-name="Path 85257" d="M464.635,444.966a1.982,1.982,0,0,0,.023.375h5.88a1.88,1.88,0,0,0,.023-.375,2.963,2.963,0,0,0-5.926,0Z" transform="translate(-464.635 -441.999)" fill="#6f7275"/>
                </g>
              </g>
            </g>
            <g id="Group_80649" data-name="Group 80649" transform="translate(15.526 36.659)">
              <rect id="Rectangle_21204" data-name="Rectangle 21204" width="2.222" height="8.887" transform="translate(2.554)" fill="#6f7275"/>
              <g id="Group_80648" data-name="Group 80648" transform="translate(0 7.767)">
                <path id="Path_85258" data-name="Path 85258" d="M483.365,444.964a3.1,3.1,0,0,1-.022.371,2.964,2.964,0,0,1-5.881,0,3.1,3.1,0,0,1-.023-.371,2.963,2.963,0,1,1,5.926,0Z" transform="translate(-477.439 -442)" fill="#2c2c42"/>
                <path id="Path_85259" data-name="Path 85259" d="M483.365,444.966a2.016,2.016,0,0,1-.022.375h-5.881a1.979,1.979,0,0,1-.023-.375,2.963,2.963,0,0,1,5.926,0Z" transform="translate(-477.439 -441.999)" fill="#6f7275"/>
              </g>
            </g>
            <rect id="Rectangle_21205" data-name="Rectangle 21205" width="9.998" height="18.885" transform="translate(13.636 18.885)" fill="#6f7275"/>
          </g>
          <rect id="Rectangle_21206" data-name="Rectangle 21206" width="24.439" height="4.444" transform="translate(27.635 61.098)" fill="#6f7275"/>
          <rect id="Rectangle_21207" data-name="Rectangle 21207" width="7.776" height="11.109" transform="translate(36.522 45.546)" fill="#6f7275"/>
          <g id="Group_80659" data-name="Group 80659" transform="translate(0 33.326)">
            <g id="Group_80654" data-name="Group 80654" transform="translate(0 1.154)">
              <g id="Group_80652" data-name="Group 80652" transform="translate(5.353 2.178)">
                <g id="Group_80651" data-name="Group 80651">
                  <path id="Path_85260" data-name="Path 85260" d="M466.709,402.26v3.332h-8.752a5.968,5.968,0,0,1-4.592-1.62,9.019,9.019,0,0,1-2.155-5.079,10.718,10.718,0,0,1-.053-2.726V383.374h3.333v12.9c0,1.085-.068,3.895,1.4,5.431.584.607,1.112.554,2.066.554Z" transform="translate(-451.091 -383.374)" fill="#6f7275"/>
                </g>
              </g>
              <g id="Group_80653" data-name="Group 80653">
                <path id="Path_85261" data-name="Path 85261" d="M460.619,384.381v.7a2.8,2.8,0,0,1-2.8,2.806h-8.334a2.8,2.8,0,0,1-2.8-2.806v-.7a2.8,2.8,0,0,1,2.788-2.8h8.351c.047,0,.095,0,.146,0a2.833,2.833,0,0,1,1.18.329,1.194,1.194,0,0,1,.129.073A2.8,2.8,0,0,1,460.619,384.381Z" transform="translate(-446.677 -381.578)" fill="#85462b"/>
              </g>
            </g>
            <g id="Group_80658" data-name="Group 80658" transform="translate(59.851)">
              <g id="Group_80656" data-name="Group 80656" transform="translate(0 3.332)">
                <g id="Group_80655" data-name="Group 80655">
                  <path id="Path_85262" data-name="Path 85262" d="M496.036,402.26v3.332h8.409a5.97,5.97,0,0,0,4.591-1.62,9.155,9.155,0,0,0,2.329-5.079,17.115,17.115,0,0,0,.223-2.726V383.374h-3.332v12.9c0,1.085-.107,3.895-1.575,5.431-.583.607-1.283.554-2.236.554Z" transform="translate(-496.036 -383.374)" fill="#6f7275"/>
                </g>
              </g>
              <g id="Group_80657" data-name="Group 80657" transform="translate(6.665)">
                <path id="Path_85263" data-name="Path 85263" d="M515.975,384.273c0-1.547-1.626-3.647-3.178-3.647h-8.222c-1.55,0-3.041,2.1-3.041,3.647v.849c0,1.548,1.491,2.169,3.041,2.169H512.8c1.552,0,3.178-.621,3.178-2.169Z" transform="translate(-501.533 -380.626)" fill="#85462b"/>
              </g>
            </g>
          </g>
          <g id="Group_80660" data-name="Group 80660" transform="translate(18.748)">
            <rect id="Rectangle_21208" data-name="Rectangle 21208" width="42.213" height="53.322" rx="2.313" fill="#5c311e"/>
          </g>
          <g id="Group_80661" data-name="Group 80661" transform="translate(14.305 53.322)">
            <path id="Rectangle_21209" data-name="Rectangle 21209" d="M2.6,0H51.83a2.6,2.6,0,0,1,2.6,2.6v3.68a2.6,2.6,0,0,1-2.6,2.6H2.6A2.6,2.6,0,0,1,0,6.284V2.6A2.6,2.6,0,0,1,2.6,0Z" fill="#85462b"/>
          </g>
        </g>
        <g id="Group_80684" data-name="Group 80684" transform="translate(40.02 0)">
          <g id="Group_80669" data-name="Group 80669" transform="translate(45.389 57.747)">
            <g id="Group_80666" data-name="Group 80666" transform="translate(5.353 52.248)">
              <g id="Group_80665" data-name="Group 80665">
                <g id="Group_80664" data-name="Group 80664">
                  <g id="Group_80663" data-name="Group 80663">
                    <path id="Path_85264" data-name="Path 85264" d="M502.089,448.959,488.318,447.4c.654-1.057.986-4.049,1.156-6.383.232-3.234.143-7.166.143-7.166s9.094-1.111,9.094,0a29.68,29.68,0,0,0,1.149,7.166C500.84,444.737,502.089,448.959,502.089,448.959Z" transform="translate(-486.757 -433.355)" fill="#22272e"/>
                    <path id="Path_85265" data-name="Path 85265" d="M502.624,448.122c0,.069,0-.177-.008-.109-.03.754-.227.7-.563,1.814H487.6c-.333-1.112-.532-1.06-.561-1.814,0-.068-.007.021-.007-.05,0-3.443,3.49-6.159,7.8-6.159S502.624,444.68,502.624,448.122Z" transform="translate(-487.031 -431.559)" fill="#22272e"/>
                  </g>
                  <path id="Path_85266" data-name="Path 85266" d="M489.271,440.514c.232-3.332.143-6.665.143-6.665s9.094-1.111,9.094,0a24.693,24.693,0,0,0,1.15,6.665Z" transform="translate(-486.555 -433.355)" fill="#617085"/>
                </g>
                <path id="Path_85267" data-name="Path 85267" d="M502.615,446.13c-.03,0-.227,2.221-.563,2.221H487.6c-.333,0-.532-2.221-.561-2.221Z" transform="translate(-487.03 -430.639)" fill="#515d6e" stroke="#515d6e" stroke-miterlimit="10" stroke-width="1"/>
              </g>
              <path id="Path_85268" data-name="Path 85268" d="M496.479,442.907c-1.074-1.5-3.639-.969-4.845.036-.182.153.018.394.209.361a15.9,15.9,0,0,1,2.144-.56c.842-.034,1.484.472,2.282.53A.246.246,0,0,0,496.479,442.907Z" transform="translate(-486.068 -431.522)" fill="#515d6e"/>
              <path id="Path_85269" data-name="Path 85269" d="M496.067,444.148c-1.194-.821-3.554-1.119-4.607.1a.233.233,0,0,0,.226.387,8.292,8.292,0,0,1,2.24-.289c.736.008,1.335.53,2.067.358A.308.308,0,0,0,496.067,444.148Z" transform="translate(-486.102 -431.213)" fill="#515d6e"/>
            </g>
            <g id="Group_80668" data-name="Group 80668">
              <g id="Group_80667" data-name="Group 80667">
                <path id="Path_85270" data-name="Path 85270" d="M505.145,397.243c-.544-.278-11.87-6.977-11.87-6.977l-10.66.13v10.081c3.512,6.462,9.806,6.208,12.113,7.62-1.976,9.031-4.091,31.565-5.214,40.315h12.345C505.873,426.445,516.29,402.929,505.145,397.243Z" transform="translate(-482.616 -390.266)" fill="#22272e"/>
              </g>
            </g>
          </g>
          <g id="Group_80676" data-name="Group 80676" transform="translate(12.024 57.747)">
            <g id="Group_80673" data-name="Group 80673" transform="translate(6.746 52.248)">
              <g id="Group_80672" data-name="Group 80672">
                <g id="Group_80671" data-name="Group 80671">
                  <g id="Group_80670" data-name="Group 80670">
                    <path id="Path_85271" data-name="Path 85271" d="M460.877,448.959l13.772-1.562c-.656-1.057-.987-4.049-1.157-6.383-.228-3.234-.143-7.166-.143-7.166s-9.1-1.111-9.1,0a29.675,29.675,0,0,1-1.147,7.166C462.127,444.737,460.877,448.959,460.877,448.959Z" transform="translate(-460.618 -433.355)" fill="#22272e"/>
                    <path id="Path_85272" data-name="Path 85272" d="M460.663,448.122c0,.069,0-.177.006-.109.028.754.228.7.563,1.814h14.453c.335-1.112.534-1.06.563-1.814,0-.068.007.021.007-.05,0-3.443-3.49-6.159-7.8-6.159S460.663,444.68,460.663,448.122Z" transform="translate(-460.663 -431.559)" fill="#22272e"/>
                  </g>
                  <path id="Path_85273" data-name="Path 85273" d="M473.1,440.514c-.228-3.332-.143-6.665-.143-6.665s-9.1-1.111-9.1,0a24.69,24.69,0,0,1-1.147,6.665Z" transform="translate(-460.227 -433.355)" fill="#617085"/>
                </g>
                <path id="Path_85274" data-name="Path 85274" d="M460.668,446.13c.028,0,.228,2.221.563,2.221h14.453c.335,0,.534-2.221.563-2.221Z" transform="translate(-460.662 -430.639)" fill="#515d6e" stroke="#515d6e" stroke-miterlimit="10" stroke-width="1"/>
              </g>
              <path id="Path_85275" data-name="Path 85275" d="M464.943,442.907c1.071-1.5,3.639-.969,4.844.036.183.153-.021.394-.21.361a15.978,15.978,0,0,0-2.143-.56c-.842-.034-1.484.472-2.284.53A.244.244,0,0,1,464.943,442.907Z" transform="translate(-459.761 -431.522)" fill="#515d6e"/>
              <path id="Path_85276" data-name="Path 85276" d="M465.329,444.148c1.194-.821,3.553-1.119,4.605.1a.233.233,0,0,1-.224.387,8.31,8.31,0,0,0-2.24-.289c-.736.008-1.334.53-2.069.358A.308.308,0,0,1,465.329,444.148Z" transform="translate(-459.702 -431.213)" fill="#515d6e"/>
            </g>
            <g id="Group_80675" data-name="Group 80675">
              <g id="Group_80674" data-name="Group 80674">
                <path id="Path_85277" data-name="Path 85277" d="M460.095,397.243c.543-.278,11.871-6.977,11.871-6.977l10.66.13v10.081c-3.512,6.462-9.807,6.208-12.116,7.62,1.976,9.031,4.092,31.565,5.214,40.315H463.381C459.366,426.445,448.949,402.929,460.095,397.243Z" transform="translate(-455.1 -390.266)" fill="#22272e"/>
              </g>
            </g>
          </g>
          <path id="Path_85278" data-name="Path 85278" d="M497.936,401.452c-.617,3.1-26.566,2.066-29.346.689-1.91-.946-.9-9.83-.084-15.309.375-2.5.709-4.288.709-4.288l27.405.273s.177,1.4.4,3.436C497.552,391.015,498.371,399.283,497.936,401.452Z" transform="translate(-440.44 -334.16)" fill="#22272e"/>
          <g id="Group_80677" data-name="Group 80677" transform="translate(28.066 48.445)">
            <path id="Path_85279" data-name="Path 85279" d="M489.6,387.477a27.648,27.648,0,0,0,2.921-1.407c-.225-1.83-.4-3.081-.4-3.081l-3.467-.03C488.922,384.475,489.25,385.978,489.6,387.477Z" transform="translate(-464.008 -382.516)" fill="#8c4c09"/>
            <path id="Path_85280" data-name="Path 85280" d="M489.026,388.493a26.221,26.221,0,0,1-3.007.606,31.414,31.414,0,0,1-9.171-.028c-.879-.126-1.738-.283-2.556-.458.189-2,.235-4.012.342-6.019l13.017.115C488.035,384.66,488.484,386.588,489.026,388.493Z" transform="translate(-467.061 -382.594)" fill="#8c4c09"/>
            <path id="Path_85281" data-name="Path 85281" d="M472.056,382.806l-3.018-.024s-.335,1.6-.709,3.844c.925.369,2.009.768,3.215,1.154A22.243,22.243,0,0,1,472.056,382.806Z" transform="translate(-468.329 -382.554)" fill="#8c4c09"/>
            <path id="Path_85282" data-name="Path 85282" d="M485.647,389.066a31.415,31.415,0,0,1-9.171-.028l-.434-5.566,9.156-.721Z" transform="translate(-466.69 -382.561)" fill="#c28c4b"/>
          </g>
          <g id="Group_80680" data-name="Group 80680" transform="translate(23.629)">
            <path id="Path_85283" data-name="Path 85283" d="M464.678,347.946s19.574-3.669,38.17-.487c0,0-4.159,35.478-5.628,43.063,0,0-14.68,3.67-27.405-.245C469.816,390.276,464.433,354.8,464.678,347.946Z" transform="translate(-464.67 -341.894)" fill="#ebe6e2"/>
            <g id="Group_80678" data-name="Group 80678" transform="translate(17.748 13.528)">
              <path id="Path_85284" data-name="Path 85284" d="M481.046,354.64a.844.844,0,1,1-.844-.842A.846.846,0,0,1,481.046,354.64Z" transform="translate(-479.296 -353.798)" fill="#fff"/>
              <path id="Path_85285" data-name="Path 85285" d="M481.046,361.876a.844.844,0,1,1-.844-.843A.842.842,0,0,1,481.046,361.876Z" transform="translate(-479.296 -352.26)" fill="#fff"/>
              <path id="Path_85286" data-name="Path 85286" d="M480.994,376.346a.843.843,0,1,1-.841-.843A.842.842,0,0,1,480.994,376.346Z" transform="translate(-479.307 -349.184)" fill="#fff"/>
              <path id="Path_85287" data-name="Path 85287" d="M481.046,369.082a.844.844,0,1,1-.844-.843A.845.845,0,0,1,481.046,369.082Z" transform="translate(-479.296 -350.728)" fill="#fff"/>
            </g>
            <g id="Group_80679" data-name="Group 80679" transform="translate(8.083)">
              <path id="Path_85288" data-name="Path 85288" d="M475.654,342.642l-4.319,5.074,3.914,10.276,6.607-5.627S476.388,346.8,475.654,342.642Z" transform="translate(-471.336 -342.642)" fill="#f5f0eb"/>
              <path id="Path_85289" data-name="Path 85289" d="M485.884,342.79l4.651,4.894-3.917,10.276-6.606-5.628S485.151,346.949,485.884,342.79Z" transform="translate(-469.492 -342.61)" fill="#f5f0eb"/>
            </g>
          </g>
          <g id="Group_80681" data-name="Group 80681" transform="translate(0 6.52)">
            <path id="Path_85290" data-name="Path 85290" d="M468.879,348.024c-.852.071-21.682,13.61-23.578,31.456,0,0,3.252,10.589,27.1-19.359C472.4,360.122,472.4,347.721,468.879,348.024Z" transform="translate(-445.158 -348.018)" fill="#ebe6e2"/>
            <path id="Path_85291" data-name="Path 85291" d="M474.583,372.914c-16.429-10.751-29.257,2.183-29.257,2.183-2.128,3.889,20.107,4.4,29.257,3.489Z" transform="translate(-445.183 -343.635)" fill="#ebe6e2"/>
            <path id="Path_85292" data-name="Path 85292" d="M464.577,378.514s6.887-14.155,17.726-.241Z" transform="translate(-441.061 -342.889)" fill="#f5ae94"/>
          </g>
          <g id="Group_80683" data-name="Group 80683" transform="translate(56.094 6.49)">
            <path id="Path_85293" data-name="Path 85293" d="M497.158,347.994s8.338,13.392,15.769,18.071c8.342,5.253,22.014,10.534,22.014,10.534s5.44,5.412-.08,6.148c-13.9,1.854-33.364-.308-38.924-12.357S489.111,355.874,497.158,347.994Z" transform="translate(-491.444 -347.994)" fill="#ebe6e2"/>
            <g id="Group_80682" data-name="Group 80682" transform="translate(32.429 26.196)">
              <path id="Path_85294" data-name="Path 85294" d="M532.516,378.378c-.822-3.858-3.514-6.691-6.716-6.691s-5.893,2.833-6.715,6.691Z" transform="translate(-517.997 -369.154)" fill="#22272e"/>
              <path id="Path_85295" data-name="Path 85295" d="M522.331,374.856a2.143,2.143,0,1,1-2.071-1.593A1.88,1.88,0,0,1,522.331,374.856Z" transform="translate(-518.188 -368.819)" fill="#f0a98f"/>
              <path id="Path_85296" data-name="Path 85296" d="M524.462,372.09c0,1.271-.629,2.3-1.4,2.3s-1.408-1.03-1.408-2.3.629-2.3,1.408-2.3S524.462,370.821,524.462,372.09Z" transform="translate(-517.452 -369.557)" fill="#f0a98f"/>
              <path id="Path_85297" data-name="Path 85297" d="M527.817,372.294c-.435,1.194-1.38,1.945-2.107,1.681s-.969-1.45-.534-2.643,1.376-1.945,2.106-1.679S528.25,371.1,527.817,372.294Z" transform="translate(-516.749 -369.598)" fill="#f0a98f"/>
              <path id="Path_85298" data-name="Path 85298" d="M530.582,374.908c-.82.97-1.964,1.352-2.558.851s-.41-1.693.41-2.664,1.967-1.35,2.559-.851S531.4,373.94,530.582,374.908Z" transform="translate(-516.171 -369.082)" fill="#f0a98f"/>
              <path id="Path_85299" data-name="Path 85299" d="M531.347,377.495c-1.214.38-2.384.084-2.614-.658s.57-1.648,1.78-2.026,2.383-.079,2.614.662S532.559,377.121,531.347,377.495Z" transform="translate(-515.955 -368.524)" fill="#f0a98f"/>
            </g>
          </g>
        </g>
        <g id="Group_80686" data-name="Group 80686" transform="translate(0 41.319)">
          <g id="Group_80685" data-name="Group 80685" transform="translate(13.313 6.786)">
            <path id="Path_85300" data-name="Path 85300" d="M427.728,463.311l17.647-79.5-4.237-1.5-17.98,81Z" transform="translate(-423.158 -382.314)" fill="#838792"/>
            <path id="Path_85301" data-name="Path 85301" d="M545.865,463.311l-17.647-79.5,4.237-1.5,17.979,81Z" transform="translate(-400.826 -382.314)" fill="#838792"/>
          </g>
          <rect id="Rectangle_21210" data-name="Rectangle 21210" width="176.235" height="8.609" fill="#b87744"/>
        </g>
        <g id="Group_80687" data-name="Group 80687" transform="translate(70.239 11.897)">
          <path id="Rectangle_21211" data-name="Rectangle 21211" d="M1.753,0H42.69a1.754,1.754,0,0,1,1.754,1.754v22.73a1.754,1.754,0,0,1-1.754,1.754H1.754A1.754,1.754,0,0,1,0,24.485V1.753A1.753,1.753,0,0,1,1.753,0Z" transform="translate(3.58)" fill="#22272e"/>
          <path id="Path_85302" data-name="Path 85302" d="M470.112,373.852c0,.05-.007.1-.007.147a3.351,3.351,0,0,0,3.351,3.352h44.9A3.352,3.352,0,0,0,521.709,374c0-.05-.006-.1-.007-.147Z" transform="translate(-470.105 -347.904)" fill="#22272e"/>
          <path id="Path_85303" data-name="Path 85303" d="M494.467,363.813a2.623,2.623,0,1,1-2.623-2.624A2.626,2.626,0,0,1,494.467,363.813Z" transform="translate(-466.042 -350.596)" fill="#74b502"/>
        </g>
      </g>
    </g>
  </g>
</svg>
