<svg xmlns="http://www.w3.org/2000/svg" width="35" height="35" viewBox="0 0 35 35"><defs><style>.a{fill:#ff3b33;opacity:0.74;}.b{fill:#fff;stroke:#fff;stroke-width:0.3px;}</style></defs><rect class="a" width="35" height="35" rx="7"/><g transform="translate(8.414 7.612)"><path class="b" d="M123.315,49.53c-.489,0-.888,0-1.287,0-.629-.007-.99-.283-1-.755s.358-.768.978-.77c1.252,0,2.5,0,3.757,0h.6c0-.511-.006-.977,0-1.443a1.517,1.517,0,0,1,1.607-1.6q2.178-.014,4.356,0a1.543,1.543,0,0,1,1.663,1.666c.006.434,0,.867,0,1.381h.873c1.18,0,2.359,0,3.539,0,.568,0,.927.318.916.778-.01.441-.355.735-.9.745-.434.008-.868,0-1.387,0v.653q0,5.989,0,11.979a2.336,2.336,0,0,1-2.62,2.615q-4.247,0-8.494,0a2.333,2.333,0,0,1-2.611-2.623q-.006-5.962,0-11.924Zm1.574.026a.873.873,0,0,0-.039.154q0,6.337,0,12.674c0,.59.31.86.941.861q4.325,0,8.649,0c.829,0,1.072-.241,1.072-1.063q0-6.038,0-12.076c0-.176-.018-.351-.029-.55Zm3.04-3.047v1.466h4.5V46.508Z" transform="translate(-121.032 -44.949)"/><path class="b" d="M185.5,118.879c0,.942,0,1.884,0,2.827,0,.575-.3.931-.762.927s-.761-.359-.762-.932q-.007-2.881,0-5.762c0-.576.3-.93.761-.927s.759.359.763.931C185.507,116.922,185.5,117.9,185.5,118.879Z" transform="translate(-177.119 -107.383)"/><path class="b" d="M211.975,118.844c0-.96-.005-1.92,0-2.879,0-.579.3-.929.759-.932s.763.345.764.923q.007,2.879,0,5.759c0,.576-.3.931-.758.934s-.761-.354-.765-.926C211.97,120.763,211.975,119.8,211.975,118.844Z" transform="translate(-202.069 -107.4)"/></g></svg>