<svg xmlns="http://www.w3.org/2000/svg" width="27.669" height="23.383" viewBox="0 0 27.669 23.383">
  <g id="filter" transform="translate(-58.925 -16.171)">
    <path id="Path_85486" data-name="Path 85486" d="M77.124,20.415q-4.2,0-8.408,0a.386.386,0,0,0-.421.256,3.184,3.184,0,0,1-5.8,0,.361.361,0,0,0-.389-.253c-.653.014-1.307.009-1.961,0a1.065,1.065,0,1,1,.012-2.126c.665,0,1.329-.006,1.994,0a.3.3,0,0,0,.321-.2,3.184,3.184,0,0,1,5.837-.012c.1.218.237.213.414.213q8.325,0,16.65,0a2.217,2.217,0,0,1,.463.027,1.061,1.061,0,0,1-.241,2.1c-1.3.007-2.592,0-3.888,0Zm-11.711,0a1.062,1.062,0,1,0-1.076-1.039A1.067,1.067,0,0,0,65.413,20.413Z" transform="translate(-0.085)" fill="#757575"/>
    <path id="Path_85487" data-name="Path 85487" d="M68.512,146.277q4.2,0,8.408,0a.387.387,0,0,0,.419-.259,3.185,3.185,0,0,1,5.8.007.36.36,0,0,0,.389.253c.642-.014,1.285-.007,1.927,0a1.068,1.068,0,1,1-.014,2.127c-.654,0-1.307.006-1.961,0a.3.3,0,0,0-.32.2,3.184,3.184,0,0,1-5.837.009c-.1-.222-.241-.21-.416-.21H60.222a1.394,1.394,0,0,1-.678-.119,1.059,1.059,0,0,1,.394-2.005c.11-.009.221,0,.332,0ZM80.249,148.4a1.062,1.062,0,1,0-1.075-1.04A1.067,1.067,0,0,0,80.249,148.4Z" transform="translate(-0.028 -119.479)" fill="#757575"/>
    <path id="Path_85488" data-name="Path 85488" d="M79.164,276.4c-2.094,0-4.187,0-6.281,0a.387.387,0,0,0-.418.26,3.184,3.184,0,0,1-5.8-.011.365.365,0,0,0-.392-.25q-3.107.012-6.215,0a1.066,1.066,0,1,1,.015-2.127c2.038,0,4.077,0,6.115.008a.486.486,0,0,0,.514-.324,3.18,3.18,0,0,1,5.751.044.413.413,0,0,0,.44.278q6.264-.01,12.529,0a1.067,1.067,0,1,1,.019,2.126Q82.3,276.4,79.164,276.4Zm-8.532-1.068a1.062,1.062,0,1,0-1.05,1.066A1.07,1.07,0,0,0,70.632,275.332Z" transform="translate(0 -238.962)" fill="#757575"/>
  </g>
</svg>
