<svg xmlns="http://www.w3.org/2000/svg" width="24.97" height="27.965" viewBox="0 0 24.97 27.965">
  <g id="import" transform="translate(-104.927 79.057)">
    <path id="Path_85086" data-name="Path 85086" d="M204.947-65.027q0,5.444,0,10.888a2.981,2.981,0,0,1-3.072,3.076q-6.926.007-13.852,0a2.982,2.982,0,0,1-3.044-3.042q-.008-2.917,0-5.834a1.007,1.007,0,0,1,1.006-1.107,1.01,1.01,0,0,1,.99,1.123q0,2.839,0,5.678c0,.815.368,1.186,1.178,1.186q6.8,0,13.6,0c.834,0,1.2-.364,1.2-1.2q0-10.763,0-21.526c0-.9-.346-1.239-1.251-1.239q-6.817,0-13.633,0a1,1,0,0,1-1.025-1.355,1.007,1.007,0,0,1,1.009-.64q2.324,0,4.648,0,4.571,0,9.141,0a2.987,2.987,0,0,1,3.107,3.1Q204.952-70.471,204.947-65.027Z" transform="translate(-75.052 -0.032)" fill="#757575"/>
    <path id="Path_85087" data-name="Path 85087" d="M104.931-73.388q0-2.293,0-4.586a.994.994,0,0,1,.612-1,.99.99,0,0,1,1.384.946c.009,1.487,0,2.974,0,4.461s-.005,2.974,0,4.461a3.991,3.991,0,0,0,4.045,4.029,4,4,0,0,0,3.942-4.04c0-.79,0-1.581,0-2.371a1.5,1.5,0,0,0-1.467-1.575,1.49,1.49,0,0,0-1.524,1.549c-.009,1.133,0,2.267,0,3.4a.994.994,0,0,1-1.346.974.867.867,0,0,1-.629-.783,29.5,29.5,0,0,1,.043-4.206,3.433,3.433,0,0,1,3.683-2.927,3.48,3.48,0,0,1,3.235,3.4,26.218,26.218,0,0,1-.047,3.335,5.984,5.984,0,0,1-5.694,5.241,6,6,0,0,1-6.118-4.824,15.678,15.678,0,0,1-.113-2.8C104.921-71.6,104.931-72.494,104.931-73.388Z" transform="translate(0)" fill="#757575"/>
    <path id="Path_85088" data-name="Path 85088" d="M271.964,198.153a1.084,1.084,0,0,1-.64-.212c-.648-.434-1.3-.859-1.942-1.3-.158-.109-.23-.094-.343.058-.748,1.011-1.506,2.015-2.262,3.021a.966.966,0,0,1-1.009.412.954.954,0,0,1-.777-.725.921.921,0,0,1,.153-.829c1.007-1.35,2.013-2.7,3.033-4.04a.955.955,0,0,1,1.34-.195q1.033.67,2.049,1.367c.182.125.293.138.462-.037.694-.718,1.406-1.418,2.113-2.122a1,1,0,1,1,1.41,1.411c-.939.943-1.883,1.882-2.822,2.825A1.094,1.094,0,0,1,271.964,198.153Z" transform="translate(-150.038 -255.238)" fill="#757575"/>
  </g>
</svg>
