<svg id="retest" xmlns="http://www.w3.org/2000/svg" width="35" height="35" viewBox="0 0 35 35">
  <g id="Group_79977" data-name="Group 79977" transform="translate(-1740 -434.296)">
    <g id="Component_251_7" data-name="Component 251 – 7" transform="translate(1740 434.296)">
      <rect id="Rectangle_20864" data-name="Rectangle 20864" width="35" height="35" rx="7" fill="#008ba4" opacity="0.74"/>
      <g id="Group_81342" data-name="Group 81342" transform="translate(-10.844 -270.479)">
        <path id="Path_85622" data-name="Path 85622" d="M27.927,278.479a9.257,9.257,0,0,1,5.806,1.955c.489.379.607.854.318,1.254-.314.433-.792.454-1.32.057a7.559,7.559,0,1,0,.356,11.619c.248-.214.263-.356.008-.563a5.069,5.069,0,0,1-.553-.55c-.193-.214-.16-.4.135-.457q1.765-.355,3.534-.686c.293-.055.426.066.363.386-.222,1.13-.429,2.263-.65,3.393-.077.4-.261.452-.564.183-.277-.246-.5-.72-.815-.707s-.576.421-.869.649a9.222,9.222,0,1,1-6.809-16.461C27.254,278.5,27.646,278.5,27.927,278.479Z" fill="#fff" stroke="#fff" stroke-width="0.1"/>
        <path id="Path_85623" data-name="Path 85623" d="M65.942,344.261a.964.964,0,0,1,.7.3c.688.6.515.374,1.193.98.221.2.345.188.54-.043,1.079-1.279,2.175-2.544,3.266-3.813.138-.16.271-.326.421-.474a.867.867,0,0,1,1.261-.039.9.9,0,0,1,.04,1.272c-.722.857-1.458,1.7-2.189,2.554-.7.813-1.393,1.631-2.1,2.438a1,1,0,0,1-1.636.128c-.967-.819-1.055-.843-2.016-1.668a.9.9,0,0,1-.3-1.05A.862.862,0,0,1,65.942,344.261Z" transform="translate(-41.463 -56.432)" fill="#fff" stroke="#fff" stroke-width="0.1"/>
        <path id="Path_85624" data-name="Path 85624" d="M189.826,348.547a.84.84,0,0,1-.8-.86.8.8,0,0,1,.863-.784.814.814,0,0,1,.785.82A.848.848,0,0,1,189.826,348.547Z" transform="translate(-153.573 -61.747)" fill="#fff" stroke="#fff" stroke-width="0.1"/>
        <path id="Path_85625" data-name="Path 85625" d="M191.9,374.744a.826.826,0,0,1-.817.837.861.861,0,0,1-.828-.844.836.836,0,0,1,.811-.8A.791.791,0,0,1,191.9,374.744Z" transform="translate(-154.686 -86.142)" fill="#fff" stroke="#fff" stroke-width="0.1"/>
        <path id="Path_85626" data-name="Path 85626" d="M180.878,322.378a.78.78,0,0,1-.792.807.817.817,0,0,1-.852-.812.838.838,0,0,1,.857-.816A.8.8,0,0,1,180.878,322.378Z" transform="translate(-144.74 -38.875)" fill="#fff" stroke="#fff" stroke-width="0.1"/>
      </g>
    </g>
  </g>
</svg>
