<svg xmlns="http://www.w3.org/2000/svg" width="35" height="35" viewBox="0 0 35 35">
  <g id="send" transform="translate(-1740 -434.296)">
    <g id="Component_251_12" data-name="Component 251 – 12" transform="translate(1740 434.296)">
      <rect id="Rectangle_20864" data-name="Rectangle 20864" width="35" height="35" rx="7" fill="#383f51"/>
      <g id="Group_81344" data-name="Group 81344" transform="translate(-7.957 -269.908)">
        <path id="Path_85627" data-name="Path 85627" d="M27.385,296.5a1.3,1.3,0,0,1-1-.822c-.892-1.79-1.792-3.576-2.678-5.369a1.171,1.171,0,0,0-.569-.563c-1.752-.864-3.5-1.745-5.247-2.611a1.386,1.386,0,0,1-.93-1.4,1.4,1.4,0,0,1,1.108-1.258q7.581-2.728,15.156-5.471a.9.9,0,0,1,1.22,1.238q-2.74,7.576-5.47,15.156A1.442,1.442,0,0,1,27.385,296.5Zm4.144-13.258a.972.972,0,0,0-.164.082q-2.978,2.974-5.96,5.945c-.189.187-.147.318-.047.514.619,1.218,1.224,2.444,1.841,3.663a2.219,2.219,0,0,0,.4.69ZM19.261,285.89c1.579.791,3.062,1.529,4.538,2.278.217.11.3-.034.42-.149q2.911-2.91,5.819-5.822c.054-.054.158-.093.109-.238Z" transform="translate(0)" fill="#fff"/>
      </g>
    </g>
  </g>
</svg>
