<svg xmlns="http://www.w3.org/2000/svg" viewBox="0 0 112.5 109.52"><defs><style>.cls-1{fill:none;stroke:#3a4145;stroke-linecap:round;stroke-linejoin:round;stroke-width:5px;}</style></defs><g id="Layer_4" data-name="Layer 4"><path class="cls-1" d="M4.72,33V21a4,4,0,0,1,4-4h12.3"/><path class="cls-1" d="M20.79,92.52h-12a4,4,0,0,1-4-4v-12"/><path class="cls-1" d="M107.77,76.53v12a4,4,0,0,1-4,4H92.48"/><path class="cls-1" d="M91.85,17h11.89a4,4,0,0,1,4,4V33"/><line class="cls-1" x1="19.05" y1="31.33" x2="19.05" y2="77.78"/><line class="cls-1" x1="56.18" y1="31.33" x2="56.18" y2="77.78"/><line class="cls-1" x1="93.31" y1="31.33" x2="93.31" y2="77.78"/><line class="cls-1" x1="28.92" y1="75.34" x2="28.92" y2="78.19"/><line class="cls-1" x1="28.92" y1="30.22" x2="28.92" y2="67.78"/><line class="cls-1" x1="37.89" y1="75.34" x2="37.89" y2="78.19"/><line class="cls-1" x1="37.89" y1="30.22" x2="37.89" y2="68.7"/><line class="cls-1" x1="46.86" y1="75.34" x2="46.86" y2="78.19"/><line class="cls-1" x1="46.86" y1="30.22" x2="46.86" y2="67.78"/><line class="cls-1" x1="65.74" y1="75.34" x2="65.74" y2="78.19"/><line class="cls-1" x1="65.74" y1="30.22" x2="65.74" y2="66.86"/><line class="cls-1" x1="74.71" y1="75.34" x2="74.71" y2="78.19"/><line class="cls-1" x1="74.71" y1="30.22" x2="74.71" y2="68.7"/><line class="cls-1" x1="83.68" y1="75.34" x2="83.68" y2="78.19"/><line class="cls-1" x1="83.68" y1="30.22" x2="83.68" y2="68.7"/></g></svg>