<svg xmlns="http://www.w3.org/2000/svg" width="66" height="66" viewBox="0 0 66 66"><defs><style>.a{fill:#008ba4;opacity:0.11;}.b,.c{fill:none;}.b{stroke:#035d71;stroke-width:2px;}.d,.e{stroke:none;}.e{fill:#035d71;}</style></defs><g transform="translate(0.001 13.677)"><rect class="a" width="66" height="66" rx="11" transform="translate(-0.001 -13.677)"/><g transform="translate(20.991 8.59)"><path class="b" d="M191.465,199.858a4.864,4.864,0,1,1-6.878,0,4.864,4.864,0,0,1,6.878,0" transform="translate(-176.019 -191.933)"/><g class="c" transform="translate(0 -30.522)"><path class="d" d="M21.013,33.524H18.939l-1.5-3H6.576l-1.5,3L3,33.529a3.007,3.007,0,0,0-3,3L0,48.533a3.006,3.006,0,0,0,3,3H21.013a3,3,0,0,0,3-3V36.526A3,3,0,0,0,21.013,33.524ZM12.007,47.783a6,6,0,1,1,6-6A6.011,6.011,0,0,1,12.007,47.783Z"/><path class="e" d="M 6.576305389404297 30.52199935913086 L 5.076034545898438 33.52544784545898 L 3.004854202270508 33.52914047241211 C 1.353645324707031 33.53207778930664 0.0094757080078125 34.87768936157227 0.008045196533203125 36.52962875366211 L -1.52587890625e-05 48.53303909301758 C -1.52587890625e-05 50.18866729736328 1.346315383911133 51.53575134277344 3.001955032348633 51.53575134277344 L 21.01299476623535 51.53575134277344 C 22.66862487792969 51.53575134277344 24.01496505737305 50.18941879272461 24.01496505737305 48.53377151489258 L 24.01496505737305 36.5258903503418 C 24.01491546630859 34.87030792236328 22.6685848236084 33.52396774291992 21.01299476623535 33.52396774291992 L 18.93886566162109 33.52396774291992 L 17.43716430664063 30.52199935913086 L 6.576305389404297 30.52199935913086 M 12.00708484649658 47.78327941894531 C 8.696555137634277 47.78327941894531 6.003135681152344 45.08987045288086 6.003135681152344 41.77933120727539 C 6.003135681152344 38.46878814697266 8.696555137634277 35.775390625 12.00708484649658 35.775390625 C 15.31761455535889 35.775390625 18.01102447509766 38.46878814697266 18.01102447509766 41.77933120727539 C 18.01102447509766 45.08987045288086 15.31761455535889 47.78327941894531 12.00708484649658 47.78327941894531 M 5.339704513549805 28.52199935913086 L 6.576305389404297 28.52199935913086 L 17.43716430664063 28.52199935913086 L 18.67296600341797 28.52199935913086 L 19.22584533691406 29.62722778320313 L 20.17466735839844 31.52396774291992 L 21.01299476623535 31.52396774291992 C 23.77100563049316 31.52396774291992 26.01488494873047 33.76778793334961 26.01496505737305 36.52582931518555 L 26.01496505737305 48.53377151489258 C 26.01496505737305 51.2918701171875 23.77109527587891 53.53575134277344 21.01299476623535 53.53575134277344 L 3.001955032348633 53.53575134277344 C 0.2438545227050781 53.53575134277344 -2.000015258789063 51.29154205322266 -2.000015258789063 48.53303909301758 L -1.991954803466797 36.52828979492188 C -1.989574432373047 33.77647018432617 0.2503852844238281 31.53403854370117 3.00129508972168 31.52914047241211 L 3.838335037231445 31.52764892578125 L 4.787105560302734 29.62826919555664 L 5.339704513549805 28.52199935913086 Z M 12.00708484649658 45.78327941894531 C 14.21486473083496 45.78327941894531 16.01102447509766 43.98711776733398 16.01102447509766 41.77933120727539 C 16.01102447509766 39.57154846191406 14.21486473083496 37.775390625 12.00708484649658 37.775390625 C 9.799294471740723 37.775390625 8.003135681152344 39.57154846191406 8.003135681152344 41.77933120727539 C 8.003135681152344 43.98711776733398 9.799294471740723 45.78327941894531 12.00708484649658 45.78327941894531 Z"/></g></g></g></svg>