<svg xmlns="http://www.w3.org/2000/svg" width="26.384" height="26.384" viewBox="0 0 26.384 26.384"><defs><style>.a{fill:#757575;}</style></defs><g transform="translate(8.795)"><path class="a" d="M179.352,12.7a.925.925,0,0,0-1.34-.124l-1.8,2.25L176.17,1.1a1.1,1.1,0,1,0-2.2,0l.038,13.727-1.915-2.25a.8.8,0,0,0-1.305.124,1.1,1.1,0,0,0,.1,1.151l3.3,4.4c.014.019.036.025.052.043a1.073,1.073,0,0,0,.254.212,1.134,1.134,0,0,0,.113.076,1.031,1.031,0,0,0,.922,0,1.115,1.115,0,0,0,.112-.076,1.073,1.073,0,0,0,.254-.212c.014-.018.037-.024.052-.043l3.3-4.4A1.1,1.1,0,0,0,179.352,12.7Z" transform="translate(-170.674)"/></g><g transform="translate(0 16.49)"><path class="a" d="M25.284,320a1.1,1.1,0,0,0-1.1,1.1v3.3a3.3,3.3,0,0,1-3.3,3.3H5.5a3.3,3.3,0,0,1-3.3-3.3v-3.3a1.1,1.1,0,1,0-2.2,0v3.3a5.5,5.5,0,0,0,5.5,5.5H20.887a5.5,5.5,0,0,0,5.5-5.5v-3.3A1.1,1.1,0,0,0,25.284,320Z" transform="translate(0 -320)"/></g></svg>