<svg xmlns="http://www.w3.org/2000/svg" width="66" height="66" viewBox="0 0 66 66"><defs><style>.a{fill:#383f51;stroke:#383f51;stroke-width:0.3px;}.b{fill:#008ba4;opacity:0.11;}</style></defs><g transform="translate(-700 -421)"><g transform="translate(716.868 380.852)"><g transform="translate(0 61)"><path class="a" d="M29.527,61H2.845A2.85,2.85,0,0,0,0,63.845V82.813a2.85,2.85,0,0,0,2.845,2.845H29.527a2.85,2.85,0,0,0,2.845-2.845V63.845A2.85,2.85,0,0,0,29.527,61Zm-.393,1.9L16.246,75.784,3.247,62.9ZM1.9,82.42V64.229l9.135,9.057Zm1.341,1.341,9.141-9.141,3.2,3.175a.948.948,0,0,0,1.338,0l3.123-3.123,9.091,9.091ZM30.475,82.42l-9.091-9.091,9.091-9.091Z" transform="translate(0 -61)"/></g></g><rect class="b" width="66" height="66" rx="11" transform="translate(700 421)"/></g></svg>