<svg xmlns="http://www.w3.org/2000/svg" viewBox="0 0 112.5 109.52"><defs><style>.cls-1{fill:#035d71;}</style></defs><g id="Layer_4" data-name="Layer 4"><path class="cls-1" d="M3.23,15.68v-3.5a1.36,1.36,0,0,0,.38.11c3.33,0,6.66,0,10,0a1.14,1.14,0,0,0,1.05-.64C16.06,9.52,17.49,7.4,19,5.15L25.47,23c1.23-2.85,2.39-5.43,3.45-8A1.26,1.26,0,0,1,30.35,14c4.25,0,8.51,0,12.77,0,.8,0,1-.22.94-1-.05-2.33,0-4.66,0-7,0-2.64,1.35-4,4-4H63.81c2.79,0,4.08,1.29,4.09,4.09,0,4.6,0,9.2,0,13.8,0,.67.16.87.85.86,3.12,0,6.25,0,9.37,0a1.38,1.38,0,0,1,1.41.74c.43.77,1,1.48,1.53,2.31,2.39-6.55,4.73-13,7.12-19.56.18.4.28.64.38.87,1.86,4.34,3.73,8.68,5.56,13a1.3,1.3,0,0,0,1.42.95c3.54-.05,7.07,0,10.61,0,.84,0,2-.39,2.44.18s.09,1.64.15,2.49c0,.62-.2.71-.75.71q-7.53,0-15,0a.86.86,0,0,1-1-.68c-.66-1.61-1.36-3.21-2-4.81-.48-1.11-1-2.22-1.51-3.46L81.94,31.34l-4.35-6.52c-.22-.34-.4-.66-.93-.65-2.71,0-5.43,0-8.14,0-.51,0-.67.18-.63.66a5.65,5.65,0,0,1,0,.92,3.42,3.42,0,0,1-3.59,3.54c-.86,0-1.72,0-2.58,0-.49,0-.65.14-.64.64,0,1.2,0,2.4,0,3.6,0,.82.26,1.88-.15,2.39s-1.54.11-2.35.19h-.1c-.68-.12-.86.17-.85.84,0,2.78,0,5.56,0,8.34,0,.86.23,1.08,1.08,1.07,9.09,0,18.19,0,27.29,0a18.35,18.35,0,0,1,6.38.92c7.11,2.59,11.4,7.58,12.68,15.07.11.67.31,1,1.07,1.16a3.24,3.24,0,0,1,2.57,3.18c0,1.06,0,2.13,0,3.19a3.45,3.45,0,0,1-3.65,3.7c-1.31,0-2.61.06-3.91,0-.81,0-1,.22-.94,1,0,5.6,0,11.19,0,16.79a1.92,1.92,0,0,0,.68,1.58,8.46,8.46,0,0,1-.37,12.71,12.41,12.41,0,0,1-4.17,2H93.46c-.16-.32-.51-.3-.78-.39a8.45,8.45,0,0,1-3.25-14.41A1.58,1.58,0,0,0,90,91.44q0-8.49,0-17c0-.69-.13-.91-.88-.91q-33.15,0-66.29,0c-.74,0-.89.2-.89.91q0,8.39,0,16.77a2,2,0,0,0,.7,1.68,8.45,8.45,0,0,1-.41,12.7,12.22,12.22,0,0,1-4.18,2H15.18c-.06-.26-.31-.25-.49-.29A8.49,8.49,0,0,1,11.34,92.6a1,1,0,0,0,.38-.88q0-8.76,0-17.51c0-.57-.2-.68-.71-.67-1,0-2.06-.06-3.09,0a4.3,4.3,0,0,1-4.7-2.47V65.74c.65-1,1.26-2.07,2.58-2.27.7-.11.85-.42.84-1.08,0-7.87,0-15.73,0-23.59,0-.41,0-.83,0-1.24a5,5,0,0,1,5.23-4.82,5.06,5.06,0,0,1,4.92,5.17c0,2,0,3.91,0,5.87,0,.24-.15.54.2.76A7.94,7.94,0,0,1,21.4,43a57.51,57.51,0,0,1,7.31,0,8.12,8.12,0,0,1,7.23,5.28c.26.61.48.55,1,.31a19.86,19.86,0,0,1,9.8-2.24c2.27.06,4.54,0,6.8,0,.64,0,.82-.17.81-.81,0-2.23,0-4.46,0-6.69,0-.89.37-2-.16-2.59s-1.63-.18-2.47-.14-.83-.28-.81-.9c0-1.75,0-3.5,0-5.25,0-.54-.15-.72-.7-.69-.75,0-1.51,0-2.26,0-2.51,0-3.85-1.35-3.85-3.9,0-2.37,0-4.74,0-7.1,0-.7-.15-.94-.89-.93q-5.36.06-10.71,0a1.16,1.16,0,0,0-1.26.88c-1.81,4.28-3.66,8.55-5.5,12.83-.14.33-.19.73-.55,1l-7.06-19.4c-.59.88-1.09,1.57-1.52,2.3a1.39,1.39,0,0,1-1.39.77C11.2,15.67,7.21,15.68,3.23,15.68ZM56,70.11h46.86c2.54,0,2.51,0,2.5-2.58,0-.63-.16-.81-.8-.79-2.26,0-4.53,0-6.79,0-2.73,0-2.72,0-2.63-2.76,0-.53.15-.71.7-.69,1.09,0,2.19,0,3.29,0,3,0,3,0,2.07-2.94a15.32,15.32,0,0,0-15-10.66c-13,0-25.95,0-38.93,0a20,20,0,0,0-10.13,2.56,1.23,1.23,0,0,0-.71.91A7.67,7.67,0,0,1,34,57.47c-.46.43-.38.64.08,1a7.23,7.23,0,0,1,2.69,3.91c.22.8.58,1,1.34,1q25.69,0,51.39,0c2.2,0,2.12,0,2.22,2.16.06,1.12-.33,1.3-1.35,1.3q-40.72,0-81.46,0c-2.26,0-2.2,0-2.28,2.29,0,1,.28,1.09,1.14,1.09Q31.85,70.1,56,70.11Zm8.51-54.44h0c0-3.12,0-6.24,0-9.37,0-.59-.1-.82-.77-.82q-7.73,0-15.45,0c-.67,0-.78.22-.78.82q0,9.38,0,18.74c0,.76.24.9.93.89,5.05,0,10.09,0,15.14,0,.82,0,.95-.27.94-1C64.44,21.85,64.46,18.76,64.46,15.67ZM25,56.48h0c1.13,0,2.26,0,3.39,0a5.06,5.06,0,0,0,.07-10.1c-2.3-.08-4.59-.08-6.89,0a5.05,5.05,0,0,0,0,10.09C22.74,56.53,23.88,56.48,25,56.48ZM13.45,50.33V38.61a7,7,0,0,0-.09-1.12,1.56,1.56,0,0,0-1.58-1.36,1.56,1.56,0,0,0-1.65,1.27,4.51,4.51,0,0,0-.1,1.22c0,7.4,0,14.81,0,22.22,0,.81-.37,1.88.18,2.35s1.5.06,2.28.14,1-.18,1-1C13.43,58.36,13.45,54.35,13.45,50.33ZM18.52,85V76c0-2.45,0-2.4-2.41-2.46-.87,0-1,.3-1,1,0,6.79,0,13.58,0,20.38a7,7,0,0,0,0,.92,1.6,1.6,0,0,0,1.71,1.44,1.55,1.55,0,0,0,1.58-1.45,7.1,7.1,0,0,0,0-1Zm78.26,0c0-3,0-5.9,0-8.85,0-.81.35-1.88-.15-2.37s-1.57-.08-2.38-.16c-.66-.08-.85.15-.85.83,0,6.93,0,13.86,0,20.79a4.22,4.22,0,0,0,0,.62,1.6,1.6,0,0,0,2,1.47c1-.23,1.31-1,1.3-1.93ZM17.29,63.24H33.5A4.81,4.81,0,0,0,29.17,60c-2.56-.11-5.13-.08-7.7,0A4.65,4.65,0,0,0,17.29,63.24ZM12.05,97.6A4.93,4.93,0,0,0,14,103.27a5.2,5.2,0,0,0,5.87-.11,4.87,4.87,0,0,0,1.8-5.5C19.07,102.13,14.07,101.45,12.05,97.6Zm87.89,0c-2.38,4.18-7.33,4.21-9.64.06A4.83,4.83,0,0,0,92,103.11a5.2,5.2,0,0,0,5.8.25A5.07,5.07,0,0,0,99.94,97.6ZM57.65,31c0-1.68,0-1.68-1.63-1.68s-1.73,0-1.73,1.89c0,1.55,0,1.55,1.58,1.55C57.65,32.73,57.65,32.73,57.65,31Z"/><path class="cls-1" d="M56.05,8.88c1.6,0,1.6,0,1.6,1.6,0,1.82,0,1.82,1.83,1.82,1.61,0,1.61,0,1.61,1.62,0,1.77,0,1.77-1.76,1.77s-1.68,0-1.68,1.64,0,1.78-1.76,1.78c-1.6,0-1.6,0-1.6-1.62,0-1.8,0-1.8-1.83-1.8-1.61,0-1.61,0-1.61-1.61,0-1.78,0-1.78,1.76-1.78s1.68,0,1.68-1.66S54.29,8.88,56.05,8.88Z"/></g></svg>