<svg xmlns="http://www.w3.org/2000/svg" width="79" height="79" viewBox="0 0 79 79">
  <g id="eye" transform="translate(-4.462 9.677)">
    <g id="camera" transform="translate(-0.001 -13.677)">
      <rect id="Rectangle_21179" data-name="Rectangle 21179" width="79" height="79" rx="8" transform="translate(4.463 4)" fill="#008ba4" opacity="0.08"/>
      <path id="vision" d="M43.264,15.04C39.632,7.394,31.374.5,21.714.5,10.845.5,3.032,9,.164,15.04a1.7,1.7,0,0,0,0,1.456c3.632,7.646,11.89,14.54,21.55,14.54,10.869,0,18.682-8.5,21.55-14.54A1.7,1.7,0,0,0,43.264,15.04Zm-21.55,12.6c-7.815,0-14.295-5.15-18.1-11.875C7.4,9.071,13.879,3.893,21.714,3.893c7.815,0,14.295,5.15,18.1,11.875C36.025,22.464,29.549,27.642,21.714,27.642Zm0-20.357A8.482,8.482,0,1,0,30.2,15.767,8.491,8.491,0,0,0,21.714,7.286Zm0,13.571A5.089,5.089,0,1,1,26.8,15.767,5.1,5.1,0,0,1,21.714,20.857Zm0,0" transform="translate(22.249 28.54)" fill="#035d71" stroke="#035d71" stroke-width="0.8"/>
    </g>
  </g>
</svg>
