<svg xmlns="http://www.w3.org/2000/svg" width="58" height="58" viewBox="0 0 58 58">
  <g id="id_card" data-name="id card" transform="translate(-639 -431.388)">
    <circle id="Ellipse_3161" data-name="Ellipse 3161" cx="29" cy="29" r="29" transform="translate(639 431.388)" fill="#dfdfe8" opacity="0.36"/>
    <g id="Group_81545" data-name="Group 81545" transform="translate(351.393 250.023)">
      <path id="Path_85816" data-name="Path 85816" d="M316.634,200.41c3.031,0,6.062-.008,9.093,0,3.1.008,4.727,1.61,4.734,4.676q.013,5.331,0,10.661c-.009,2.884-1.665,4.559-4.527,4.565q-9.355.017-18.709,0a4.145,4.145,0,0,1-4.475-4.512q-.014-5.383,0-10.766c.011-3.012,1.639-4.614,4.681-4.621C310.5,200.406,313.568,200.412,316.634,200.41Zm-.051,18.517c3.1,0,6.2.006,9.3,0,2.081-.005,3.195-1.071,3.206-3.126q.031-5.433,0-10.867c-.015-2.072-1.111-3.123-3.2-3.125q-9.247-.011-18.494,0c-2.2,0-3.252,1.06-3.26,3.283q-.019,5.276,0,10.553c.006,2.214,1.065,3.277,3.26,3.283C310.453,218.931,313.518,218.925,316.583,218.927Z" transform="translate(0 0)" fill="#383f51"/>
      <path id="Path_85817" data-name="Path 85817" d="M326.569,254.2a15.928,15.928,0,0,1-3.921-.524,1.016,1.016,0,0,1-.858-1.2,4.073,4.073,0,0,1,1.072-2.752c.642-.692,1.248-1.169,2.3-.531a2.9,2.9,0,0,0,3.085-.168.934.934,0,0,1,1.208.083,4.169,4.169,0,0,1,1.783,3.373,1.007,1.007,0,0,1-.862,1.188A16.259,16.259,0,0,1,326.569,254.2Z" transform="translate(-15.059 -38.3)" fill="#383f51"/>
      <path id="Path_85818" data-name="Path 85818" d="M333.775,227.093a2.734,2.734,0,0,1-2.71-2.835,2.767,2.767,0,0,1,2.849-2.713,2.775,2.775,0,1,1-.14,5.548Z" transform="translate(-22.394 -16.715)" fill="#383f51"/>
      <path id="Path_85819" data-name="Path 85819" d="M381.854,266.516c-1.113,0-2.226-.009-3.34.005-.512.006-.96-.129-.97-.692s.428-.718.944-.716q3.444.012,6.888,0c.506,0,.962.117.97.688s-.431.721-.944.717C384.219,266.509,383.037,266.516,381.854,266.516Z" transform="translate(-59.149 -51.168)" fill="#383f51"/>
      <path id="Path_85820" data-name="Path 85820" d="M381.916,223.89c-1.147,0-2.294,0-3.441,0-.508,0-.948-.136-.927-.723.018-.508.428-.671.893-.672q3.493,0,6.987,0c.5,0,.946.16.922.742-.024.6-.509.655-.993.653C384.211,223.886,383.063,223.889,381.916,223.89Z" transform="translate(-59.152 -17.467)" fill="#383f51"/>
      <path id="Path_85821" data-name="Path 85821" d="M381.847,252.369c-1.112,0-2.224,0-3.336,0-.508,0-.953-.152-.946-.72s.467-.682.97-.68q3.44.013,6.879,0c.506,0,.956.121.947.7s-.481.694-.972.694Z" transform="translate(-59.166 -39.985)" fill="#383f51"/>
      <path id="Path_85822" data-name="Path 85822" d="M381.95,238.2c-1.145,0-2.29,0-3.435,0-.489,0-.962-.116-.948-.706s.491-.667.98-.666q3.435.007,6.871,0c.5,0,.957.112.948.7s-.5.672-.979.673C384.24,238.2,383.095,238.2,381.95,238.2Z" transform="translate(-59.166 -28.795)" fill="#383f51"/>
    </g>
  </g>
</svg>
