<svg xmlns="http://www.w3.org/2000/svg" width="58" height="58" viewBox="0 0 58 58">
  <g id="insurance" transform="translate(-639 -431.388)">
    <circle id="Ellipse_3161" data-name="Ellipse 3161" cx="29" cy="29" r="29" transform="translate(639 431.388)" fill="#dfdfe8" opacity="0.36"/>
    <g id="Group_81545" data-name="Group 81545" transform="translate(351.393 250.023)">
      <path id="Path_85816" data-name="Path 85816" d="M316.634,200.41c3.031,0,6.062-.008,9.093,0,3.1.008,4.727,1.61,4.734,4.676q.013,5.331,0,10.661c-.009,2.884-1.665,4.559-4.527,4.565q-9.355.017-18.709,0a4.145,4.145,0,0,1-4.475-4.512q-.014-5.383,0-10.766c.011-3.012,1.639-4.614,4.681-4.621C310.5,200.406,313.568,200.412,316.634,200.41Zm-.051,18.517c3.1,0,6.2.006,9.3,0,2.081-.005,3.195-1.071,3.206-3.126q.031-5.433,0-10.867c-.015-2.072-1.111-3.123-3.2-3.125q-9.247-.011-18.494,0c-2.2,0-3.252,1.06-3.26,3.283q-.019,5.276,0,10.553c.006,2.214,1.065,3.277,3.26,3.283C310.453,218.931,313.518,218.925,316.583,218.927Z" transform="translate(0 0)" fill="#383f51"/>
      <path id="Path_85820" data-name="Path 85820" d="M381.916,223.89c-1.147,0-.908,0-2.055,0-.508,0-.948-.136-.927-.723.018-.508.428-.671.893-.672,2.329,0,3.272,0,5.6,0,.5,0,.946.16.922.742-.024.6-.509.655-.993.653C384.211,223.886,383.063,223.889,381.916,223.89Z" transform="translate(-60.152 -12.829)" fill="#383f51"/>
      <path id="Path_85846" data-name="Path 85846" d="M381.916,223.89c-1.147,0-.908,0-2.055,0-.508,0-.948-.136-.927-.723.018-.508.428-.671.893-.672,2.329,0,3.272,0,5.6,0,.5,0,.946.16.922.742-.024.6-.509.655-.993.653C384.211,223.886,383.063,223.889,381.916,223.89Z" transform="translate(-60.152 -9.829)" fill="#383f51"/>
      <path id="Path_85847" data-name="Path 85847" d="M381.916,223.89c-1.147,0-.908,0-2.055,0-.508,0-.948-.136-.927-.723.018-.508.428-.671.893-.672,2.329,0,3.272,0,5.6,0,.5,0,.946.16.922.742-.024.6-.509.655-.993.653C384.211,223.886,383.063,223.889,381.916,223.89Z" transform="translate(-60.152 -15.829)" fill="#383f51"/>
      <path id="Subtraction_17" data-name="Subtraction 17" d="M1245.8,10134.01a1.118,1.118,0,0,1-.461-.166,7.121,7.121,0,0,1-3.483-3.654,10.724,10.724,0,0,1-.8-3.6.922.922,0,0,1,.208-.686.973.973,0,0,1,.7-.285c.3.025.568.037.8.037a2.1,2.1,0,0,0,1.8-.648,4.705,4.705,0,0,1,.52-.436,1.1,1.1,0,0,1,1.45,0,2.508,2.508,0,0,0,2.231,1.055c.11,0,.22,0,.335-.006h.019c.112,0,.242,0,.369,0,.092,0,.165,0,.23,0a.927.927,0,0,1,.7.342.792.792,0,0,1,.168.652,10.244,10.244,0,0,1-1.561,4.975,7.245,7.245,0,0,1-2.777,2.256A1.115,1.115,0,0,1,1245.8,10134.01Zm-.67-4.383h0v.393c0,.01,0,.047,0,.189v.059c0,.035,0,.07,0,.1v.008c.023.453.222.684.59.684h.013c.521-.008.581-.469.581-.816,0-.264,0-.463,0-.619h.388c.012,0,.066,0,.155,0l.094,0c.036,0,.073,0,.107,0h.464a.223.223,0,0,0,.058,0h-.492c.441-.031.662-.232.658-.6-.009-.521-.462-.58-.8-.58h-.138l-.121,0c-.146,0-.268,0-.371,0v-.178c0-.129,0-.281,0-.461,0-.537-.193-.8-.589-.8h-.016c-.4.008-.591.275-.583.818v.033c0,.189,0,.387,0,.584-.1,0-.215,0-.385,0l-.254,0h-.012a.875.875,0,0,0-.642.2.544.544,0,0,0-.141.408c.007.393.263.584.783.584h.034c.051,0,.1,0,.154,0l.155,0,.309,0Z" transform="translate(-934 -9919.191)" fill="#383f51" stroke="rgba(0,0,0,0)" stroke-miterlimit="10" stroke-width="1"/>
    </g>
  </g>
</svg>
