<svg xmlns="http://www.w3.org/2000/svg" viewBox="0 0 112.5 109.52"><defs><style>.cls-1{fill:#035d71;}</style></defs><g id="Layer_4" data-name="Layer 4"><path class="cls-1" d="M110.46,34.88a34.71,34.71,0,0,0-.91,4.19,30,30,0,0,1-9.4,15.21,2.5,2.5,0,0,0-1,2.11c.06,3.43,0,6.87,0,10.3a2.16,2.16,0,0,1-3.89,1.63q-3.45-3.46-6.92-6.91c-.28-.29-.5-.56-1-.43-4.53,1.14-9.14,1-13.75.8a28.73,28.73,0,0,1-14.86-4.67A29.52,29.52,0,0,1,45.13,36.23a29,29,0,0,1,4.11-20.41C53.62,8.75,59.86,4,68,2.3,75.87.65,83.85.56,91.5,3.63a29.52,29.52,0,0,1,16.85,17,30,30,0,0,1,1.9,7.52c0,.19-.07.43.21.52ZM95.06,62.17c0-2.11.16-4,0-5.78-.25-2.37.69-3.87,2.48-5.38a24.3,24.3,0,0,0,8.56-16.21,25.26,25.26,0,0,0-5.46-19.36A25.11,25.11,0,0,0,84.44,6a51.57,51.57,0,0,0-12.66-.17,21.72,21.72,0,0,0-7.56,2.11c-8.38,4.05-13.6,10.61-15,19.85-1.45,9.8,1.9,17.94,9.51,24.24a24.42,24.42,0,0,0,15,5.64c4.57.17,9.15.38,13.62-.93a2.78,2.78,0,0,1,3.09.84C91.9,59.05,93.41,60.51,95.06,62.17Z"/><path class="cls-1" d="M40.14,107.9c-3-3-5.94-5.89-8.88-8.86a1.37,1.37,0,0,0-1.15-.29c-3.82,0-7.63,0-11.44,0A14.53,14.53,0,0,1,4.29,87.26a15.37,15.37,0,0,1-.35-3.51q0-15.6,0-31.2a14.56,14.56,0,0,1,15-15c6.65,0,13.31,0,20,0,.2,0,.41,0,.62,0a2.07,2.07,0,0,1,0,4.14c-.31,0-.62,0-.93,0H19A10.47,10.47,0,0,0,8.1,52.62v31.1A10.49,10.49,0,0,0,19,94.59c4.12,0,8.25,0,12.37,0A3.2,3.2,0,0,1,34,95.83c1.47,1.69,3.13,3.2,4.89,5,0-1.37,0-2.52,0-3.68,0-1.75.79-2.53,2.56-2.53q10.71,0,21.42,0c6.47,0,11-4.5,11-11,0-4.36,0-8.73,0-13.1A3.52,3.52,0,0,1,74,69.18a2,2,0,0,1,2-1.4,1.91,1.91,0,0,1,1.87,1.38A3.92,3.92,0,0,1,78,70.39c0,4.54,0,9.08,0,13.62A14.52,14.52,0,0,1,66.52,98.4a15.57,15.57,0,0,1-3.61.35c-6.31,0-12.62,0-18.92,0-.8,0-1,.21-1,1,.06,1.8,0,3.61,0,5.41a2.51,2.51,0,0,1-1.68,2.79Z"/><path class="cls-1" d="M39.22,70H18.12a7.19,7.19,0,0,1-1,0,2.06,2.06,0,0,1,0-4.11,7.18,7.18,0,0,1,.93,0H60.76c1.5,0,2.47.86,2.46,2.09S62.24,70,60.73,70Z"/><path class="cls-1" d="M35.11,81.69H18.05a6.07,6.07,0,0,1-1.13-.06,2,2,0,0,1,0-4,4.57,4.57,0,0,1,.83,0H52.43c1.65,0,2.66.85,2.6,2.16s-1,2-2.55,2H35.11Z"/><path class="cls-1" d="M32.38,58.39H18a7.1,7.1,0,0,1-1,0,2.05,2.05,0,0,1,0-4.07,6,6,0,0,1,1-.05h29.3a2.18,2.18,0,0,1,2.39,2.06,2.16,2.16,0,0,1-2.35,2.1c-1.08,0-2.15,0-3.22,0Z"/><path class="cls-1" d="M61.19,77.54a2.07,2.07,0,1,1-2.1,2A2.16,2.16,0,0,1,61.19,77.54Z"/><path class="cls-1" d="M76.11,35.47c0-.73,0-1.46,0-2.19A3.9,3.9,0,0,1,79,29.34c.29-.09.6-.17.89-.28a4.63,4.63,0,0,0-2-8.92,4.59,4.59,0,0,0-4.35,4c0,.24-.07.48-.12.72-.25,1.4-1.08,2.08-2.33,1.92s-1.84-1.09-1.73-2.5A8.77,8.77,0,1,1,81.24,33c-.74.26-1,.54-1,1.36a34.63,34.63,0,0,1,0,3.53,2.18,2.18,0,0,1-2.09,2.38,2.15,2.15,0,0,1-2.06-2.38C76.1,37.06,76.11,36.26,76.11,35.47Z"/><path class="cls-1" d="M78.16,48.44a2,2,0,0,1-2-2,2.1,2.1,0,0,1,2-2.08,2.16,2.16,0,0,1,2.11,2.11A2.12,2.12,0,0,1,78.16,48.44Z"/></g></svg>