<svg xmlns="http://www.w3.org/2000/svg" viewBox="0 0 112.5 109.52"><defs><style>.cls-1{fill:#035d71;}</style></defs><g id="Layer_4" data-name="Layer 4"><path class="cls-1" d="M40.79,95.61c0-1.06,0-2.13,0-3.19H38.94c-1.14,0-1.74.33-2,1.15a30.74,30.74,0,0,1,.67,5.5c0,.32,1.1.54,2.44.67l.63.06a.91.91,0,0,0,.09-.5C40.79,98.07,40.79,96.85,40.79,95.61Zm48.45-40c-5.45-2.1-10.89-4.24-16.34-6.31-.61-.24-.82-.52-.78-1.13,0-.9,0-1.8,0-2.68a1.31,1.31,0,0,1,.55-1.18,13.16,13.16,0,0,0,4.51-7.72,1.44,1.44,0,0,1,1.27-1.29c3.9-1,6.09-5.18,4.29-8.46a8.08,8.08,0,0,1-.88-4.23c0-.9,0-1.79,0-2.68A18.44,18.44,0,0,0,74.09,4.64C63.9-2.91,48.65,2.57,45.52,14.86a34,34,0,0,0-.6,8.48c0,1.19.13,2.38-.82,3.34a2.32,2.32,0,0,0-.38.79c-1.21,3.32,1,7,4.74,7.91a1.19,1.19,0,0,1,1.06,1.15A11.13,11.13,0,0,0,53,43.27,5.12,5.12,0,0,1,55,48.13,1.22,1.22,0,0,1,54,49.38c-5.39,2.06-10.77,4.17-16.16,6.26a13,13,0,0,0-8.61,12.28c0,1.07,0,2.14,0,3.21q-.06,7.44,0,14.89c.92-.19,1.3-.79,1.3-2V75.3c0-1.3.49-1.87,1.65-1.94q0-1.59,0-3.18c0-.81,0-1.61,0-2.42a9.71,9.71,0,0,1,6.4-9.19c3.71-1.57,7.5-2.93,11.25-4.41.49-.19.76-.21,1.07.35a10.15,10.15,0,0,0,3.87,3.74,16.94,16.94,0,0,0,12.36,1.91c3.68-.8,7-2.39,8.94-5.82.27-.45.53-.35.89-.22,3.88,1.51,7.79,2.92,11.62,4.54a10,10,0,0,1,5.8,6.65,15.87,15.87,0,0,1,.39,4.12,1.48,1.48,0,1,0,3,.13A13.44,13.44,0,0,0,89.24,55.65ZM80.36,29.19a3.22,3.22,0,0,1-2,3c-.57.26-.9.35-.84-.49s0-1.65,0-2.47,0-1.65,0-2.48c0-.62.17-.65.67-.4A3.31,3.31,0,0,1,80.36,29.19Zm-31.8,3.09a3.36,3.36,0,0,1-2.2-2.71c-.13-1.36.75-2.19,1.75-2.88a8.82,8.82,0,0,1,1.13-.53c0,2,0,3.86,0,5.71C49.26,32.49,49,32.52,48.56,32.28Zm1.11-10a1.84,1.84,0,0,1-1.73,1.1c-.16-3.73-.12-7.33,1.58-10.73A15.68,15.68,0,0,1,66.29,4.44,15.45,15.45,0,0,1,78.76,18.29c.1,1.42.09,2.84.1,4.27,0,.24.26.77-.35.69-.4-.05-1,.07-1-.65a2.12,2.12,0,0,0-.63-1.42c-1.31-1.44-2.59-2.91-4-4.29s-2.24-1.28-3.93-.25a29.09,29.09,0,0,1-14.41,4.42c-.93,0-1.86,0-2.79,0A2.2,2.2,0,0,0,49.67,22.31Zm2.61,12.15c-.13-3.26,0-6.54-.08-9.82,0-.72.4-.61.82-.6a31.12,31.12,0,0,0,13.12-2.58,25.32,25.32,0,0,0,4-2.09c.47-.3.76-.33,1.15.14.91,1.06,1.86,2.07,2.83,3.06a1.39,1.39,0,0,1,.4,1.06c0,1.82,0,3.64,0,5.85s.27,4.71-.39,7.22A11.07,11.07,0,0,1,62,44.7,10.88,10.88,0,0,1,52.28,34.46ZM57.9,46.73a15.31,15.31,0,0,0,11.24-.09c0,.88,0,1.63,0,2.38a.92.92,0,0,1-.36.76,7.68,7.68,0,0,1-10.05.46,1.9,1.9,0,0,1-.85-1.84A13.12,13.12,0,0,0,57.9,46.73Zm14.64,7.54c-2.52,2.45-5.69,3.21-9.05,3.35a13.71,13.71,0,0,1-8.72-3.1c-1.66-1.44-1.61-1.58.33-2.39a1.42,1.42,0,0,1,1.66.27,10.4,10.4,0,0,0,13.71-.12c.66-.59,1.12-.25,1.67,0C73.86,52.91,73.9,53,72.54,54.27ZM59.6,100c-5,0-9.94,0-14.91,0-.38,0-2.26,0-4-.18-.09.14-.26.19-.56.18h-.07c-1.08,0-2.14,0-3.22,0v3H60.44c.65-.41,1.24-.86,1-1.77S60.49,100,59.6,100ZM29.24,92.48V99a4.1,4.1,0,0,0,.83,2.49,2.57,2.57,0,0,0,.46.47V98.8c0-1.48,0-3,0-4.46C30.52,93.26,30.11,92.66,29.24,92.48Z"/><path class="cls-1" d="M97.82,77c0-1.26-.52-2-1.45-2s-1.53.71-1.54,2c0,2,0,4,0,6,0,.57-.16.71-.72.71-2.18,0-4.37,0-6.55,0-2.79,0-4.29,1.51-4.29,4.29,0,3.7,0,7.41,0,11.12,0,.77-.22.91-.94.91-3.51,0-7,0-10.53,0-1.55,0-3.11,0-4.67,0a1.47,1.47,0,0,0-1.45,2.15,5.19,5.19,0,0,0,.68.82H94.82c2.26-.83,3.06-2.44,3-4.82C97.77,91.08,97.82,84,97.82,77Zm-3,16.13c0,1.86,0,3.7,0,5.56,0,.92-.31,1.33-1.26,1.31-2.18,0-4.36,0-6.55,0-.55,0-.79-.06-.79-.73,0-3.8,0-7.6,0-11.4,0-.83.3-1.22,1.16-1.21,2.25,0,4.5,0,6.74,0,.59,0,.7.19.69.73C94.82,89.28,94.84,91.2,94.84,93.11Z"/><path class="cls-1" d="M80.6,68.65a4.65,4.65,0,0,0-5.23.35.89.89,0,0,1-1.32,0,4.44,4.44,0,0,0-3.55-.89c-3.46.62-5.16,3.55-4.17,7.06a11.86,11.86,0,0,0,4.9,6.53c3.22,2.3,3.73,2.28,7,0l.08,0c2.8-2.1,4.87-4.65,5-8.33A4.76,4.76,0,0,0,80.6,68.65Zm-2.92,9.63c-3.29,2.64-2.64,2.6-5.87.07a6.93,6.93,0,0,1-2.74-4.77,2.15,2.15,0,0,1,1.24-2.36,2,2,0,0,1,2.53.73c1.27,1.51,2.46,1.52,3.76,0a2.07,2.07,0,0,1,3.76,1.45A6.66,6.66,0,0,1,77.68,78.28Z"/><path class="cls-1" d="M52.67,86.65c-.88-2.66-2.4-3.77-5.18-3.77-2.25,0-4.52,0-6.78,0-.53,0-.65-.14-.65-.65,0-2.39,0-4.78,0-7.16a4.76,4.76,0,0,0-5-4.9c-.86,0-1.73,0-2.61,0a1.46,1.46,0,0,0-.29,0,5.35,5.35,0,0,0-3,.95,4.93,4.93,0,0,0-1.92,4.18c0,2.31,0,4.62,0,6.93,0,.52-.14.66-.65.65q-3.57,0-7.16,0a4.77,4.77,0,0,0-4.91,4.94v2.54c0,3.3,2,5.25,5.29,5.26,2.26,0,4.52,0,6.78,0,.53,0,.66.13.65.66q0,3.57,0,7.14a4.76,4.76,0,0,0,3.28,4.67c.14,0,.36,0,.41.25h5.07c.19-.28.53-.17.78-.26a4.83,4.83,0,0,0,3.2-4.66V103c0-1,0-2,0-3v-.24c0-1.16,0-2.32,0-3.47,0-.53.13-.66.66-.66h.07c2.24,0,4.47,0,6.7,0a4.85,4.85,0,0,0,5.12-3.5c0-.09.06-.18.17-.19V86.72S52.68,86.68,52.67,86.65Zm-3.06,4a1.6,1.6,0,0,1-1.81,1.78H38.94c-1.14,0-1.74.33-2,1.15a3.46,3.46,0,0,0-.11.92v8.72c0,1.39-.55,1.94-1.93,2-.87,0-1.74,0-2.61,0a1.61,1.61,0,0,1-1.78-1.8c0-.46,0-.92,0-1.37V98.8c0-1.48,0-3,0-4.46,0-1.08-.42-1.68-1.29-1.86a3,3,0,0,0-.62-.06H19.75c-1.4,0-1.95-.54-2-1.94,0-.86,0-1.73,0-2.59a1.61,1.61,0,0,1,1.81-1.79h8.86a4.46,4.46,0,0,0,.77-.06c.92-.19,1.3-.79,1.3-2V75.3c0-1.3.49-1.87,1.65-1.94a1.42,1.42,0,0,1,.29,0c.87,0,1.74,0,2.61,0a1.6,1.6,0,0,1,1.78,1.81c0,2.95,0,5.91,0,8.86,0,1.51.58,2.07,2.08,2.07,2.9,0,5.81,0,8.72,0,1.39,0,2,.56,2,1.94C49.62,88.9,49.63,89.76,49.61,90.63Z"/></g></svg>