<svg xmlns="http://www.w3.org/2000/svg" viewBox="0 0 112.5 109.52"><defs><style>.cls-1{fill:#035d71;}</style></defs><g id="Layer_4" data-name="Layer 4"><path class="cls-1" d="M50.9,107H15.27c-5.89,0-9.49-3.59-9.49-9.43q0-22.77,0-45.52c0-5.73,3.62-9.36,9.34-9.36,1.23,0,2.47,0,3.69,0,.73,0,.89-.19.89-.89,0-6,0-12,0-17.92V5.12c0-1.85.53-2.38,2.39-2.38H79.86c1.86,0,2.39.54,2.39,2.38,0,1.27,0,2.54,0,3.8,0,.6.14.81.77.79,1.3-.05,2.61,0,3.91,0,1.71,0,2.29.58,2.29,2.27,0,8.15,0,16.3,0,24.44,0,.88.17,1.15,1.09,1.13,3-.07,6.09,0,9.13,0A10.43,10.43,0,0,1,110,46.73a6,6,0,0,1-.2,2.46q-6.75,24.44-13.48,48.87c-.22.8-.26,1.64-.47,2.44A8.68,8.68,0,0,1,87.18,107Q69,107,50.9,107Zm0-3.48H86.77c3.84,0,5.91-2,5.91-5.87V60.76c0-3.82-2.07-5.87-5.91-5.87q-21.06,0-42.13,0A3,3,0,0,1,42.33,54c-2.32-2.38-4.71-4.7-7-7.09a2.16,2.16,0,0,0-1.7-.68c-6.19,0-12.38,0-18.57,0-3.67,0-5.77,2.11-5.77,5.8V97.71c0,3.76,2.08,5.84,5.84,5.84Zm.15-97.33c-9,0-18,0-26.93,0-.79,0-1,.15-1,1q0,17.27,0,34.53c0,.91.3,1,1.09,1,3.51,0,7,0,10.53,0a2.84,2.84,0,0,1,2.21.91c2.36,2.4,4.77,4.75,7.12,7.16a2.06,2.06,0,0,0,1.61.65q16,0,32,0c.79,0,1.08-.12,1.08-1q0-21.61,0-43.22c0-.83-.22-1-1-1C68.88,6.23,60,6.22,51.08,6.22ZM96.16,84.74h.16c0-.09.08-.18.11-.27q5-18.21,10.06-36.41a2.59,2.59,0,0,0,.05-1A6.91,6.91,0,0,0,100,41c-3.37-.07-6.73,0-10.1,0-.51,0-.68.11-.68.65,0,3.11,0,6.23,0,9.34a.65.65,0,0,0,.51.76c4.55,1.66,6.45,4.41,6.45,9.26ZM82.25,32.29V49c0,2.39,0,2.34,2.4,2.41.91,0,1.11-.22,1.1-1.11q0-17.32,0-34.65c0-2.51,0-2.47-2.5-2.52-.82,0-1,.2-1,1C82.27,20.2,82.25,26.24,82.25,32.29Z"/><path class="cls-1" d="M31.85,79.11c0-2.17,0-4.34,0-6.52,0-1.42.64-2,2-2.06,2.5,0,5,0,7.49,0,.68,0,.92-.13.91-.87-.06-2.46,0-4.92,0-7.38,0-1.58.59-2.19,2.14-2.19H57.56c1.48,0,2.09.63,2.1,2.13,0,2.5,0,5,0,7.49,0,.69.19.83.84.82,2.5,0,5,0,7.5,0,1.48,0,2.1.63,2.1,2.12q0,6.57,0,13.14c0,1.49-.62,2.11-2.1,2.12-2.46,0-4.92,0-7.38,0-.74,0-1,.14-1,.93,0,2.46,0,4.92,0,7.38,0,1.5-.63,2.13-2.1,2.14-4.41,0-8.83,0-13.24,0-1.41,0-2-.64-2-2.07,0-2.5,0-5,0-7.49,0-.74-.23-.89-.91-.88-2.46,0-4.92,0-7.38,0-1.55,0-2.16-.62-2.16-2.18C31.84,83.53,31.85,81.32,31.85,79.11ZM51,63.58c-1.45,0-2.9.05-4.34,0-.81-.05-.94.24-.92,1,0,2.39,0,4.78,0,7.17,0,1.76-.56,2.31-2.35,2.31-2.36,0-4.71,0-7.06,0-.75,0-1.06.07-1,1,.07,2.86.06,5.72,0,8.58,0,.81.25.93,1,.92,2.38,0,4.77,0,7.16,0,1.76,0,2.31.57,2.31,2.36,0,2.35,0,4.71,0,7.06,0,.74.07,1.06,1,1,2.86-.07,5.72-.06,8.58,0,.8,0,.93-.25.92-1-.05-2.39,0-4.78,0-7.17,0-1.76.56-2.3,2.36-2.31,2.39,0,4.78,0,7.17,0,.64,0,.94-.07.92-.85q-.07-4.41,0-8.8c0-.72-.23-.82-.86-.81-2.46,0-4.92,0-7.39,0-1.61,0-2.19-.6-2.2-2.24,0-2.43,0-4.85,0-7.28,0-.79-.23-1-1-.92C53.83,63.62,52.41,63.58,51,63.58Z"/><path class="cls-1" d="M26.63,34.16A16.11,16.11,0,0,1,26.81,31a5.2,5.2,0,0,1,4.89-3.9c.62,0,1.23,0,1.85,0a1.65,1.65,0,0,0,1.56-1A1.68,1.68,0,0,0,35,24.19a6.4,6.4,0,0,1-1.37-4.25,25.22,25.22,0,0,1,.17-4.76,6.94,6.94,0,0,1,13.72,1.27c0,1.16,0,2.32,0,3.47a6.68,6.68,0,0,1-1.36,4.26A1.68,1.68,0,0,0,46,26.09a1.64,1.64,0,0,0,1.56,1,13.33,13.33,0,0,1,3,.18,5.18,5.18,0,0,1,3.89,4.9c0,1.55,0,3.11,0,4.66,0,.61-.21.7-.74.71-2.75,0-2.75.07-2.75-2.7,0-.83,0-1.66,0-2.49a1.72,1.72,0,0,0-1.79-1.77c-.51,0-1,0-1.52,0A5.08,5.08,0,0,1,42.8,27.5c-.29-.59-.54-.78-1.13-.54a.29.29,0,0,1-.1,0c-1,.21-2.1-.37-2.85,0s-.92,1.62-1.7,2.27a5.31,5.31,0,0,1-3.25,1.3c-.44,0-.87,0-1.3,0-1.8,0-2.35.55-2.36,2.31,0,1.26,0,2.53,0,3.8,0,.61-.07.87-.79.87-2.7,0-2.7,0-2.7-2.66ZM44,18.37c0-.65,0-1.3,0-1.95a3.49,3.49,0,0,0-3.42-3.25,3.45,3.45,0,0,0-3.5,3.27q-.09,1.95,0,3.9a3.47,3.47,0,0,0,6.92,0C44,19.67,44,19,44,18.37Z"/><path class="cls-1" d="M66.58,20.12H60.07c-1.55,0-2.14-.62-2.15-2.18q0-3.09,0-6.19c0-1.41.64-2.05,2-2.05H73.2c1.48,0,2.09.63,2.1,2.12q0,3.09,0,6.18c0,1.49-.63,2.11-2.11,2.12Zm-.07-3.48h2.72c2.67,0,2.65,0,2.61-2.72,0-.63-.19-.77-.79-.76-2.31,0-4.63,0-7,0-2.85,0-2.83,0-2.72,2.83,0,.53.17.67.68.66C63.54,16.62,65,16.64,66.51,16.64Z"/><path class="cls-1" d="M66.5,27.07c-2.61,0-5.21,0-7.82,0-.61,0-.77-.17-.78-.78,0-2.71,0-2.71,2.63-2.71,4.63,0,9.27,0,13.9,0,.71,0,.89.18.89.89,0,2.6,0,2.6-2.63,2.6Z"/><path class="cls-1" d="M66.61,34c-2.64,0-5.28,0-7.93,0-.61,0-.77-.16-.78-.77,0-2.72,0-2.72,2.63-2.72,4.63,0,9.27,0,13.9,0,.71,0,.9.18.89.89,0,2.61,0,2.61-2.63,2.61Z"/><path class="cls-1" d="M66.72,37.5c2.61,0,5.21,0,7.82,0,.61,0,.77.16.78.77,0,2.72.05,2.72-2.63,2.72-4.63,0-9.27,0-13.9,0-.71,0-.89-.18-.89-.89,0-2.61,0-2.61,2.63-2.61Z"/><path class="cls-1" d="M66.61,44.46c2.64,0,5.29,0,7.93,0,.61,0,.77.16.78.78,0,2.71.05,2.71-2.63,2.71-4.63,0-9.26,0-13.9,0-.7,0-.89-.17-.89-.89,0-2.6,0-2.6,2.63-2.6Z"/></g></svg>