<svg xmlns="http://www.w3.org/2000/svg" width="22.082" height="22.082" viewBox="0 0 22.082 22.082">
  <g id="profile" transform="translate(0.25 1.25)" opacity="0.6">
    <g id="Group_6188" data-name="Group 6188" transform="translate(0 -1)">
      <path id="Path_2295" data-name="Path 2295" d="M18.421,13.952a10.75,10.75,0,0,0-4.1-2.572,6.239,6.239,0,1,0-7.06,0A10.808,10.808,0,0,0,0,21.582H1.686a9.1,9.1,0,1,1,18.21,0h1.686A10.721,10.721,0,0,0,18.421,13.952Zm-7.63-3.161a4.552,4.552,0,1,1,4.552-4.552A4.558,4.558,0,0,1,10.791,10.791Z" transform="translate(0)" fill="#383f51" stroke="#383f51" stroke-width="0.5"/>
    </g>
  </g>
</svg>
