<svg xmlns="http://www.w3.org/2000/svg" width="58" height="58" viewBox="0 0 58 58">
  <g id="QR" transform="translate(-639 -431.888)">
    <circle id="Ellipse_3161" data-name="Ellipse 3161" cx="29" cy="29" r="29" transform="translate(639 431.888)" fill="#dfdfe8" opacity="0.36"/>
    <g id="Group_81548" data-name="Group 81548" transform="translate(457.144 359.955)">
      <path id="Path_85834" data-name="Path 85834" d="M264.722,278.854c-.816,0-1.633-.006-2.449,0-.207,0-.272-.057-.271-.268q.012-2.464,0-4.929c0-.233.079-.281.291-.28q2.449.011,4.9,0c.22,0,.291.064.29.289q-.012,2.449,0,4.9c0,.247-.09.293-.312.29C266.355,278.847,265.538,278.854,264.722,278.854Zm.941-2.693c0-.259-.013-.469,0-.676s-.039-.3-.274-.291c-.436.019-.874.014-1.311,0-.2-.006-.283.054-.276.266.013.407.024.816,0,1.221-.021.315.1.406.39.372.176-.021.357,0,.536-.005.3-.013.676.125.866-.054C265.8,276.8,265.627,276.411,265.662,276.16Z" transform="translate(-57.488 -172.475)" fill="#383f51"/>
      <path id="Path_85835" data-name="Path 85835" d="M387.088,151.045c.827,0,1.653.005,2.479,0,.206,0,.272.057.271.269q-.012,2.465,0,4.929c0,.2-.042.282-.261.28q-2.479-.013-4.959,0c-.2,0-.259-.066-.259-.257q.007-2.479,0-4.959c0-.222.087-.26.281-.258C385.455,151.05,386.272,151.046,387.088,151.045Zm.946,2.731h0c0-.229-.008-.458,0-.686.009-.184-.067-.245-.245-.242-.467.007-.934,0-1.4,0-.146,0-.217.042-.215.2.007.487.006.974,0,1.461,0,.14.05.192.191.19q.73-.008,1.461,0c.156,0,.212-.061.208-.212C388.03,154.253,388.034,154.014,388.034,153.776Z" transform="translate(-172.526 -57.453)" fill="#383f51"/>
      <path id="Path_85836" data-name="Path 85836" d="M262.024,153.774c0-.826.005-1.653,0-2.479,0-.193.054-.255.252-.254q2.479.011,4.959,0c.21,0,.271.065.27.271q-.01,2.464,0,4.929c0,.208-.07.277-.276.277q-2.479-.008-4.959,0c-.2,0-.248-.077-.246-.264C262.029,155.427,262.024,154.6,262.024,153.774Z" transform="translate(-57.506 -57.452)" fill="#383f51"/>
      <path id="Path_85837" data-name="Path 85837" d="M200.886,92.655c0-.817.005-1.634,0-2.451,0-.207.058-.273.269-.272q2.451.012,4.9,0c.214,0,.306.045.3.279-.017.418-.014.837,0,1.255.007.21-.066.272-.273.27-1.026-.009-2.053,0-3.079-.009-.249,0-.322.072-.319.32.012,1.026,0,2.052.009,3.079,0,.209-.06.279-.269.273-.418-.012-.837-.012-1.255,0-.227.008-.284-.077-.281-.3C200.893,94.29,200.886,93.472,200.886,92.655Z" transform="translate(-0.024)" fill="#383f51"/>
      <path id="Path_85838" data-name="Path 85838" d="M448.442,89.937c.807,0,1.614.006,2.421,0,.212,0,.294.041.292.277q-.016,2.451,0,4.9c0,.226-.065.3-.286.288-.418-.014-.837-.014-1.255,0-.217.007-.266-.078-.264-.279.008-1.026-.005-2.052.008-3.078,0-.256-.083-.317-.324-.314-1.006.012-2.013-.005-3.018.011-.271,0-.342-.081-.329-.338.02-.4.014-.8,0-1.2-.006-.207.062-.277.273-.274C446.788,89.944,447.615,89.938,448.442,89.937Z" transform="translate(-230.184 0)" fill="#383f51"/>
      <path id="Path_85839" data-name="Path 85839" d="M203.555,340.079c-.8,0-1.594-.008-2.391.005-.226,0-.31-.043-.309-.29q.017-2.436,0-4.872c0-.238.072-.314.3-.3.4.015.8.02,1.2,0,.263-.014.31.093.307.328-.012.976,0,1.953,0,2.929,0,.41,0,.41.4.411,1,0,1.993.006,2.989,0,.2,0,.286.051.28.265-.012.428-.01.857,0,1.285,0,.194-.061.257-.257.255-.837-.01-1.674,0-2.511,0Z" transform="translate(0 -230.046)" fill="#383f51"/>
      <path id="Path_85840" data-name="Path 85840" d="M451.192,337.371c0,.817-.005,1.634,0,2.45,0,.2-.035.278-.258.277q-2.465-.014-4.93,0c-.2,0-.284-.055-.277-.268.013-.418.015-.837,0-1.255-.008-.228.079-.283.295-.281,1,.01,1.992-.006,2.988.011.291,0,.4-.059.39-.375-.022-1,0-1.992-.012-2.988,0-.224.046-.323.294-.312.417.019.837.012,1.255,0,.195,0,.257.065.255.259C451.187,335.717,451.192,336.544,451.192,337.371Z" transform="translate(-230.227 -230.058)" fill="#383f51"/>
      <path id="Path_85841" data-name="Path 85841" d="M415.016,303.992c1.125,0,2.25,0,3.375-.006.205,0,.273.051.27.264q-.015,1.553,0,3.106c0,.206-.055.281-.267.273-.428-.015-.856-.013-1.284,0-.2.005-.261-.062-.256-.257.012-.428-.01-.857.007-1.284.01-.242-.079-.31-.31-.3-.428.015-.856,0-1.284.007-.2.006-.254-.066-.25-.257.012-.517.006-1.035.008-1.553Z" transform="translate(-201.35 -201.245)" fill="#383f51"/>
      <path id="Path_85842" data-name="Path 85842" d="M386.227,275.238c-.527,0-1.055-.017-1.582-.009-.191,0-.266-.048-.26-.249.012-.448.01-.9,0-1.344,0-.167.056-.23.225-.227q.687.011,1.374,0c.171,0,.22.061.219.227,0,.537.007,1.074.012,1.611Z" transform="translate(-172.552 -172.502)" fill="#383f51"/>
      <path id="Path_85843" data-name="Path 85843" d="M385.3,336.59c-.229,0-.457-.008-.685,0-.157.007-.211-.057-.209-.207,0-.467,0-.934,0-1.4,0-.138.058-.193.2-.192.477,0,.954,0,1.431,0,.141,0,.19.059.188.2q-.008.715,0,1.431c0,.133-.056.173-.178.171C385.8,336.587,385.549,336.59,385.3,336.59Z" transform="translate(-172.571 -230.212)" fill="#383f51"/>
    </g>
  </g>
</svg>
