<svg xmlns="http://www.w3.org/2000/svg" viewBox="0 0 112.5 109.52"><defs><style>.cls-1{fill:none;stroke:#3a4145;stroke-linecap:round;stroke-linejoin:round;stroke-width:5px;}</style></defs><g id="Layer_4" data-name="Layer 4"><path class="cls-1" d="M4.29,37.33v-25a9.16,9.16,0,0,1,9.16-9.16H39.61"/><path class="cls-1" d="M40.06,106.38H13.46a9.16,9.16,0,0,1-9.17-9.17V71.06"/><path class="cls-1" d="M108.21,70.38V97.21A9.16,9.16,0,0,1,99,106.38H72.44"/><path class="cls-1" d="M73.8,3.14H99a9.16,9.16,0,0,1,9.17,9.17V36.87"/><path class="cls-1" d="M25.37,17.78H42.51A4.27,4.27,0,0,1,46.78,22v18.2a5.61,5.61,0,0,1-5.61,5.61H25.37a5.61,5.61,0,0,1-5.61-5.61V23.39a5.61,5.61,0,0,1,5.61-5.61Z"/><rect class="cls-1" x="20.51" y="71.82" width="24" height="19.02" rx="9.51"/><rect class="cls-1" x="71.53" y="17.48" width="21.89" height="21.89" rx="5.01"/><path class="cls-1" d="M78.48,64.12h9.73a5.21,5.21,0,0,1,5.21,5.21V85.48a5.21,5.21,0,0,1-5.21,5.21H75.38a5.22,5.22,0,0,1-5.21-5.21V72.58"/><polyline class="cls-1" points="95.38 51.29 72.59 51.29 72.59 58.69"/><line class="cls-1" x1="57.19" y1="72.27" x2="57.19" y2="82.84"/><polyline class="cls-1" points="58.85 22.46 58.85 59.44 19.91 59.44"/></g></svg>