<svg xmlns="http://www.w3.org/2000/svg" viewBox="0 0 112.5 109.52"><defs><style>.cls-1{fill:none;stroke:#035d71;stroke-linecap:round;stroke-linejoin:round;stroke-width:4px;}</style></defs><g id="Layer_4" data-name="Layer 4"><path class="cls-1" d="M6.42,34.78v-13A10.72,10.72,0,0,1,17.14,11H31.57"/><path class="cls-1" d="M31.19,107h-14A10.72,10.72,0,0,1,6.42,96.31V82"/><path class="cls-1" d="M102.42,82.65V96.31A10.72,10.72,0,0,1,91.7,107H77.78"/><path class="cls-1" d="M78.29,11H91.7a10.72,10.72,0,0,1,10.72,10.73V36.05"/><path class="cls-1" d="M20.72,43.61V36.05A10.72,10.72,0,0,1,31.44,25.33h8.17"/><path class="cls-1" d="M39,92.73h-7.6A10.72,10.72,0,0,1,20.72,82V72.52"/><path class="cls-1" d="M88.12,73.48V82A10.72,10.72,0,0,1,77.4,92.73H68.91"/><path class="cls-1" d="M69.1,25.33h8.3A10.72,10.72,0,0,1,88.12,36.05v7.56"/><line class="cls-1" x1="102.8" y1="57.97" x2="6.15" y2="57.97"/></g></svg>