<svg xmlns="http://www.w3.org/2000/svg" width="26.217" height="27.963" viewBox="0 0 26.217 27.963">
  <g id="export" transform="translate(-103.68 79.055)">
    <path id="Path_85086" data-name="Path 85086" d="M204.947-65.027q0,5.444,0,10.888a2.981,2.981,0,0,1-3.072,3.076q-6.926.007-13.852,0a2.982,2.982,0,0,1-3.044-3.042q-.008-2.917,0-5.834a1.007,1.007,0,0,1,1.006-1.107,1.01,1.01,0,0,1,.99,1.123q0,2.839,0,5.678c0,.815.368,1.186,1.178,1.186q6.8,0,13.6,0c.834,0,1.2-.364,1.2-1.2q0-10.763,0-21.526c0-.9-.346-1.239-1.251-1.239-4.544,0-6.089,0-10.633,0a1,1,0,0,1-1.025-1.355,1.007,1.007,0,0,1,1.009-.64c1.549,0,.1,0,1.648,0q4.571,0,9.141,0a2.987,2.987,0,0,1,3.107,3.1Q204.952-70.471,204.947-65.027Z" transform="translate(-75.052 -0.032)" fill="#757575"/>
    <path id="Union_83" data-name="Union 83" d="M-12390.472,10428.956v-8.3c-.222.227-.475.485-.824.848-1.033,1.07-2.181-.616-1.559-1.26,1.061-1.1,1.275-1.307,2.336-2.407a1.286,1.286,0,0,1,.347-.264,1.072,1.072,0,0,1,.31-.2.96.96,0,0,1,1,.126,1.258,1.258,0,0,1,.378.278c1.061,1.1,1.5,1.366,2.56,2.467.622.641-.525,2.33-1.559,1.26-.4-.413-.705-.7-.99-.963,0,2.811,0,7.146,0,8.238a.882.882,0,0,1-.924.982C-12389.922,10429.762-12390.472,10429.425-12390.472,10428.956Z" transform="translate(12497.282 -10494.836)" fill="#757575" stroke="rgba(0,0,0,0)" stroke-miterlimit="10" stroke-width="1"/>
    <path id="Path_85088" data-name="Path 85088" d="M271.964,198.153a1.084,1.084,0,0,1-.64-.212c-.648-.434-1.3-.859-1.942-1.3-.158-.109-.23-.094-.343.058-.748,1.011-1.506,2.015-2.262,3.021a.966.966,0,0,1-1.009.412.954.954,0,0,1-.777-.725.921.921,0,0,1,.153-.829c1.007-1.35,2.013-2.7,3.033-4.04a.955.955,0,0,1,1.34-.195q1.033.67,2.049,1.367c.182.125.293.138.462-.037.694-.718,1.406-1.418,2.113-2.122a1,1,0,1,1,1.41,1.411c-.939.943-1.883,1.882-2.822,2.825A1.094,1.094,0,0,1,271.964,198.153Z" transform="translate(-150.038 -255.238)" fill="#757575"/>
  </g>
</svg>
